<?xml version="1.0" encoding="UTF-8" standalone="no"?>
<!-- Created with Inkscape (http://www.inkscape.org/) -->

<svg
   xmlns:ns1="http://www.iki.fi/pav/software/textext/"
   xmlns:dc="http://purl.org/dc/elements/1.1/"
   xmlns:cc="http://creativecommons.org/ns#"
   xmlns:rdf="http://www.w3.org/1999/02/22-rdf-syntax-ns#"
   xmlns:svg="http://www.w3.org/2000/svg"
   xmlns="http://www.w3.org/2000/svg"
   xmlns:sodipodi="http://sodipodi.sourceforge.net/DTD/sodipodi-0.dtd"
   xmlns:inkscape="http://www.inkscape.org/namespaces/inkscape"
   width="210mm"
   height="297mm"
   viewBox="0 0 210 297"
   version="1.1"
   id="svg8"
   inkscape:version="0.92.3 (2405546, 2018-03-11)"
   sodipodi:docname="bezier-curve.svg">
  <sodipodi:namedview
     id="base"
     pagecolor="#ffffff"
     bordercolor="#666666"
     borderopacity="1.0"
     inkscape:pageopacity="0.0"
     inkscape:pageshadow="2"
     inkscape:zoom="2.8"
     inkscape:cx="371.55878"
     inkscape:cy="852.47588"
     inkscape:document-units="mm"
     inkscape:current-layer="layer1"
     showgrid="false"
     inkscape:window-width="2560"
     inkscape:window-height="1414"
     inkscape:window-x="1920"
     inkscape:window-y="0"
     inkscape:window-maximized="1" />
  <defs
     id="defs2" />
  <metadata
     id="metadata5">
    <rdf:RDF>
      <cc:Work
         rdf:about="">
        <dc:format>image/svg+xml</dc:format>
        <dc:type
           rdf:resource="http://purl.org/dc/dcmitype/StillImage" />
        <dc:title></dc:title>
      </cc:Work>
    </rdf:RDF>
  </metadata>
  <g
     inkscape:label="Layer 1"
     inkscape:groupmode="layer"
     id="layer1">
    <path
       style="fill:none;stroke:#000000;stroke-width:0.26458332px;stroke-linecap:butt;stroke-linejoin:miter;stroke-opacity:1"
       d="M 35.947752,81.447126 70.158249,31.868628 91.807082,104.29866 129.75935,63.139163"
       id="path815"
       inkscape:connector-curvature="0"
       sodipodi:nodetypes="cccc"
       inkscape:export-xdpi="400"
       inkscape:export-ydpi="400" />
    <path
       style="fill:none;stroke:#0000ff;stroke-width:0.36500001;stroke-linecap:butt;stroke-linejoin:miter;stroke-miterlimit:4;stroke-dasharray:none;stroke-opacity:1"
       d="M 45.435818,67.682744 75.102738,49.775686 100.12256,95.321725"
       id="path817"
       inkscape:connector-curvature="0"
       sodipodi:nodetypes="ccc"
       inkscape:export-xdpi="400"
       inkscape:export-ydpi="400" />
    <path
       style="fill:none;stroke:#00c000;stroke-width:0.26458332px;stroke-linecap:butt;stroke-linejoin:miter;stroke-opacity:1"
       d="m 54.901041,62.18229 27.875743,1.13393"
       id="path819"
       inkscape:connector-curvature="0"
       inkscape:export-xdpi="400"
       inkscape:export-ydpi="400" />
    <path
       style="fill:none;stroke:#eb7b00;stroke-width:0.665;stroke-linecap:butt;stroke-linejoin:miter;stroke-opacity:1;stroke-miterlimit:4;stroke-dasharray:none"
       d="m 35.947752,81.447126 c 0,0 20.559688,-31.360073 44.65567,-12.83924 24.095978,18.520833 49.155928,-5.468723 49.155928,-5.468723"
       id="path821"
       inkscape:connector-curvature="0"
       inkscape:export-xdpi="400"
       inkscape:export-ydpi="400" />
    <circle
       style="opacity:1;fill:#000500;fill-opacity:1;stroke:none;stroke-width:0.36500001;stroke-linecap:round;stroke-miterlimit:4;stroke-dasharray:none;stroke-dashoffset:0;stroke-opacity:1"
       id="path823"
       cx="36.073101"
       cy="81.340958"
       r="0.9921875"
       inkscape:export-xdpi="400"
       inkscape:export-ydpi="400" />
    <circle
       style="opacity:1;fill:#000500;fill-opacity:1;stroke:none;stroke-width:0.36500001;stroke-linecap:round;stroke-miterlimit:4;stroke-dasharray:none;stroke-dashoffset:0;stroke-opacity:1"
       id="path823-3"
       cx="70.02462"
       cy="31.83522"
       r="0.9921875"
       inkscape:export-xdpi="400"
       inkscape:export-ydpi="400" />
    <circle
       style="opacity:1;fill:#000500;fill-opacity:1;stroke:none;stroke-width:0.36500001;stroke-linecap:round;stroke-miterlimit:4;stroke-dasharray:none;stroke-dashoffset:0;stroke-opacity:1"
       id="path823-6"
       cx="91.793045"
       cy="104.31508"
       r="0.9921875"
       inkscape:export-xdpi="400"
       inkscape:export-ydpi="400" />
    <circle
       style="opacity:1;fill:#000500;fill-opacity:1;stroke:none;stroke-width:0.36500001;stroke-linecap:round;stroke-miterlimit:4;stroke-dasharray:none;stroke-dashoffset:0;stroke-opacity:1"
       id="path823-7"
       cx="129.59859"
       cy="63.457962"
       r="0.9921875"
       inkscape:export-xdpi="400"
       inkscape:export-ydpi="400" />
    <circle
       style="opacity:1;fill:#0005f8;fill-opacity:1;stroke:none;stroke-width:0.36500001;stroke-linecap:round;stroke-miterlimit:4;stroke-dasharray:none;stroke-dashoffset:0;stroke-opacity:1"
       id="path823-5"
       cx="45.404388"
       cy="67.426712"
       r="0.9921875"
       inkscape:export-xdpi="400"
       inkscape:export-ydpi="400" />
    <circle
       style="opacity:1;fill:#0005f8;fill-opacity:1;stroke:none;stroke-width:0.36500001;stroke-linecap:round;stroke-miterlimit:4;stroke-dasharray:none;stroke-dashoffset:0;stroke-opacity:1"
       id="path823-5-3"
       cx="75.217262"
       cy="49.756325"
       r="0.9921875"
       inkscape:export-xdpi="400"
       inkscape:export-ydpi="400" />
    <circle
       style="opacity:1;fill:#0005f8;fill-opacity:1;stroke:none;stroke-width:0.36500001;stroke-linecap:round;stroke-miterlimit:4;stroke-dasharray:none;stroke-dashoffset:0;stroke-opacity:1"
       id="path823-5-5"
       cx="100.07802"
       cy="95.337547"
       r="0.9921875"
       inkscape:export-xdpi="400"
       inkscape:export-ydpi="400" />
    <circle
       style="opacity:1;fill:#00c000;fill-opacity:1;stroke:none;stroke-width:0.36500001;stroke-linecap:round;stroke-miterlimit:4;stroke-dasharray:none;stroke-dashoffset:0;stroke-opacity:1"
       id="path823-5-6"
       cx="54.688431"
       cy="62.016926"
       r="0.9921875"
       inkscape:export-xdpi="400"
       inkscape:export-ydpi="400" />
    <circle
       style="opacity:1;fill:#00c000;fill-opacity:1;stroke:none;stroke-width:0.36500001;stroke-linecap:round;stroke-miterlimit:4;stroke-dasharray:none;stroke-dashoffset:0;stroke-opacity:1"
       id="path823-5-6-2"
       cx="82.836853"
       cy="63.322914"
       r="0.9921875"
       inkscape:export-xdpi="400"
       inkscape:export-ydpi="400" />
    <circle
       style="opacity:1;fill:#eb7b00;fill-opacity:1;stroke:none;stroke-width:0.36500001;stroke-linecap:round;stroke-miterlimit:4;stroke-dasharray:none;stroke-dashoffset:0;stroke-opacity:1"
       id="path823-5-6-9"
       cx="65.531151"
       cy="62.721558"
       r="0.9921875"
       inkscape:export-xdpi="400"
       inkscape:export-ydpi="400" />
    <g
       transform="matrix(0.425168,0,0,0.425168,-34.105041,26.427672)"
       ns1:version="0.11.0"
       ns1:texconverter="pdflatex"
       ns1:pdfconverter="pdf2svg"
       ns1:text="$\\mathbf{P}_0$"
       ns1:preamble="/home/karadalex/.config/inkscape/extensions/textext/default_packages.tex"
       ns1:scale="1.20519999408"
       ns1:alignment="middle center"
       ns1:jacobian_sqrt="0.425168"
       id="g932"
       inkscape:export-xdpi="400"
       inkscape:export-ydpi="400">
      <g
         id="surface1">
        <g
           style="fill:#000000;fill-opacity:1"
           id="g925">
          <path
             inkscape:connector-curvature="0"
             style="stroke:none;stroke-width:0"
             d="m 2.875,-3.015625 h 1.765625 c 1.390625,0 2.546875,-0.71875 2.546875,-1.875 0,-1.09375 -0.984375,-1.953125 -2.640625,-1.953125 H 0.390625 V -6.375 H 1.46875 v 5.90625 H 0.390625 V 0 c 0.375,-0.03125 1.359375,-0.03125 1.78125,-0.03125 0.4375,0 1.40625,0 1.78125,0.03125 V -0.46875 H 2.875 Z m 1.28125,-0.40625 H 2.828125 V -6.375 h 1.34375 c 1.484375,0 1.484375,0.765625 1.484375,1.484375 0,0.703125 0,1.46875 -1.5,1.46875 z m 0,0"
             transform="translate(148.712,134.765)"
             id="path923" />
        </g>
        <g
           style="fill:#000000;fill-opacity:1"
           id="g929">
          <path
             inkscape:connector-curvature="0"
             style="stroke:none;stroke-width:0"
             d="M 3.59375,-2.21875 C 3.59375,-2.984375 3.5,-3.546875 3.1875,-4.03125 2.96875,-4.34375 2.53125,-4.625 1.984375,-4.625 c -1.625,0 -1.625,1.90625 -1.625,2.40625 0,0.5 0,2.359375 1.625,2.359375 1.609375,0 1.609375,-1.859375 1.609375,-2.359375 z M 1.984375,-0.0625 c -0.328125,0 -0.75,-0.1875 -0.890625,-0.75 C 1,-1.21875 1,-1.796875 1,-2.3125 1,-2.828125 1,-3.359375 1.09375,-3.734375 1.25,-4.28125 1.6875,-4.4375 1.984375,-4.4375 c 0.375,0 0.734375,0.234375 0.859375,0.640625 0.109375,0.375 0.125,0.875 0.125,1.484375 0,0.515625 0,1.03125 -0.09375,1.46875 -0.140625,0.640625 -0.609375,0.78125 -0.890625,0.78125 z m 0,0"
             transform="translate(156.544,136.259)"
             id="path927" />
        </g>
      </g>
    </g>
    <g
       id="g1066"
       ns1:jacobian_sqrt="0.425168"
       ns1:alignment="middle center"
       ns1:scale="1.20520002243"
       ns1:preamble="/home/karadalex/.config/inkscape/extensions/textext/default_packages.tex"
       ns1:text="$\\mathbf{P}_3$"
       ns1:pdfconverter="pdf2svg"
       ns1:texconverter="pdflatex"
       ns1:version="0.11.0"
       transform="matrix(0.425168,0.000000,0.000000,0.425168,68.616816,6.865253)"
       inkscape:export-xdpi="400"
       inkscape:export-ydpi="400">
      <g
         id="g1064">
        <g
           id="g1058"
           style="fill:rgb(0%,0%,0%);fill-opacity:1;">
          <path
             id="path1056"
             transform="translate(148.712,134.765)"
             d="M 2.875 -3.015625 L 4.640625 -3.015625 C 6.03125 -3.015625 7.1875 -3.734375 7.1875 -4.890625 C 7.1875 -5.984375 6.203125 -6.84375 4.546875 -6.84375 L 0.390625 -6.84375 L 0.390625 -6.375 L 1.46875 -6.375 L 1.46875 -0.46875 L 0.390625 -0.46875 L 0.390625 0 C 0.765625 -0.03125 1.75 -0.03125 2.171875 -0.03125 C 2.609375 -0.03125 3.578125 -0.03125 3.953125 0 L 3.953125 -0.46875 L 2.875 -0.46875 Z M 4.15625 -3.421875 L 2.828125 -3.421875 L 2.828125 -6.375 L 4.171875 -6.375 C 5.65625 -6.375 5.65625 -5.609375 5.65625 -4.890625 C 5.65625 -4.1875 5.65625 -3.421875 4.15625 -3.421875 Z M 4.15625 -3.421875 "
             style="stroke:none;stroke-width:0" />
        </g>
        <g
           id="g1062"
           style="fill:rgb(0%,0%,0%);fill-opacity:1;">
          <path
             id="path1060"
             transform="translate(156.544,136.259)"
             d="M 1.90625 -2.328125 C 2.453125 -2.328125 2.84375 -1.953125 2.84375 -1.203125 C 2.84375 -0.34375 2.328125 -0.078125 1.9375 -0.078125 C 1.65625 -0.078125 1.03125 -0.15625 0.75 -0.578125 C 1.078125 -0.578125 1.15625 -0.8125 1.15625 -0.96875 C 1.15625 -1.1875 0.984375 -1.34375 0.765625 -1.34375 C 0.578125 -1.34375 0.375 -1.21875 0.375 -0.9375 C 0.375 -0.28125 1.09375 0.140625 1.9375 0.140625 C 2.90625 0.140625 3.578125 -0.515625 3.578125 -1.203125 C 3.578125 -1.75 3.140625 -2.296875 2.375 -2.453125 C 3.09375 -2.71875 3.359375 -3.234375 3.359375 -3.671875 C 3.359375 -4.21875 2.734375 -4.625 1.953125 -4.625 C 1.1875 -4.625 0.59375 -4.25 0.59375 -3.6875 C 0.59375 -3.453125 0.75 -3.328125 0.953125 -3.328125 C 1.171875 -3.328125 1.3125 -3.484375 1.3125 -3.671875 C 1.3125 -3.875 1.171875 -4.03125 0.953125 -4.046875 C 1.203125 -4.34375 1.671875 -4.421875 1.9375 -4.421875 C 2.25 -4.421875 2.6875 -4.265625 2.6875 -3.671875 C 2.6875 -3.375 2.59375 -3.046875 2.40625 -2.84375 C 2.1875 -2.578125 1.984375 -2.5625 1.640625 -2.53125 C 1.46875 -2.515625 1.453125 -2.515625 1.421875 -2.515625 C 1.40625 -2.515625 1.34375 -2.5 1.34375 -2.421875 C 1.34375 -2.328125 1.40625 -2.328125 1.53125 -2.328125 Z M 1.90625 -2.328125 "
             style="stroke:none;stroke-width:0" />
        </g>
      </g>
    </g>
    <g
       transform="matrix(0.425168,0,0,0.425168,20.533265,45.256067)"
       ns1:version="0.11.0"
       ns1:texconverter="pdflatex"
       ns1:pdfconverter="pdf2svg"
       ns1:text="$\\mathbf{P}_2$"
       ns1:preamble="/home/karadalex/.config/inkscape/extensions/textext/default_packages.tex"
       ns1:scale="1.20520002243"
       ns1:alignment="middle center"
       ns1:jacobian_sqrt="0.425168"
       id="g1156"
       inkscape:export-xdpi="400"
       inkscape:export-ydpi="400">
      <g
         id="g1154">
        <g
           style="fill:#000000;fill-opacity:1"
           id="g1148">
          <path
             style="stroke:none;stroke-width:0"
             d="m 2.875,-3.015625 h 1.765625 c 1.390625,0 2.546875,-0.71875 2.546875,-1.875 0,-1.09375 -0.984375,-1.953125 -2.640625,-1.953125 H 0.390625 V -6.375 H 1.46875 v 5.90625 H 0.390625 V 0 c 0.375,-0.03125 1.359375,-0.03125 1.78125,-0.03125 0.4375,0 1.40625,0 1.78125,0.03125 V -0.46875 H 2.875 Z m 1.28125,-0.40625 H 2.828125 V -6.375 h 1.34375 c 1.484375,0 1.484375,0.765625 1.484375,1.484375 0,0.703125 0,1.46875 -1.5,1.46875 z m 0,0"
             transform="translate(148.712,134.765)"
             id="path1146"
             inkscape:connector-curvature="0" />
        </g>
        <g
           style="fill:#000000;fill-opacity:1"
           id="g1152">
          <path
             style="stroke:none;stroke-width:0"
             d="M 3.515625,-1.265625 H 3.28125 c -0.015625,0.15625 -0.09375,0.5625 -0.1875,0.625 C 3.046875,-0.59375 2.515625,-0.59375 2.40625,-0.59375 H 1.125 c 0.734375,-0.640625 0.984375,-0.84375 1.390625,-1.171875 0.515625,-0.40625 1,-0.84375 1,-1.5 0,-0.84375 -0.734375,-1.359375 -1.625,-1.359375 -0.859375,0 -1.453125,0.609375 -1.453125,1.25 0,0.34375 0.296875,0.390625 0.375,0.390625 0.15625,0 0.359375,-0.125 0.359375,-0.375 0,-0.125 -0.046875,-0.375 -0.40625,-0.375 C 0.984375,-4.21875 1.453125,-4.375 1.78125,-4.375 c 0.703125,0 1.0625,0.546875 1.0625,1.109375 0,0.609375 -0.4375,1.078125 -0.65625,1.328125 L 0.515625,-0.265625 C 0.4375,-0.203125 0.4375,-0.1875 0.4375,0 h 2.875 z m 0,0"
             transform="translate(156.544,136.259)"
             id="path1150"
             inkscape:connector-curvature="0" />
        </g>
      </g>
    </g>
    <g
       id="g1246"
       ns1:jacobian_sqrt="0.425168"
       ns1:alignment="middle center"
       ns1:scale="1.20520002243"
       ns1:preamble="/home/karadalex/.config/inkscape/extensions/textext/default_packages.tex"
       ns1:text="$\\mathbf{P}_1$"
       ns1:pdfconverter="pdf2svg"
       ns1:texconverter="pdflatex"
       ns1:version="0.11.0"
       transform="matrix(0.425168,0.000000,0.000000,0.425168,6.887232,-28.434543)"
       inkscape:export-xdpi="400"
       inkscape:export-ydpi="400">
      <g
         id="g1244">
        <g
           id="g1238"
           style="fill:rgb(0%,0%,0%);fill-opacity:1;">
          <path
             id="path1236"
             transform="translate(148.712,134.765)"
             d="M 2.875 -3.015625 L 4.640625 -3.015625 C 6.03125 -3.015625 7.1875 -3.734375 7.1875 -4.890625 C 7.1875 -5.984375 6.203125 -6.84375 4.546875 -6.84375 L 0.390625 -6.84375 L 0.390625 -6.375 L 1.46875 -6.375 L 1.46875 -0.46875 L 0.390625 -0.46875 L 0.390625 0 C 0.765625 -0.03125 1.75 -0.03125 2.171875 -0.03125 C 2.609375 -0.03125 3.578125 -0.03125 3.953125 0 L 3.953125 -0.46875 L 2.875 -0.46875 Z M 4.15625 -3.421875 L 2.828125 -3.421875 L 2.828125 -6.375 L 4.171875 -6.375 C 5.65625 -6.375 5.65625 -5.609375 5.65625 -4.890625 C 5.65625 -4.1875 5.65625 -3.421875 4.15625 -3.421875 Z M 4.15625 -3.421875 "
             style="stroke:none;stroke-width:0" />
        </g>
        <g
           id="g1242"
           style="fill:rgb(0%,0%,0%);fill-opacity:1;">
          <path
             id="path1240"
             transform="translate(156.544,136.259)"
             d="M 2.328125 -4.4375 C 2.328125 -4.625 2.328125 -4.625 2.125 -4.625 C 1.671875 -4.1875 1.046875 -4.1875 0.765625 -4.1875 L 0.765625 -3.9375 C 0.921875 -3.9375 1.390625 -3.9375 1.765625 -4.125 L 1.765625 -0.578125 C 1.765625 -0.34375 1.765625 -0.25 1.078125 -0.25 L 0.8125 -0.25 L 0.8125 0 C 0.9375 0 1.796875 -0.03125 2.046875 -0.03125 C 2.265625 -0.03125 3.140625 0 3.296875 0 L 3.296875 -0.25 L 3.03125 -0.25 C 2.328125 -0.25 2.328125 -0.34375 2.328125 -0.578125 Z M 2.328125 -4.4375 "
             style="stroke:none;stroke-width:0" />
        </g>
      </g>
    </g>
    <g
       transform="matrix(0.425168,0,0,0.425168,-22.575938,7.7505829)"
       ns1:version="0.11.0"
       ns1:texconverter="pdflatex"
       ns1:pdfconverter="pdf2svg"
       ns1:text="$\\mathbf{L}_0$"
       ns1:preamble="/home/karadalex/.config/inkscape/extensions/textext/default_packages.tex"
       ns1:scale="1.20520002243"
       ns1:alignment="middle center"
       ns1:jacobian_sqrt="0.425168"
       style="fill:#0000ff;fill-opacity:1;stroke-opacity:1"
       id="g1358"
       inkscape:export-xdpi="400"
       inkscape:export-ydpi="400">
      <g
         id="g1356"
         style="fill:#0000ff;fill-opacity:1;stroke-opacity:1">
        <g
           style="fill:#0000ff;fill-opacity:1;stroke-opacity:1"
           id="g1350">
          <path
             inkscape:connector-curvature="0"
             style="fill:#0000ff;fill-opacity:1;stroke:none;stroke-width:0;stroke-opacity:1"
             d="M 6.40625,-2.734375 H 5.9375 c -0.078125,0.6875 -0.25,2.265625 -2.03125,2.265625 H 2.875 V -6.375 H 4.234375 V -6.84375 C 3.78125,-6.8125 2.703125,-6.8125 2.21875,-6.8125 c -0.4375,0 -1.453125,0 -1.828125,-0.03125 V -6.375 H 1.46875 v 5.90625 H 0.390625 V 0 H 6.09375 Z m 0,0"
             transform="translate(148.712,134.765)"
             id="path1348" />
        </g>
        <g
           style="fill:#0000ff;fill-opacity:1;stroke-opacity:1"
           id="g1354">
          <path
             inkscape:connector-curvature="0"
             style="fill:#0000ff;fill-opacity:1;stroke:none;stroke-width:0;stroke-opacity:1"
             d="M 3.59375,-2.21875 C 3.59375,-2.984375 3.5,-3.546875 3.1875,-4.03125 2.96875,-4.34375 2.53125,-4.625 1.984375,-4.625 c -1.625,0 -1.625,1.90625 -1.625,2.40625 0,0.5 0,2.359375 1.625,2.359375 1.609375,0 1.609375,-1.859375 1.609375,-2.359375 z M 1.984375,-0.0625 c -0.328125,0 -0.75,-0.1875 -0.890625,-0.75 C 1,-1.21875 1,-1.796875 1,-2.3125 1,-2.828125 1,-3.359375 1.09375,-3.734375 1.25,-4.28125 1.6875,-4.4375 1.984375,-4.4375 c 0.375,0 0.734375,0.234375 0.859375,0.640625 0.109375,0.375 0.125,0.875 0.125,1.484375 0,0.515625 0,1.03125 -0.09375,1.46875 -0.140625,0.640625 -0.609375,0.78125 -0.890625,0.78125 z m 0,0"
             transform="translate(155.603,136.259)"
             id="path1352" />
        </g>
      </g>
    </g>
    <g
       id="g1496"
       style="fill:#0000ff;stroke-opacity:1;fill-opacity:1"
       ns1:jacobian_sqrt="0.425168"
       ns1:alignment="middle center"
       ns1:scale="1.20520005078"
       ns1:preamble="/home/karadalex/.config/inkscape/extensions/textext/default_packages.tex"
       ns1:text="$\\mathbf{L}_1$"
       ns1:pdfconverter="pdf2svg"
       ns1:texconverter="pdflatex"
       ns1:version="0.11.0"
       transform="matrix(0.425168,0.000000,0.000000,0.425168,13.301289,-9.191137)"
       inkscape:export-xdpi="400"
       inkscape:export-ydpi="400">
      <g
         style="fill:#0000ff;stroke-opacity:1;fill-opacity:1"
         id="g1494">
        <g
           id="g1488"
           style="fill-opacity:1;stroke-opacity:1;fill:#0000ff">
          <path
             id="path1486"
             transform="translate(148.712,134.765)"
             d="M 6.40625 -2.734375 L 5.9375 -2.734375 C 5.859375 -2.046875 5.6875 -0.46875 3.90625 -0.46875 L 2.875 -0.46875 L 2.875 -6.375 L 4.234375 -6.375 L 4.234375 -6.84375 C 3.78125 -6.8125 2.703125 -6.8125 2.21875 -6.8125 C 1.78125 -6.8125 0.765625 -6.8125 0.390625 -6.84375 L 0.390625 -6.375 L 1.46875 -6.375 L 1.46875 -0.46875 L 0.390625 -0.46875 L 0.390625 0 L 6.09375 0 Z M 6.40625 -2.734375 "
             style="fill-opacity:1;stroke:none;stroke-width:0;stroke-opacity:1;fill:#0000ff" />
        </g>
        <g
           id="g1492"
           style="fill-opacity:1;stroke-opacity:1;fill:#0000ff">
          <path
             id="path1490"
             transform="translate(155.603,136.259)"
             d="M 2.328125 -4.4375 C 2.328125 -4.625 2.328125 -4.625 2.125 -4.625 C 1.671875 -4.1875 1.046875 -4.1875 0.765625 -4.1875 L 0.765625 -3.9375 C 0.921875 -3.9375 1.390625 -3.9375 1.765625 -4.125 L 1.765625 -0.578125 C 1.765625 -0.34375 1.765625 -0.25 1.078125 -0.25 L 0.8125 -0.25 L 0.8125 0 C 0.9375 0 1.796875 -0.03125 2.046875 -0.03125 C 2.265625 -0.03125 3.140625 0 3.296875 0 L 3.296875 -0.25 L 3.03125 -0.25 C 2.328125 -0.25 2.328125 -0.34375 2.328125 -0.578125 Z M 2.328125 -4.4375 "
             style="fill-opacity:1;stroke:none;stroke-width:0;stroke-opacity:1;fill:#0000ff" />
        </g>
      </g>
    </g>
    <g
       transform="matrix(0.425168,0,0,0.425168,38.75576,40.586352)"
       ns1:version="0.11.0"
       ns1:texconverter="pdflatex"
       ns1:pdfconverter="pdf2svg"
       ns1:text="$\\mathbf{L}_2$"
       ns1:preamble="/home/karadalex/.config/inkscape/extensions/textext/default_packages.tex"
       ns1:scale="1.20520005078"
       ns1:alignment="middle center"
       ns1:jacobian_sqrt="0.425168"
       style="fill:#0000ff;fill-opacity:1;stroke-opacity:1"
       id="g1632"
       inkscape:export-xdpi="400"
       inkscape:export-ydpi="400">
      <g
         id="g1630"
         style="fill:#0000ff;fill-opacity:1;stroke-opacity:1">
        <g
           style="fill:#0000ff;fill-opacity:1;stroke-opacity:1"
           id="g1624">
          <path
             style="fill:#0000ff;fill-opacity:1;stroke:none;stroke-width:0;stroke-opacity:1"
             d="M 6.40625,-2.734375 H 5.9375 c -0.078125,0.6875 -0.25,2.265625 -2.03125,2.265625 H 2.875 V -6.375 H 4.234375 V -6.84375 C 3.78125,-6.8125 2.703125,-6.8125 2.21875,-6.8125 c -0.4375,0 -1.453125,0 -1.828125,-0.03125 V -6.375 H 1.46875 v 5.90625 H 0.390625 V 0 H 6.09375 Z m 0,0"
             transform="translate(148.712,134.765)"
             id="path1622"
             inkscape:connector-curvature="0" />
        </g>
        <g
           style="fill:#0000ff;fill-opacity:1;stroke-opacity:1"
           id="g1628">
          <path
             style="fill:#0000ff;fill-opacity:1;stroke:none;stroke-width:0;stroke-opacity:1"
             d="M 3.515625,-1.265625 H 3.28125 c -0.015625,0.15625 -0.09375,0.5625 -0.1875,0.625 C 3.046875,-0.59375 2.515625,-0.59375 2.40625,-0.59375 H 1.125 c 0.734375,-0.640625 0.984375,-0.84375 1.390625,-1.171875 0.515625,-0.40625 1,-0.84375 1,-1.5 0,-0.84375 -0.734375,-1.359375 -1.625,-1.359375 -0.859375,0 -1.453125,0.609375 -1.453125,1.25 0,0.34375 0.296875,0.390625 0.375,0.390625 0.15625,0 0.359375,-0.125 0.359375,-0.375 0,-0.125 -0.046875,-0.375 -0.40625,-0.375 C 0.984375,-4.21875 1.453125,-4.375 1.78125,-4.375 c 0.703125,0 1.0625,0.546875 1.0625,1.109375 0,0.609375 -0.4375,1.078125 -0.65625,1.328125 L 0.515625,-0.265625 C 0.4375,-0.203125 0.4375,-0.1875 0.4375,0 h 2.875 z m 0,0"
             transform="translate(155.603,136.259)"
             id="path1626"
             inkscape:connector-curvature="0" />
        </g>
      </g>
    </g>
    <g
       id="g1780"
       style="fill:#00c000;stroke-opacity:1;fill-opacity:1"
       ns1:jacobian_sqrt="0.425168"
       ns1:alignment="middle center"
       ns1:scale="1.20520005078"
       ns1:preamble="/home/karadalex/.config/inkscape/extensions/textext/default_packages.tex"
       ns1:text="$\\mathbf{Q}_0$"
       ns1:pdfconverter="pdf2svg"
       ns1:texconverter="pdflatex"
       ns1:version="0.11.0"
       transform="matrix(0.425168,0.000000,0.000000,0.425168,-9.296314,0.894075)"
       inkscape:export-xdpi="400"
       inkscape:export-ydpi="400">
      <g
         style="fill:#00c000;stroke-opacity:1;fill-opacity:1"
         id="g1778">
        <g
           id="g1772"
           style="fill-opacity:1;stroke-opacity:1;fill:#00c000">
          <path
             id="path1770"
             transform="translate(148.712,134.765)"
             d="M 5.90625 -0.171875 C 7.53125 -0.8125 7.96875 -2.296875 7.96875 -3.375 C 7.96875 -5.53125 6.515625 -6.953125 4.3125 -6.953125 C 2.03125 -6.953125 0.640625 -5.46875 0.640625 -3.375 C 0.640625 -1.34375 2 0.109375 4.3125 0.109375 C 4.53125 0.109375 4.859375 0.09375 5.25 0.015625 C 5.53125 1.140625 5.734375 1.9375 6.65625 1.9375 C 7.671875 1.9375 8.03125 0.75 8.03125 0.078125 C 8.03125 0 8.03125 -0.171875 7.84375 -0.171875 C 7.703125 -0.171875 7.671875 -0.046875 7.671875 0.015625 C 7.609375 0.40625 6.984375 0.40625 6.8125 0.40625 C 6.59375 0.40625 6.296875 0.40625 5.90625 -0.171875 Z M 3.359375 -0.515625 C 2.140625 -1.09375 2.109375 -2.609375 2.109375 -3.390625 C 2.109375 -3.78125 2.109375 -4.734375 2.46875 -5.4375 C 2.984375 -6.40625 3.84375 -6.546875 4.296875 -6.546875 C 4.828125 -6.546875 5.609375 -6.34375 6.09375 -5.5 C 6.46875 -4.828125 6.5 -3.984375 6.5 -3.390625 C 6.5 -2.828125 6.5 -1.34375 5.546875 -0.6875 C 5.328125 -1.015625 4.96875 -1.546875 4.296875 -1.546875 C 3.78125 -1.546875 3.328125 -1.203125 3.328125 -0.734375 C 3.328125 -0.671875 3.34375 -0.5625 3.359375 -0.515625 Z M 5.125 -0.453125 C 4.875 -0.34375 4.578125 -0.296875 4.3125 -0.296875 C 3.765625 -0.296875 3.6875 -0.609375 3.6875 -0.734375 C 3.6875 -1 3.984375 -1.1875 4.3125 -1.1875 C 4.578125 -1.1875 4.921875 -1.078125 5.125 -0.453125 Z M 5.125 -0.453125 "
             style="fill-opacity:1;stroke:none;stroke-width:0;stroke-opacity:1;fill:#00c000" />
        </g>
        <g
           id="g1776"
           style="fill-opacity:1;stroke-opacity:1;fill:#00c000">
          <path
             id="path1774"
             transform="translate(157.319,136.259)"
             d="M 3.59375 -2.21875 C 3.59375 -2.984375 3.5 -3.546875 3.1875 -4.03125 C 2.96875 -4.34375 2.53125 -4.625 1.984375 -4.625 C 0.359375 -4.625 0.359375 -2.71875 0.359375 -2.21875 C 0.359375 -1.71875 0.359375 0.140625 1.984375 0.140625 C 3.59375 0.140625 3.59375 -1.71875 3.59375 -2.21875 Z M 1.984375 -0.0625 C 1.65625 -0.0625 1.234375 -0.25 1.09375 -0.8125 C 1 -1.21875 1 -1.796875 1 -2.3125 C 1 -2.828125 1 -3.359375 1.09375 -3.734375 C 1.25 -4.28125 1.6875 -4.4375 1.984375 -4.4375 C 2.359375 -4.4375 2.71875 -4.203125 2.84375 -3.796875 C 2.953125 -3.421875 2.96875 -2.921875 2.96875 -2.3125 C 2.96875 -1.796875 2.96875 -1.28125 2.875 -0.84375 C 2.734375 -0.203125 2.265625 -0.0625 1.984375 -0.0625 Z M 1.984375 -0.0625 "
             style="fill-opacity:1;stroke:none;stroke-width:0;stroke-opacity:1;fill:#00c000" />
        </g>
      </g>
    </g>
    <g
       transform="matrix(0.425168,0.000000,0.000000,0.425168,21.770061,6.105831)"
       ns1:version="0.11.0"
       ns1:texconverter="pdflatex"
       ns1:pdfconverter="pdf2svg"
       ns1:text="$\\mathbf{Q}_1$"
       ns1:preamble="/home/karadalex/.config/inkscape/extensions/textext/default_packages.tex"
       ns1:scale="1.20520007913"
       ns1:alignment="middle center"
       ns1:jacobian_sqrt="0.425168"
       style="fill:#00c000;stroke-opacity:1;fill-opacity:1"
       id="g1954"
       inkscape:export-xdpi="400"
       inkscape:export-ydpi="400">
      <g
         id="g1952"
         style="fill:#00c000;stroke-opacity:1;fill-opacity:1">
        <g
           style="fill-opacity:1;stroke-opacity:1;fill:#00c000"
           id="g1946">
          <path
             style="fill-opacity:1;stroke:none;stroke-width:0;stroke-opacity:1;fill:#00c000"
             d="M 5.90625 -0.171875 C 7.53125 -0.8125 7.96875 -2.296875 7.96875 -3.375 C 7.96875 -5.53125 6.515625 -6.953125 4.3125 -6.953125 C 2.03125 -6.953125 0.640625 -5.46875 0.640625 -3.375 C 0.640625 -1.34375 2 0.109375 4.3125 0.109375 C 4.53125 0.109375 4.859375 0.09375 5.25 0.015625 C 5.53125 1.140625 5.734375 1.9375 6.65625 1.9375 C 7.671875 1.9375 8.03125 0.75 8.03125 0.078125 C 8.03125 0 8.03125 -0.171875 7.84375 -0.171875 C 7.703125 -0.171875 7.671875 -0.046875 7.671875 0.015625 C 7.609375 0.40625 6.984375 0.40625 6.8125 0.40625 C 6.59375 0.40625 6.296875 0.40625 5.90625 -0.171875 Z M 3.359375 -0.515625 C 2.140625 -1.09375 2.109375 -2.609375 2.109375 -3.390625 C 2.109375 -3.78125 2.109375 -4.734375 2.46875 -5.4375 C 2.984375 -6.40625 3.84375 -6.546875 4.296875 -6.546875 C 4.828125 -6.546875 5.609375 -6.34375 6.09375 -5.5 C 6.46875 -4.828125 6.5 -3.984375 6.5 -3.390625 C 6.5 -2.828125 6.5 -1.34375 5.546875 -0.6875 C 5.328125 -1.015625 4.96875 -1.546875 4.296875 -1.546875 C 3.78125 -1.546875 3.328125 -1.203125 3.328125 -0.734375 C 3.328125 -0.671875 3.34375 -0.5625 3.359375 -0.515625 Z M 5.125 -0.453125 C 4.875 -0.34375 4.578125 -0.296875 4.3125 -0.296875 C 3.765625 -0.296875 3.6875 -0.609375 3.6875 -0.734375 C 3.6875 -1 3.984375 -1.1875 4.3125 -1.1875 C 4.578125 -1.1875 4.921875 -1.078125 5.125 -0.453125 Z M 5.125 -0.453125 "
             transform="translate(148.712,134.765)"
             id="path1944" />
        </g>
        <g
           style="fill-opacity:1;stroke-opacity:1;fill:#00c000"
           id="g1950">
          <path
             style="fill-opacity:1;stroke:none;stroke-width:0;stroke-opacity:1;fill:#00c000"
             d="M 2.328125 -4.4375 C 2.328125 -4.625 2.328125 -4.625 2.125 -4.625 C 1.671875 -4.1875 1.046875 -4.1875 0.765625 -4.1875 L 0.765625 -3.9375 C 0.921875 -3.9375 1.390625 -3.9375 1.765625 -4.125 L 1.765625 -0.578125 C 1.765625 -0.34375 1.765625 -0.25 1.078125 -0.25 L 0.8125 -0.25 L 0.8125 0 C 0.9375 0 1.796875 -0.03125 2.046875 -0.03125 C 2.265625 -0.03125 3.140625 0 3.296875 0 L 3.296875 -0.25 L 3.03125 -0.25 C 2.328125 -0.25 2.328125 -0.34375 2.328125 -0.578125 Z M 2.328125 -4.4375 "
             transform="translate(157.319,136.259)"
             id="path1948" />
        </g>
      </g>
    </g>
    <g
       id="g2126"
       style="fill:#eb7b00;fill-opacity:1;stroke-opacity:1"
       ns1:jacobian_sqrt="0.425168"
       ns1:alignment="middle center"
       ns1:scale="1.20520007913"
       ns1:preamble="/home/karadalex/.config/inkscape/extensions/textext/default_packages.tex"
       ns1:text="$\\mathbf{C}_0$"
       ns1:pdfconverter="pdf2svg"
       ns1:texconverter="pdflatex"
       ns1:version="0.11.0"
       transform="matrix(0.425168,0,0,0.425168,0.19551435,10.379712)"
       inkscape:export-xdpi="400"
       inkscape:export-ydpi="400">
      <g
         style="fill:#eb7b00;fill-opacity:1;stroke-opacity:1"
         id="g2124">
        <g
           id="g2118"
           style="fill:#eb7b00;fill-opacity:1;stroke-opacity:1">
          <path
             id="path2116"
             transform="translate(148.712,134.765)"
             d="m 7.640625,-6.671875 c 0,-0.1875 0,-0.28125 -0.1875,-0.28125 -0.09375,0 -0.109375,0.03125 -0.1875,0.09375 l -0.65625,0.59375 c -0.625,-0.5 -1.28125,-0.6875 -1.96875,-0.6875 -2.484375,0 -4,1.484375 -4,3.53125 0,2.046875 1.515625,3.53125 4,3.53125 1.875,0 3,-1.21875 3,-2.375 0,-0.203125 -0.078125,-0.203125 -0.25,-0.203125 -0.125,0 -0.21875,0 -0.21875,0.171875 -0.078125,1.328125 -1.28125,1.9375 -2.28125,1.9375 -0.78125,0 -1.625,-0.234375 -2.140625,-0.84375 -0.46875,-0.578125 -0.59375,-1.3125 -0.59375,-2.21875 0,-0.5625 0.03125,-1.625 0.671875,-2.296875 0.640625,-0.65625 1.515625,-0.765625 2.03125,-0.765625 1.078125,0 2.015625,0.765625 2.234375,2.03125 C 7.125,-4.265625 7.140625,-4.25 7.359375,-4.25 c 0.265625,0 0.28125,-0.015625 0.28125,-0.28125 z m 0,0"
             style="fill:#eb7b00;fill-opacity:1;stroke:none;stroke-width:0;stroke-opacity:1"
             inkscape:connector-curvature="0" />
        </g>
        <g
           id="g2122"
           style="fill:#eb7b00;fill-opacity:1;stroke-opacity:1">
          <path
             id="path2120"
             transform="translate(156.987,136.259)"
             d="M 3.59375,-2.21875 C 3.59375,-2.984375 3.5,-3.546875 3.1875,-4.03125 2.96875,-4.34375 2.53125,-4.625 1.984375,-4.625 c -1.625,0 -1.625,1.90625 -1.625,2.40625 0,0.5 0,2.359375 1.625,2.359375 1.609375,0 1.609375,-1.859375 1.609375,-2.359375 z M 1.984375,-0.0625 c -0.328125,0 -0.75,-0.1875 -0.890625,-0.75 C 1,-1.21875 1,-1.796875 1,-2.3125 1,-2.828125 1,-3.359375 1.09375,-3.734375 1.25,-4.28125 1.6875,-4.4375 1.984375,-4.4375 c 0.375,0 0.734375,0.234375 0.859375,0.640625 0.109375,0.375 0.125,0.875 0.125,1.484375 0,0.515625 0,1.03125 -0.09375,1.46875 -0.140625,0.640625 -0.609375,0.78125 -0.890625,0.78125 z m 0,0"
             style="fill:#eb7b00;fill-opacity:1;stroke:none;stroke-width:0;stroke-opacity:1"
             inkscape:connector-curvature="0" />
        </g>
      </g>
    </g>
  </g>
</svg>
