<?xml version="1.0" encoding="UTF-8" standalone="no"?>
<!-- Created with Inkscape (http://www.inkscape.org/) -->

<svg
   xmlns:ns1="http://www.iki.fi/pav/software/textext/"
   xmlns:dc="http://purl.org/dc/elements/1.1/"
   xmlns:cc="http://creativecommons.org/ns#"
   xmlns:rdf="http://www.w3.org/1999/02/22-rdf-syntax-ns#"
   xmlns:svg="http://www.w3.org/2000/svg"
   xmlns="http://www.w3.org/2000/svg"
   xmlns:sodipodi="http://sodipodi.sourceforge.net/DTD/sodipodi-0.dtd"
   xmlns:inkscape="http://www.inkscape.org/namespaces/inkscape"
   sodipodi:docname="grasper-rrr-side.svg"
   inkscape:version="0.92.3 (2405546, 2018-03-11)"
   id="svg8"
   version="1.1"
   viewBox="0 0 210 297"
   height="297mm"
   width="210mm">
  <sodipodi:namedview
     inkscape:window-maximized="1"
     inkscape:window-y="28"
     inkscape:window-x="1920"
     inkscape:window-height="1386"
     inkscape:window-width="2560"
     showgrid="false"
     inkscape:current-layer="layer1"
     inkscape:document-units="mm"
     inkscape:cy="886.97825"
     inkscape:cx="397.5972"
     inkscape:zoom="2.8"
     inkscape:pageshadow="2"
     inkscape:pageopacity="0.0"
     borderopacity="1.0"
     bordercolor="#666666"
     pagecolor="#ffffff"
     id="base" />
  <defs
     id="defs2">
    <marker
       inkscape:isstock="true"
       style="overflow:visible;"
       id="marker2421"
       refX="0.0"
       refY="0.0"
       orient="auto"
       inkscape:stockid="Arrow1Mend">
      <path
         transform="scale(0.4) rotate(180) translate(10,0)"
         style="fill-rule:evenodd;stroke:#fe7800;stroke-width:1pt;stroke-opacity:1;fill:#fe7800;fill-opacity:1"
         d="M 0.0,0.0 L 5.0,-5.0 L -12.5,0.0 L 5.0,5.0 L 0.0,0.0 z "
         id="path2419" />
    </marker>
    <marker
       inkscape:stockid="Arrow1Mend"
       orient="auto"
       refY="0.0"
       refX="0.0"
       id="Arrow1Mend"
       style="overflow:visible;"
       inkscape:isstock="true"
       inkscape:collect="always">
      <path
         id="path832"
         d="M 0.0,0.0 L 5.0,-5.0 L -12.5,0.0 L 5.0,5.0 L 0.0,0.0 z "
         style="fill-rule:evenodd;stroke:#ff0000;stroke-width:1pt;stroke-opacity:1;fill:#ff0000;fill-opacity:1"
         transform="scale(0.4) rotate(180) translate(10,0)" />
    </marker>
    <marker
       inkscape:stockid="Arrow1Mend"
       orient="auto"
       refY="0"
       refX="0"
       id="Arrow1Mend-6"
       style="overflow:visible"
       inkscape:isstock="true">
      <path
         inkscape:connector-curvature="0"
         id="path832-7"
         d="M 0,0 5,-5 -12.5,0 5,5 Z"
         style="fill:#00ff00;fill-opacity:1;fill-rule:evenodd;stroke:#00ff00;stroke-width:1.00000003pt;stroke-opacity:1"
         transform="matrix(-0.4,0,0,-0.4,-4,0)" />
    </marker>
    <marker
       inkscape:stockid="Arrow1Mend"
       orient="auto"
       refY="0"
       refX="0"
       id="Arrow1Mend-6-5"
       style="overflow:visible"
       inkscape:isstock="true">
      <path
         inkscape:connector-curvature="0"
         id="path832-7-6"
         d="M 0,0 5,-5 -12.5,0 5,5 Z"
         style="fill:#000000;fill-opacity:1;fill-rule:evenodd;stroke:#000000;stroke-width:1.00000003pt;stroke-opacity:1"
         transform="matrix(-0.4,0,0,-0.4,-4,0)" />
    </marker>
    <marker
       inkscape:stockid="Arrow1Mend"
       orient="auto"
       refY="0"
       refX="0"
       id="Arrow1Mend-1"
       style="overflow:visible"
       inkscape:isstock="true"
       inkscape:collect="always">
      <path
         id="path832-2"
         d="M 0,0 5,-5 -12.5,0 5,5 Z"
         style="fill:#0000ff;fill-opacity:1;fill-rule:evenodd;stroke:#0000ff;stroke-width:1.00000003pt;stroke-opacity:1"
         transform="matrix(-0.4,0,0,-0.4,-4,0)"
         inkscape:connector-curvature="0" />
    </marker>
  </defs>
  <metadata
     id="metadata5">
    <rdf:RDF>
      <cc:Work
         rdf:about="">
        <dc:format>image/svg+xml</dc:format>
        <dc:type
           rdf:resource="http://purl.org/dc/dcmitype/StillImage" />
        <dc:title />
      </cc:Work>
    </rdf:RDF>
  </metadata>
  <g
     inkscape:label="Layer 1"
     inkscape:groupmode="layer"
     id="layer1">
    <path
       inkscape:export-ydpi="400"
       inkscape:export-xdpi="400"
       style="fill:none;stroke:#fe7800;stroke-width:0.58682978;stroke-linecap:butt;stroke-linejoin:miter;stroke-miterlimit:4;stroke-dasharray:none;stroke-opacity:1"
       d="M 62.300696,79.238184 113.51357,53.686972"
       id="path1109"
       inkscape:connector-curvature="0" />
    <circle
       inkscape:export-ydpi="400"
       inkscape:export-xdpi="400"
       style="opacity:1;fill:#fe7800;fill-opacity:1;stroke:#fe7800;stroke-width:1;stroke-linecap:round;stroke-linejoin:round;stroke-miterlimit:4;stroke-dasharray:none;stroke-dashoffset:0;stroke-opacity:1;paint-order:fill markers stroke"
       id="path1155"
       cx="62.691406"
       cy="78.991585"
       r="2.0212257" />
    <path
       inkscape:export-ydpi="400"
       inkscape:export-xdpi="400"
       style="fill:none;stroke:#ff0000;stroke-width:0.465;stroke-linecap:butt;stroke-linejoin:miter;stroke-miterlimit:4;stroke-dasharray:none;stroke-opacity:1;marker-end:url(#Arrow1Mend)"
       d="M 62.407434,79.024249 81.454548,98.071363"
       id="path1157"
       inkscape:connector-curvature="0" />
    <path
       inkscape:export-ydpi="400"
       inkscape:export-xdpi="400"
       style="fill:none;stroke:#00ff00;stroke-width:0.465;stroke-linecap:butt;stroke-linejoin:miter;stroke-miterlimit:4;stroke-dasharray:none;stroke-opacity:1;marker-end:url(#Arrow1Mend-6)"
       d="M 62.335604,79.168219 88.354446,72.196492"
       id="path1157-5"
       inkscape:connector-curvature="0" />
    <g
       inkscape:export-ydpi="400"
       inkscape:export-xdpi="400"
       style="fill:#00ff00;fill-opacity:1"
       transform="matrix(0.916547,0,0,0.916547,-45.238238,-51.378563)"
       ns1:version="0.11.0"
       ns1:texconverter="pdflatex"
       ns1:pdfconverter="pdf2svg"
       ns1:text="$y$"
       ns1:preamble="/home/karadalex/.config/inkscape/extensions/textext/default_packages.tex"
       ns1:scale="2.59808470952"
       ns1:alignment="middle center"
       ns1:jacobian_sqrt="0.916547"
       id="g1723">
      <g
         style="fill:#00ff00;fill-opacity:1"
         id="surface1">
        <g
           style="fill:#00ff00;fill-opacity:1"
           id="g1720">
          <path
             inkscape:connector-curvature="0"
             style="fill:#00ff00;fill-opacity:1;stroke:none;stroke-width:0"
             d="m 4.84375,-3.796875 c 0.046875,-0.140625 0.046875,-0.15625 0.046875,-0.234375 0,-0.171875 -0.140625,-0.265625 -0.296875,-0.265625 -0.09375,0 -0.25,0.0625 -0.34375,0.203125 -0.015625,0.0625 -0.109375,0.359375 -0.140625,0.546875 -0.078125,0.25 -0.140625,0.53125 -0.203125,0.796875 l -0.453125,1.796875 c -0.03125,0.140625 -0.46875,0.84375 -1.125,0.84375 -0.5,0 -0.609375,-0.4375 -0.609375,-0.8125 C 1.71875,-1.375 1.890625,-2 2.21875,-2.875 2.375,-3.28125 2.421875,-3.390625 2.421875,-3.59375 c 0,-0.4375 -0.3125,-0.8125 -0.8125,-0.8125 -0.953125,0 -1.3125,1.453125 -1.3125,1.53125 0,0.109375 0.09375,0.109375 0.109375,0.109375 0.109375,0 0.109375,-0.03125 0.15625,-0.1875 0.28125,-0.9375 0.671875,-1.234375 1.015625,-1.234375 0.078125,0 0.25,0 0.25,0.3125 0,0.25 -0.109375,0.515625 -0.171875,0.703125 -0.40625,1.0625 -0.578125,1.625 -0.578125,2.09375 0,0.890625 0.625,1.1875 1.21875,1.1875 0.390625,0 0.71875,-0.171875 1,-0.453125 -0.125,0.515625 -0.25,1.015625 -0.640625,1.546875 -0.265625,0.328125 -0.640625,0.625 -1.09375,0.625 -0.140625,0 -0.59375,-0.03125 -0.765625,-0.421875 0.15625,0 0.296875,0 0.421875,-0.125 C 1.328125,1.203125 1.421875,1.0625 1.421875,0.875 1.421875,0.5625 1.15625,0.53125 1.0625,0.53125 0.828125,0.53125 0.5,0.6875 0.5,1.171875 c 0,0.5 0.4375,0.875 1.0625,0.875 1.015625,0 2.046875,-0.90625 2.328125,-2.03125 z m 0,0"
             transform="translate(148.712,134.765)"
             id="path1718" />
        </g>
      </g>
    </g>
    <g
       inkscape:export-ydpi="400"
       inkscape:export-xdpi="400"
       id="g1833"
       style="fill:#ff0000;fill-opacity:1"
       ns1:jacobian_sqrt="0.916547"
       ns1:alignment="middle center"
       ns1:scale="2.59808468117"
       ns1:preamble="/home/karadalex/.config/inkscape/extensions/textext/default_packages.tex"
       ns1:text="$x$"
       ns1:pdfconverter="pdf2svg"
       ns1:texconverter="pdflatex"
       ns1:version="0.11.0"
       transform="matrix(0.916547,0,0,0.916547,-62.045933,-20.387561)">
      <g
         style="fill:#ff0000;fill-opacity:1"
         id="g1831">
        <g
           id="g1829"
           style="fill:#ff0000;fill-opacity:1">
          <path
             id="path1827"
             transform="translate(148.712,134.765)"
             d="M 3.328125,-3.015625 C 3.390625,-3.265625 3.625,-4.1875 4.3125,-4.1875 c 0.046875,0 0.296875,0 0.5,0.125 C 4.53125,-4 4.34375,-3.765625 4.34375,-3.515625 c 0,0.15625 0.109375,0.34375 0.375,0.34375 0.21875,0 0.53125,-0.171875 0.53125,-0.578125 0,-0.515625 -0.578125,-0.65625 -0.921875,-0.65625 -0.578125,0 -0.921875,0.53125 -1.046875,0.75 -0.25,-0.65625 -0.78125,-0.75 -1.078125,-0.75 -1.03125,0 -1.609375,1.28125 -1.609375,1.53125 0,0.109375 0.109375,0.109375 0.125,0.109375 0.078125,0 0.109375,-0.03125 0.125,-0.109375 0.34375,-1.0625 1,-1.3125 1.34375,-1.3125 0.1875,0 0.53125,0.09375 0.53125,0.671875 0,0.3125 -0.171875,0.96875 -0.53125,2.375 -0.15625,0.609375 -0.515625,1.03125 -0.953125,1.03125 -0.0625,0 -0.28125,0 -0.5,-0.125 0.25,-0.0625 0.46875,-0.265625 0.46875,-0.546875 0,-0.265625 -0.21875,-0.34375 -0.359375,-0.34375 -0.3125,0 -0.546875,0.25 -0.546875,0.578125 0,0.453125 0.484375,0.65625 0.921875,0.65625 0.671875,0 1.03125,-0.703125 1.046875,-0.75 0.125,0.359375 0.484375,0.75 1.078125,0.75 1.03125,0 1.59375,-1.28125 1.59375,-1.53125 0,-0.109375 -0.078125,-0.109375 -0.109375,-0.109375 -0.09375,0 -0.109375,0.046875 -0.140625,0.109375 -0.328125,1.078125 -1,1.3125 -1.3125,1.3125 -0.390625,0 -0.546875,-0.3125 -0.546875,-0.65625 0,-0.21875 0.046875,-0.4375 0.15625,-0.875 z m 0,0"
             style="fill:#ff0000;fill-opacity:1;stroke:none;stroke-width:0"
             inkscape:connector-curvature="0" />
        </g>
      </g>
    </g>
    <g
       inkscape:export-ydpi="400"
       inkscape:export-xdpi="400"
       transform="matrix(0.916547,0,0,0.916547,-82.09089,-67.108152)"
       ns1:version="0.11.0"
       ns1:texconverter="pdflatex"
       ns1:pdfconverter="pdf2svg"
       ns1:text="$z$"
       ns1:preamble="/home/karadalex/.config/inkscape/extensions/textext/default_packages.tex"
       ns1:scale="2.59808468117"
       ns1:alignment="middle center"
       ns1:jacobian_sqrt="0.916547"
       style="fill:#0000ff;fill-opacity:1"
       id="g1903">
      <g
         id="g1901"
         style="fill:#0000ff;fill-opacity:1">
        <g
           style="fill:#0000ff;fill-opacity:1"
           id="g1899">
          <path
             inkscape:connector-curvature="0"
             style="fill:#0000ff;fill-opacity:1;stroke:none;stroke-width:0"
             d="m 1.328125,-0.828125 c 0.53125,-0.578125 0.828125,-0.828125 1.1875,-1.140625 0,0 0.609375,-0.53125 0.96875,-0.890625 C 4.4375,-3.78125 4.65625,-4.265625 4.65625,-4.3125 c 0,-0.09375 -0.09375,-0.09375 -0.109375,-0.09375 -0.078125,0 -0.09375,0.015625 -0.15625,0.109375 -0.296875,0.484375 -0.5,0.640625 -0.734375,0.640625 -0.25,0 -0.359375,-0.15625 -0.515625,-0.328125 -0.1875,-0.21875 -0.359375,-0.421875 -0.6875,-0.421875 -0.75,0 -1.203125,0.921875 -1.203125,1.140625 0,0.046875 0.03125,0.109375 0.109375,0.109375 0.09375,0 0.109375,-0.046875 0.140625,-0.109375 0.1875,-0.46875 0.765625,-0.46875 0.84375,-0.46875 0.203125,0 0.390625,0.0625 0.625,0.140625 0.40625,0.15625 0.515625,0.15625 0.765625,0.15625 -0.359375,0.421875 -1.1875,1.140625 -1.375,1.296875 l -0.90625,0.84375 C 0.78125,-0.625 0.421875,-0.0625 0.421875,0.015625 c 0,0.09375 0.109375,0.09375 0.125,0.09375 0.078125,0 0.09375,-0.015625 0.15625,-0.125 0.234375,-0.359375 0.53125,-0.625 0.859375,-0.625 0.21875,0 0.328125,0.09375 0.578125,0.375 0.15625,0.21875 0.34375,0.375 0.625,0.375 1,0 1.578125,-1.265625 1.578125,-1.53125 0,-0.046875 -0.046875,-0.109375 -0.125,-0.109375 -0.09375,0 -0.109375,0.0625 -0.140625,0.140625 C 3.84375,-0.75 3.203125,-0.5625 2.875,-0.5625 c -0.1875,0 -0.375,-0.0625 -0.578125,-0.125 -0.34375,-0.125 -0.5,-0.171875 -0.703125,-0.171875 -0.015625,0 -0.171875,0 -0.265625,0.03125 z m 0,0"
             transform="translate(148.712,134.765)"
             id="path1897" />
        </g>
      </g>
    </g>
    <g
       inkscape:export-ydpi="400"
       inkscape:export-xdpi="400"
       id="g2638"
       style="fill:#fe7800;fill-opacity:1"
       ns1:jacobian_sqrt="0.916547"
       inkscapeversion="0.92.3"
       ns1:alignment="middle center"
       ns1:scale="2.59808456777"
       ns1:preamble="/home/karadalex/.config/inkscape/extensions/textext/default_packages.tex"
       ns1:text="$\\mathbf{p}$"
       ns1:pdfconverter="pdf2svg"
       ns1:texconverter="pdflatex"
       ns1:version="0.11.0"
       transform="matrix(0.916547,0,0,0.916547,-11.709868,-107.69896)">
      <g
         style="fill:#fe7800;fill-opacity:1"
         id="g2636">
        <g
           id="g2634"
           style="fill:#fe7800;fill-opacity:1">
          <path
             id="path2632"
             transform="translate(148.712,134.765)"
             d="m 2.1875,-3.28125 c 0,-0.1875 0.015625,-0.203125 0.15625,-0.34375 0.390625,-0.40625 0.921875,-0.46875 1.140625,-0.46875 0.65625,0 1.21875,0.609375 1.21875,1.875 0,1.40625 -0.703125,1.921875 -1.34375,1.921875 -0.140625,0 -0.609375,0 -1.0625,-0.546875 C 2.1875,-0.96875 2.1875,-0.984375 2.1875,-1.171875 Z m 0,2.890625 c 0.4375,0.34375 0.875,0.453125 1.28125,0.453125 1.5,0 2.515625,-0.90625 2.515625,-2.28125 0,-1.328125 -0.90625,-2.265625 -2.34375,-2.265625 -0.75,0 -1.28125,0.3125 -1.5,0.484375 V -4.484375 L 0.375,-4.40625 v 0.46875 c 0.609375,0 0.6875,0 0.6875,0.375 V 1.46875 H 0.375 V 1.9375 C 0.640625,1.921875 1.25,1.90625 1.625,1.90625 c 0.390625,0 0.984375,0.015625 1.25,0.03125 V 1.46875 H 2.1875 Z m 0,0"
             style="fill:#fe7800;fill-opacity:1;stroke:none;stroke-width:0"
             inkscape:connector-curvature="0" />
        </g>
      </g>
    </g>
    <path
       inkscape:export-ydpi="400"
       inkscape:export-xdpi="400"
       style="fill:none;stroke:#fe7800;stroke-width:0.77600002;stroke-linecap:butt;stroke-linejoin:miter;stroke-miterlimit:4;stroke-dasharray:none;stroke-opacity:1"
       d="M 113.51357,53.686972 128.15991,20.034375"
       id="path1109-3"
       inkscape:connector-curvature="0" />
    <circle
       inkscape:export-ydpi="400"
       inkscape:export-xdpi="400"
       style="opacity:1;fill:#000000;fill-opacity:1;stroke:#000000;stroke-width:1.06500006;stroke-linecap:round;stroke-linejoin:round;stroke-miterlimit:4;stroke-dasharray:none;stroke-dashoffset:0;stroke-opacity:1;paint-order:fill markers stroke"
       id="path1111-3"
       cx="113.55375"
       cy="53.658802"
       r="0.86862594" />
    <path
       inkscape:export-ydpi="400"
       inkscape:export-xdpi="400"
       style="fill:none;stroke:#000000;stroke-width:0.46500002;stroke-linecap:butt;stroke-linejoin:miter;stroke-miterlimit:4;stroke-dasharray:0.46500002, 0.93000004000000003;stroke-opacity:1;stroke-dashoffset:0"
       d="M 88.354446,72.196492 107.40156,91.243606"
       id="path1157-3"
       inkscape:connector-curvature="0" />
    <path
       inkscape:export-ydpi="400"
       inkscape:export-xdpi="400"
       style="fill:none;stroke:#000000;stroke-width:0.46500002;stroke-linecap:butt;stroke-linejoin:miter;stroke-miterlimit:4;stroke-dasharray:0.46500002,0.93000004;stroke-opacity:1;stroke-dashoffset:0"
       d="M 81.454548,98.071363 107.47339,91.099636"
       id="path1157-5-2"
       inkscape:connector-curvature="0" />
    <path
       inkscape:export-ydpi="400"
       inkscape:export-xdpi="400"
       style="fill:none;stroke:#000000;stroke-width:0.46500006;stroke-linecap:butt;stroke-linejoin:miter;stroke-miterlimit:4;stroke-dasharray:0.46500003, 0.93000005;stroke-dashoffset:0;stroke-opacity:1"
       d="M 62.335604,79.168219 107.40156,91.243606"
       id="path1157-3-9"
       inkscape:connector-curvature="0"
       sodipodi:nodetypes="cc" />
    <path
       inkscape:export-ydpi="400"
       inkscape:export-xdpi="400"
       style="fill:none;stroke:#000000;stroke-width:0.26458332px;stroke-linecap:butt;stroke-linejoin:miter;stroke-opacity:1"
       d="m 78.577241,71.357701 c 0,0 5.479023,8.619442 -0.133636,12.093948"
       id="path3130"
       inkscape:connector-curvature="0" />
    <g
       inkscape:export-ydpi="400"
       inkscape:export-xdpi="400"
       transform="matrix(0.46348122,0,0,0.46348122,12.666226,18.199716)"
       ns1:version="0.11.0"
       ns1:texconverter="pdflatex"
       ns1:pdfconverter="pdf2svg"
       ns1:text="$\\phi_2$"
       ns1:preamble="/home/karadalex/.config/inkscape/extensions/textext/default_packages.tex"
       ns1:scale="2.59808465282"
       ns1:alignment="middle center"
       inkscapeversion="0.92.3"
       ns1:jacobian_sqrt="0.916547"
       style="fill:#000000;fill-opacity:1"
       id="g3180">
      <g
         id="g3178"
         style="fill:#000000;fill-opacity:1">
        <g
           style="fill:#000000;fill-opacity:1"
           id="g3172">
          <path
             style="fill:#000000;fill-opacity:1;stroke:none;stroke-width:0"
             d="m 4.359375,-6.671875 c 0,-0.03125 0.03125,-0.140625 0.03125,-0.140625 0,-0.015625 0,-0.109375 -0.125,-0.109375 -0.09375,0 -0.109375,0.03125 -0.15625,0.203125 L 3.53125,-4.421875 c -1.578125,0.0625 -3.046875,1.375 -3.046875,2.734375 0,0.953125 0.703125,1.734375 1.921875,1.8125 C 2.328125,0.421875 2.25,0.75 2.171875,1.0625 c -0.125,0.46875 -0.21875,0.84375 -0.21875,0.875 0,0.09375 0.078125,0.109375 0.125,0.109375 C 2.125,2.046875 2.140625,2.03125 2.171875,2 2.1875,1.984375 2.25,1.75 2.28125,1.609375 L 2.65625,0.125 c 1.609375,-0.0625 3.0625,-1.40625 3.0625,-2.734375 0,-0.796875 -0.53125,-1.703125 -1.921875,-1.8125 z m -1.90625,6.578125 c -0.59375,-0.03125 -1.3125,-0.390625 -1.3125,-1.375 0,-1.203125 0.859375,-2.59375 2.34375,-2.734375 z m 1.28125,-4.109375 c 0.765625,0.046875 1.328125,0.5 1.328125,1.375 0,1.1875 -0.859375,2.609375 -2.34375,2.734375 z m 0,0"
             transform="translate(148.712,134.765)"
             id="path3170"
             inkscape:connector-curvature="0" />
        </g>
        <g
           style="fill:#000000;fill-opacity:1"
           id="g3176">
          <path
             style="fill:#000000;fill-opacity:1;stroke:none;stroke-width:0"
             d="M 3.515625,-1.265625 H 3.28125 c -0.015625,0.15625 -0.09375,0.5625 -0.1875,0.625 C 3.046875,-0.59375 2.515625,-0.59375 2.40625,-0.59375 H 1.125 c 0.734375,-0.640625 0.984375,-0.84375 1.390625,-1.171875 0.515625,-0.40625 1,-0.84375 1,-1.5 0,-0.84375 -0.734375,-1.359375 -1.625,-1.359375 -0.859375,0 -1.453125,0.609375 -1.453125,1.25 0,0.34375 0.296875,0.390625 0.375,0.390625 0.15625,0 0.359375,-0.125 0.359375,-0.375 0,-0.125 -0.046875,-0.375 -0.40625,-0.375 C 0.984375,-4.21875 1.453125,-4.375 1.78125,-4.375 c 0.703125,0 1.0625,0.546875 1.0625,1.109375 0,0.609375 -0.4375,1.078125 -0.65625,1.328125 L 0.515625,-0.265625 C 0.4375,-0.203125 0.4375,-0.1875 0.4375,0 h 2.875 z m 0,0"
             transform="translate(154.648,136.259)"
             id="path3174"
             inkscape:connector-curvature="0" />
        </g>
      </g>
    </g>
    <path
       inkscape:export-ydpi="400"
       inkscape:export-xdpi="400"
       style="fill:none;stroke:#0000ff;stroke-width:0.465;stroke-linecap:butt;stroke-linejoin:miter;stroke-miterlimit:4;stroke-dasharray:none;stroke-opacity:1;marker-end:url(#Arrow1Mend-1)"
       d="M 62.300696,79.238184 V 52.301497"
       id="path1157-7"
       inkscape:connector-curvature="0" />
    <path
       inkscape:export-ydpi="400"
       inkscape:export-xdpi="400"
       inkscape:connector-curvature="0"
       id="path3799"
       d="M 62.300696,79.238183 128.15991,20.034375"
       style="fill:none;stroke:#a900ff;stroke-width:0.26458332px;stroke-linecap:butt;stroke-linejoin:miter;stroke-opacity:1" />
    <g
       inkscape:export-ydpi="400"
       inkscape:export-xdpi="400"
       id="g3882"
       style="fill:#fe7800;fill-opacity:1"
       ns1:jacobian_sqrt="0.916547"
       inkscapeversion="0.92.3"
       ns1:alignment="middle center"
       ns1:scale="2.59808468117"
       ns1:preamble="/home/karadalex/.config/inkscape/extensions/textext/default_packages.tex"
       ns1:text="$L_2$"
       ns1:pdfconverter="pdf2svg"
       ns1:texconverter="pdflatex"
       ns1:version="0.11.0"
       transform="matrix(0.67522738,0,0,0.67522738,3.4088586,-26.576302)">
      <g
         style="fill:#fe7800;fill-opacity:1"
         id="g3880">
        <g
           id="g3874"
           style="fill:#fe7800;fill-opacity:1">
          <path
             id="path3872"
             transform="translate(148.712,134.765)"
             d="M 3.734375,-6.03125 C 3.8125,-6.390625 3.84375,-6.5 4.78125,-6.5 c 0.296875,0 0.375,0 0.375,-0.1875 0,-0.125 -0.109375,-0.125 -0.15625,-0.125 -0.328125,0 -1.140625,0.03125 -1.46875,0.03125 -0.296875,0 -1.03125,-0.03125 -1.328125,-0.03125 -0.0625,0 -0.1875,0 -0.1875,0.203125 0,0.109375 0.09375,0.109375 0.28125,0.109375 0.015625,0 0.203125,0 0.375,0.015625 0.171875,0.03125 0.265625,0.03125 0.265625,0.171875 0,0.03125 0,0.0625 -0.03125,0.1875 L 1.5625,-0.78125 c -0.09375,0.390625 -0.109375,0.46875 -0.90625,0.46875 -0.171875,0 -0.265625,0 -0.265625,0.203125 C 0.390625,0 0.484375,0 0.65625,0 h 4.625 C 5.515625,0 5.515625,0 5.578125,-0.171875 L 6.375,-2.328125 c 0.03125,-0.109375 0.03125,-0.125 0.03125,-0.140625 0,-0.03125 -0.03125,-0.109375 -0.109375,-0.109375 -0.09375,0 -0.109375,0.0625 -0.171875,0.21875 -0.34375,0.90625 -0.78125,2.046875 -2.5,2.046875 H 2.6875 c -0.140625,0 -0.171875,0 -0.21875,0 -0.109375,-0.015625 -0.140625,-0.03125 -0.140625,-0.109375 0,-0.03125 0,-0.046875 0.046875,-0.21875 z m 0,0"
             style="fill:#fe7800;fill-opacity:1;stroke:none;stroke-width:0"
             inkscape:connector-curvature="0" />
        </g>
        <g
           id="g3878"
           style="fill:#fe7800;fill-opacity:1">
          <path
             id="path3876"
             transform="translate(155.492,136.259)"
             d="M 3.515625,-1.265625 H 3.28125 c -0.015625,0.15625 -0.09375,0.5625 -0.1875,0.625 C 3.046875,-0.59375 2.515625,-0.59375 2.40625,-0.59375 H 1.125 c 0.734375,-0.640625 0.984375,-0.84375 1.390625,-1.171875 0.515625,-0.40625 1,-0.84375 1,-1.5 0,-0.84375 -0.734375,-1.359375 -1.625,-1.359375 -0.859375,0 -1.453125,0.609375 -1.453125,1.25 0,0.34375 0.296875,0.390625 0.375,0.390625 0.15625,0 0.359375,-0.125 0.359375,-0.375 0,-0.125 -0.046875,-0.375 -0.40625,-0.375 C 0.984375,-4.21875 1.453125,-4.375 1.78125,-4.375 c 0.703125,0 1.0625,0.546875 1.0625,1.109375 0,0.609375 -0.4375,1.078125 -0.65625,1.328125 L 0.515625,-0.265625 C 0.4375,-0.203125 0.4375,-0.1875 0.4375,0 h 2.875 z m 0,0"
             style="fill:#fe7800;fill-opacity:1;stroke:none;stroke-width:0"
             inkscape:connector-curvature="0" />
        </g>
      </g>
    </g>
    <g
       inkscape:export-ydpi="400"
       inkscape:export-xdpi="400"
       transform="matrix(0.66342464,0,0,0.66342464,11.473243,-48.485646)"
       ns1:version="0.11.0"
       ns1:texconverter="pdflatex"
       ns1:pdfconverter="pdf2svg"
       ns1:text="$L_3$"
       ns1:preamble="/home/karadalex/.config/inkscape/extensions/textext/default_packages.tex"
       ns1:scale="2.59808465282"
       ns1:alignment="middle center"
       inkscapeversion="0.92.3"
       ns1:jacobian_sqrt="0.916547"
       style="fill:#fe7800;fill-opacity:1"
       id="g4032">
      <g
         id="g4030"
         style="fill:#fe7800;fill-opacity:1">
        <g
           style="fill:#fe7800;fill-opacity:1"
           id="g4024">
          <path
             inkscape:connector-curvature="0"
             style="fill:#fe7800;fill-opacity:1;stroke:none;stroke-width:0"
             d="M 3.734375,-6.03125 C 3.8125,-6.390625 3.84375,-6.5 4.78125,-6.5 c 0.296875,0 0.375,0 0.375,-0.1875 0,-0.125 -0.109375,-0.125 -0.15625,-0.125 -0.328125,0 -1.140625,0.03125 -1.46875,0.03125 -0.296875,0 -1.03125,-0.03125 -1.328125,-0.03125 -0.0625,0 -0.1875,0 -0.1875,0.203125 0,0.109375 0.09375,0.109375 0.28125,0.109375 0.015625,0 0.203125,0 0.375,0.015625 0.171875,0.03125 0.265625,0.03125 0.265625,0.171875 0,0.03125 0,0.0625 -0.03125,0.1875 L 1.5625,-0.78125 c -0.09375,0.390625 -0.109375,0.46875 -0.90625,0.46875 -0.171875,0 -0.265625,0 -0.265625,0.203125 C 0.390625,0 0.484375,0 0.65625,0 h 4.625 C 5.515625,0 5.515625,0 5.578125,-0.171875 L 6.375,-2.328125 c 0.03125,-0.109375 0.03125,-0.125 0.03125,-0.140625 0,-0.03125 -0.03125,-0.109375 -0.109375,-0.109375 -0.09375,0 -0.109375,0.0625 -0.171875,0.21875 -0.34375,0.90625 -0.78125,2.046875 -2.5,2.046875 H 2.6875 c -0.140625,0 -0.171875,0 -0.21875,0 -0.109375,-0.015625 -0.140625,-0.03125 -0.140625,-0.109375 0,-0.03125 0,-0.046875 0.046875,-0.21875 z m 0,0"
             transform="translate(148.712,134.765)"
             id="path4022" />
        </g>
        <g
           style="fill:#fe7800;fill-opacity:1"
           id="g4028">
          <path
             inkscape:connector-curvature="0"
             style="fill:#fe7800;fill-opacity:1;stroke:none;stroke-width:0"
             d="m 1.90625,-2.328125 c 0.546875,0 0.9375,0.375 0.9375,1.125 0,0.859375 -0.515625,1.125 -0.90625,1.125 -0.28125,0 -0.90625,-0.078125 -1.1875,-0.5 0.328125,0 0.40625,-0.234375 0.40625,-0.390625 0,-0.21875 -0.171875,-0.375 -0.390625,-0.375 -0.1875,0 -0.390625,0.125 -0.390625,0.40625 0,0.65625 0.71875,1.078125 1.5625,1.078125 0.96875,0 1.640625,-0.65625 1.640625,-1.34375 0,-0.546875 -0.4375,-1.09375 -1.203125,-1.25 0.71875,-0.265625 0.984375,-0.78125 0.984375,-1.21875 0,-0.546875 -0.625,-0.953125 -1.40625,-0.953125 -0.765625,0 -1.359375,0.375 -1.359375,0.9375 0,0.234375 0.15625,0.359375 0.359375,0.359375 0.21875,0 0.359375,-0.15625 0.359375,-0.34375 0,-0.203125 -0.140625,-0.359375 -0.359375,-0.375 0.25,-0.296875 0.71875,-0.375 0.984375,-0.375 0.3125,0 0.75,0.15625 0.75,0.75 0,0.296875 -0.09375,0.625 -0.28125,0.828125 -0.21875,0.265625 -0.421875,0.28125 -0.765625,0.3125 -0.171875,0.015625 -0.1875,0.015625 -0.21875,0.015625 -0.015625,0 -0.078125,0.015625 -0.078125,0.09375 0,0.09375 0.0625,0.09375 0.1875,0.09375 z m 0,0"
             transform="translate(155.492,136.259)"
             id="path4026" />
        </g>
      </g>
    </g>
    <path
       inkscape:export-ydpi="400"
       inkscape:export-xdpi="400"
       style="fill:none;stroke:#000000;stroke-width:0.422;stroke-linecap:butt;stroke-linejoin:miter;stroke-miterlimit:4;stroke-dasharray:0.422,0.844;stroke-dashoffset:0;stroke-opacity:1"
       d="m 62.300696,52.301494 10e-7,-32.292617"
       id="path1157-3-9-7"
       inkscape:connector-curvature="0"
       sodipodi:nodetypes="cc" />
    <path
       inkscape:export-ydpi="400"
       inkscape:export-xdpi="400"
       style="fill:none;stroke:#000000;stroke-width:0.457;stroke-linecap:butt;stroke-linejoin:miter;stroke-miterlimit:4;stroke-dasharray:0.457,0.914;stroke-dashoffset:0;stroke-opacity:1"
       d="m 62.191332,20.034382 65.968578,2e-6"
       id="path1157-3-9-7-9"
       inkscape:connector-curvature="0"
       sodipodi:nodetypes="cc" />
    <g
       inkscape:export-ydpi="400"
       inkscape:export-xdpi="400"
       id="g4226"
       style="fill:#000000;fill-opacity:1"
       ns1:jacobian_sqrt="0.916547"
       inkscapeversion="0.92.3"
       ns1:alignment="middle center"
       ns1:scale="2.59808462447"
       ns1:preamble="/home/karadalex/.config/inkscape/extensions/textext/default_packages.tex"
       ns1:text="$p_z$"
       ns1:pdfconverter="pdf2svg"
       ns1:texconverter="pdflatex"
       ns1:version="0.11.0"
       transform="matrix(0.916547,0.000000,0.000000,0.916547,-84.123927,-90.718916)">
      <g
         style="fill:#000000;fill-opacity:1"
         id="g4224">
        <g
           id="g4218"
           style="fill-opacity:1;fill:#000000">
          <path
             id="path4216"
             transform="translate(148.712,134.765)"
             d="M 0.453125 1.21875 C 0.375 1.5625 0.34375 1.625 -0.09375 1.625 C -0.203125 1.625 -0.3125 1.625 -0.3125 1.8125 C -0.3125 1.890625 -0.265625 1.9375 -0.1875 1.9375 C 0.078125 1.9375 0.375 1.90625 0.640625 1.90625 C 0.984375 1.90625 1.3125 1.9375 1.640625 1.9375 C 1.6875 1.9375 1.8125 1.9375 1.8125 1.734375 C 1.8125 1.625 1.71875 1.625 1.578125 1.625 C 1.078125 1.625 1.078125 1.5625 1.078125 1.46875 C 1.078125 1.34375 1.5 -0.28125 1.5625 -0.53125 C 1.6875 -0.234375 1.96875 0.109375 2.484375 0.109375 C 3.640625 0.109375 4.890625 -1.34375 4.890625 -2.8125 C 4.890625 -3.75 4.3125 -4.40625 3.5625 -4.40625 C 3.0625 -4.40625 2.578125 -4.046875 2.25 -3.65625 C 2.15625 -4.203125 1.71875 -4.40625 1.359375 -4.40625 C 0.890625 -4.40625 0.703125 -4.015625 0.625 -3.84375 C 0.4375 -3.5 0.3125 -2.90625 0.3125 -2.875 C 0.3125 -2.765625 0.40625 -2.765625 0.421875 -2.765625 C 0.53125 -2.765625 0.53125 -2.78125 0.59375 -3 C 0.765625 -3.703125 0.96875 -4.1875 1.328125 -4.1875 C 1.5 -4.1875 1.640625 -4.109375 1.640625 -3.734375 C 1.640625 -3.5 1.609375 -3.390625 1.5625 -3.21875 Z M 2.203125 -3.109375 C 2.265625 -3.375 2.546875 -3.65625 2.71875 -3.8125 C 3.078125 -4.109375 3.359375 -4.1875 3.53125 -4.1875 C 3.921875 -4.1875 4.171875 -3.84375 4.171875 -3.25 C 4.171875 -2.65625 3.84375 -1.515625 3.65625 -1.140625 C 3.3125 -0.4375 2.84375 -0.109375 2.46875 -0.109375 C 1.8125 -0.109375 1.6875 -0.9375 1.6875 -1 C 1.6875 -1.015625 1.6875 -1.03125 1.71875 -1.15625 Z M 2.203125 -3.109375 "
             style="fill-opacity:1;stroke:none;stroke-width:0;fill:#000000" />
        </g>
        <g
           id="g4222"
           style="fill-opacity:1;fill:#000000">
          <path
             id="path4220"
             transform="translate(153.725,136.259)"
             d="M 1.171875 -0.609375 C 1.359375 -0.796875 1.484375 -0.921875 2.0625 -1.40625 C 2.21875 -1.515625 2.734375 -1.9375 2.9375 -2.125 C 3.359375 -2.546875 3.625 -2.90625 3.625 -2.984375 C 3.625 -3.078125 3.546875 -3.078125 3.515625 -3.078125 C 3.453125 -3.078125 3.421875 -3.0625 3.390625 -3 C 3.171875 -2.6875 3.03125 -2.578125 2.859375 -2.578125 C 2.78125 -2.578125 2.671875 -2.578125 2.46875 -2.78125 C 2.234375 -3.03125 2.078125 -3.078125 1.921875 -3.078125 C 1.359375 -3.078125 0.984375 -2.46875 0.984375 -2.265625 C 0.984375 -2.1875 1.046875 -2.171875 1.09375 -2.171875 C 1.1875 -2.171875 1.203125 -2.1875 1.21875 -2.265625 C 1.328125 -2.515625 1.71875 -2.53125 1.828125 -2.53125 C 2 -2.53125 2.171875 -2.484375 2.265625 -2.46875 C 2.65625 -2.390625 2.703125 -2.390625 2.875 -2.390625 C 2.703125 -2.1875 2.578125 -2.0625 1.90625 -1.546875 C 1.359375 -1.109375 1.171875 -0.9375 1.046875 -0.796875 C 0.625 -0.390625 0.421875 -0.078125 0.421875 -0.015625 C 0.421875 0.0625 0.515625 0.0625 0.546875 0.0625 C 0.609375 0.0625 0.625 0.0625 0.65625 0 C 0.84375 -0.265625 1.0625 -0.421875 1.296875 -0.421875 C 1.390625 -0.421875 1.484375 -0.421875 1.671875 -0.25 C 1.890625 -0.03125 2.03125 0.0625 2.265625 0.0625 C 3 0.0625 3.46875 -0.78125 3.46875 -1.015625 C 3.46875 -1.09375 3.390625 -1.09375 3.359375 -1.09375 C 3.265625 -1.09375 3.25 -1.0625 3.21875 -0.984375 C 3.09375 -0.640625 2.6875 -0.46875 2.34375 -0.46875 C 2.1875 -0.46875 2 -0.515625 1.828125 -0.546875 C 1.515625 -0.625 1.453125 -0.625 1.328125 -0.625 C 1.3125 -0.625 1.21875 -0.625 1.171875 -0.609375 Z M 1.171875 -0.609375 "
             style="fill-opacity:1;stroke:none;stroke-width:0;fill:#000000" />
        </g>
      </g>
    </g>
    <g
       inkscape:export-ydpi="400"
       inkscape:export-xdpi="400"
       transform="matrix(0.916547,0,0,0.916547,-48.170402,-107.4039)"
       ns1:version="0.11.0"
       ns1:texconverter="pdflatex"
       ns1:pdfconverter="pdf2svg"
       ns1:text="$p_{xy}$"
       ns1:preamble="/home/karadalex/.config/inkscape/extensions/textext/default_packages.tex"
       ns1:scale="2.59808459612"
       ns1:alignment="middle center"
       inkscapeversion="0.92.3"
       ns1:jacobian_sqrt="0.916547"
       style="fill:#000000;fill-opacity:1"
       id="g4406">
      <g
         id="g4404"
         style="fill:#000000;fill-opacity:1">
        <g
           style="fill:#000000;fill-opacity:1"
           id="g4396">
          <path
             inkscape:connector-curvature="0"
             style="fill:#000000;fill-opacity:1;stroke:none;stroke-width:0"
             d="M 0.453125,1.21875 C 0.375,1.5625 0.34375,1.625 -0.09375,1.625 c -0.109375,0 -0.21875,0 -0.21875,0.1875 0,0.078125 0.046875,0.125 0.125,0.125 0.265625,0 0.5625,-0.03125 0.828125,-0.03125 0.34375,0 0.671875,0.03125 1,0.03125 0.046875,0 0.171875,0 0.171875,-0.203125 C 1.8125,1.625 1.71875,1.625 1.578125,1.625 c -0.5,0 -0.5,-0.0625 -0.5,-0.15625 0,-0.125 0.421875,-1.75 0.484375,-2 0.125,0.296875 0.40625,0.640625 0.921875,0.640625 1.15625,0 2.40625,-1.453125 2.40625,-2.921875 0,-0.9375 -0.578125,-1.59375 -1.328125,-1.59375 -0.5,0 -0.984375,0.359375 -1.3125,0.75 -0.09375,-0.546875 -0.53125,-0.75 -0.890625,-0.75 -0.46875,0 -0.65625,0.390625 -0.734375,0.5625 C 0.4375,-3.5 0.3125,-2.90625 0.3125,-2.875 c 0,0.109375 0.09375,0.109375 0.109375,0.109375 0.109375,0 0.109375,-0.015625 0.171875,-0.234375 0.171875,-0.703125 0.375,-1.1875 0.734375,-1.1875 0.171875,0 0.3125,0.078125 0.3125,0.453125 0,0.234375 -0.03125,0.34375 -0.078125,0.515625 z m 1.75,-4.328125 C 2.265625,-3.375 2.546875,-3.65625 2.71875,-3.8125 c 0.359375,-0.296875 0.640625,-0.375 0.8125,-0.375 0.390625,0 0.640625,0.34375 0.640625,0.9375 0,0.59375 -0.328125,1.734375 -0.515625,2.109375 -0.34375,0.703125 -0.8125,1.03125 -1.1875,1.03125 C 1.8125,-0.109375 1.6875,-0.9375 1.6875,-1 c 0,-0.015625 0,-0.03125 0.03125,-0.15625 z m 0,0"
             transform="translate(148.712,134.765)"
             id="path4394" />
        </g>
        <g
           style="fill:#000000;fill-opacity:1"
           id="g4402">
          <path
             inkscape:connector-curvature="0"
             style="fill:#000000;fill-opacity:1;stroke:none;stroke-width:0"
             d="M 1.734375,-0.734375 C 1.671875,-0.5 1.4375,-0.125 1.078125,-0.125 c -0.015625,0 -0.234375,0 -0.375,-0.09375 0.28125,-0.09375 0.3125,-0.34375 0.3125,-0.390625 0,-0.15625 -0.125,-0.25 -0.28125,-0.25 -0.203125,0 -0.40625,0.15625 -0.40625,0.421875 0,0.34375 0.390625,0.5 0.734375,0.5 0.328125,0 0.609375,-0.1875 0.78125,-0.484375 C 2.015625,-0.0625 2.390625,0.0625 2.671875,0.0625 c 0.8125,0 1.234375,-0.859375 1.234375,-1.0625 0,-0.09375 -0.09375,-0.09375 -0.109375,-0.09375 -0.109375,0 -0.109375,0.046875 -0.140625,0.125 -0.140625,0.484375 -0.5625,0.84375 -0.953125,0.84375 -0.28125,0 -0.421875,-0.1875 -0.421875,-0.453125 0,-0.1875 0.171875,-0.8125 0.359375,-1.59375 C 2.78125,-2.703125 3.09375,-2.875 3.328125,-2.875 c 0.015625,0 0.21875,0 0.375,0.09375 -0.21875,0.0625 -0.3125,0.265625 -0.3125,0.390625 0,0.140625 0.125,0.25 0.28125,0.25 0.15625,0 0.390625,-0.125 0.390625,-0.421875 0,-0.390625 -0.453125,-0.515625 -0.71875,-0.515625 -0.359375,0 -0.640625,0.234375 -0.78125,0.5 -0.125,-0.28125 -0.453125,-0.5 -0.84375,-0.5 C 0.9375,-3.078125 0.5,-2.21875 0.5,-2 c 0,0.078125 0.09375,0.078125 0.109375,0.078125 0.09375,0 0.09375,-0.015625 0.140625,-0.109375 C 0.921875,-2.578125 1.359375,-2.875 1.703125,-2.875 1.9375,-2.875 2.125,-2.75 2.125,-2.421875 2.125,-2.28125 2.03125,-1.9375 1.96875,-1.6875 Z m 0,0"
             transform="translate(153.725,136.259)"
             id="path4398" />
          <path
             inkscape:connector-curvature="0"
             style="fill:#000000;fill-opacity:1;stroke:none;stroke-width:0"
             d="M 3.875,-2.625 C 3.90625,-2.71875 3.90625,-2.734375 3.90625,-2.78125 3.90625,-2.921875 3.796875,-3 3.671875,-3 3.59375,-3 3.46875,-2.96875 3.390625,-2.84375 3.359375,-2.796875 3.3125,-2.578125 3.28125,-2.4375 L 3.125,-1.859375 c -0.03125,0.171875 -0.25,1.046875 -0.28125,1.125 0,0 -0.3125,0.609375 -0.84375,0.609375 -0.484375,0 -0.484375,-0.453125 -0.484375,-0.578125 0,-0.375 0.15625,-0.8125 0.375,-1.359375 C 1.96875,-2.28125 2,-2.359375 2,-2.484375 2,-2.8125 1.71875,-3.078125 1.34375,-3.078125 0.640625,-3.078125 0.328125,-2.125 0.328125,-2 c 0,0.078125 0.09375,0.078125 0.125,0.078125 0.09375,0 0.09375,-0.03125 0.125,-0.109375 C 0.75,-2.609375 1.046875,-2.875 1.328125,-2.875 1.4375,-2.875 1.5,-2.796875 1.5,-2.640625 c 0,0.171875 -0.0625,0.3125 -0.09375,0.40625 C 1.0625,-1.375 1,-1.125 1,-0.8125 1,-0.703125 1,-0.375 1.265625,-0.140625 1.484375,0.03125 1.78125,0.0625 1.96875,0.0625 2.25,0.0625 2.5,-0.03125 2.71875,-0.25 2.640625,0.140625 2.5625,0.4375 2.265625,0.78125 2.078125,1 1.796875,1.21875 1.421875,1.21875 c -0.046875,0 -0.375,0 -0.515625,-0.21875 0.375,-0.046875 0.375,-0.375 0.375,-0.390625 0,-0.21875 -0.203125,-0.265625 -0.265625,-0.265625 -0.171875,0 -0.40625,0.140625 -0.40625,0.46875 0,0.34375 0.328125,0.609375 0.828125,0.609375 C 2.140625,1.421875 3,0.875 3.21875,0 Z m 0,0"
             transform="translate(158.24263,136.259)"
             id="path4400" />
        </g>
      </g>
    </g>
    <path
       inkscape:export-ydpi="400"
       inkscape:export-xdpi="400"
       style="fill:none;stroke:#000000;stroke-width:0.487;stroke-linecap:butt;stroke-linejoin:miter;stroke-miterlimit:4;stroke-dasharray:0.487,0.974;stroke-opacity:1;stroke-dashoffset:0"
       d="M 113.44672,53.820957 138.52394,41.309385"
       id="path1109-36"
       inkscape:connector-curvature="0" />
    <path
       inkscape:export-ydpi="400"
       inkscape:export-xdpi="400"
       style="fill:none;stroke:#000000;stroke-width:0.41235995;stroke-linecap:butt;stroke-linejoin:miter;stroke-miterlimit:4;stroke-dasharray:0.41235993, 0.82471987;stroke-dashoffset:0;stroke-opacity:1"
       d="m 127.96335,20.092286 10.59398,21.233759"
       id="path1109-36-1"
       inkscape:connector-curvature="0" />
    <rect
       inkscape:export-ydpi="400"
       inkscape:export-xdpi="400"
       transform="rotate(-26.247405)"
       y="96.367867"
       x="103.07666"
       height="1.9738764"
       width="2.9180458"
       id="rect4514"
       style="opacity:1;fill:none;fill-opacity:1;stroke:#000000;stroke-width:0.18700001;stroke-linecap:round;stroke-linejoin:round;stroke-miterlimit:4;stroke-dasharray:none;stroke-dashoffset:0;stroke-opacity:1;paint-order:fill markers stroke" />
    <path
       inkscape:export-ydpi="400"
       inkscape:export-xdpi="400"
       inkscape:connector-curvature="0"
       id="path4516"
       d="m 81.123138,62.371271 c 0,0 4.488468,0.472472 3.401785,5.669645"
       style="fill:none;stroke:#a900ff;stroke-width:0.26458332px;stroke-linecap:butt;stroke-linejoin:miter;stroke-opacity:1" />
    <g
       inkscape:export-ydpi="400"
       inkscape:export-xdpi="400"
       id="g4626"
       style="fill:#a900ff;fill-opacity:1"
       ns1:jacobian_sqrt="0.916547"
       inkscapeversion="0.92.3"
       ns1:alignment="middle center"
       ns1:scale="2.59808468117"
       ns1:preamble="/home/karadalex/.config/inkscape/extensions/textext/default_packages.tex"
       ns1:text="$\\psi$"
       ns1:pdfconverter="pdf2svg"
       ns1:texconverter="pdflatex"
       ns1:version="0.11.0"
       transform="matrix(0.53725382,0,0,0.53725382,4.5332038,-8.6597261)">
      <g
         style="fill:#a900ff;fill-opacity:1"
         id="g4624">
        <g
           id="g4622"
           style="fill:#a900ff;fill-opacity:1">
          <path
             id="path4620"
             transform="translate(148.712,134.765)"
             d="m 4.8125,-6.65625 c 0,-0.046875 0.015625,-0.109375 0.015625,-0.15625 0,-0.09375 -0.0625,-0.109375 -0.109375,-0.109375 -0.109375,0 -0.109375,0.03125 -0.15625,0.203125 L 2.90625,-0.125 c -0.75,-0.09375 -1.125,-0.46875 -1.125,-1.125 0,-0.203125 0,-0.453125 0.53125,-1.84375 0.046875,-0.125 0.109375,-0.296875 0.109375,-0.5 0,-0.4375 -0.3125,-0.8125 -0.8125,-0.8125 -0.953125,0 -1.3125,1.453125 -1.3125,1.53125 0,0.109375 0.09375,0.109375 0.109375,0.109375 0.109375,0 0.109375,-0.03125 0.15625,-0.1875 0.28125,-0.9375 0.671875,-1.234375 1.015625,-1.234375 0.078125,0 0.25,0 0.25,0.3125 0,0.265625 -0.109375,0.515625 -0.234375,0.859375 C 1.109375,-1.75 1.109375,-1.5 1.109375,-1.328125 1.109375,-0.375 1.890625,0.03125 2.84375,0.09375 2.765625,0.453125 2.765625,0.46875 2.625,1 2.609375,1.109375 2.40625,1.90625 2.40625,1.9375 c 0,0.015625 0,0.109375 0.109375,0.109375 0.03125,0 0.078125,0 0.09375,-0.046875 0.03125,-0.015625 0.09375,-0.265625 0.125,-0.40625 l 0.375,-1.484375 c 0.375,0 1.25,0 2.1875,-1.0625 0.40625,-0.46875 0.609375,-0.90625 0.71875,-1.203125 0.09375,-0.25 0.3125,-1.109375 0.3125,-1.546875 0,-0.5625 -0.265625,-0.703125 -0.4375,-0.703125 -0.25,0 -0.5,0.265625 -0.5,0.484375 0,0.125 0.0625,0.1875 0.15625,0.265625 0.109375,0.109375 0.359375,0.359375 0.359375,0.84375 0,0.640625 -0.515625,1.453125 -0.875,1.8125 -0.875,0.890625 -1.515625,0.890625 -1.875,0.890625 z m 0,0"
             style="fill:#a900ff;fill-opacity:1;stroke:none;stroke-width:0"
             inkscape:connector-curvature="0" />
        </g>
      </g>
    </g>
    <g
       inkscape:export-ydpi="400"
       inkscape:export-xdpi="400"
       transform="matrix(0.44709712,0,0,0.44709712,-9.5298951,24.197411)"
       ns1:version="0.11.0"
       ns1:texconverter="pdflatex"
       ns1:pdfconverter="pdf2svg"
       ns1:text="$A$"
       ns1:preamble="/home/karadalex/.config/inkscape/extensions/textext/default_packages.tex"
       ns1:scale="2.59808456777"
       ns1:alignment="middle center"
       inkscapeversion="0.92.3"
       ns1:jacobian_sqrt="0.916547"
       style="fill:#000000;fill-opacity:1"
       id="g4833">
      <g
         id="g4831"
         style="fill:#000000;fill-opacity:1">
        <g
           style="fill:#000000;fill-opacity:1"
           id="g4829">
          <path
             inkscape:connector-curvature="0"
             style="fill:#000000;fill-opacity:1;stroke:none;stroke-width:0"
             d="M 1.78125,-1.140625 C 1.390625,-0.484375 1,-0.34375 0.5625,-0.3125 0.4375,-0.296875 0.34375,-0.296875 0.34375,-0.109375 0.34375,-0.046875 0.40625,0 0.484375,0 0.75,0 1.0625,-0.03125 1.328125,-0.03125 c 0.34375,0 0.6875,0.03125 1,0.03125 0.0625,0 0.1875,0 0.1875,-0.1875 0,-0.109375 -0.078125,-0.125 -0.15625,-0.125 -0.21875,-0.015625 -0.46875,-0.09375 -0.46875,-0.34375 0,-0.125 0.0625,-0.234375 0.140625,-0.375 l 0.765625,-1.265625 h 2.5 c 0.015625,0.203125 0.15625,1.5625 0.15625,1.65625 0,0.296875 -0.515625,0.328125 -0.71875,0.328125 C 4.59375,-0.3125 4.5,-0.3125 4.5,-0.109375 4.5,0 4.609375,0 4.640625,0 5.046875,0 5.46875,-0.03125 5.875,-0.03125 6.125,-0.03125 6.765625,0 7.015625,0 7.0625,0 7.1875,0 7.1875,-0.203125 7.1875,-0.3125 7.09375,-0.3125 6.953125,-0.3125 6.34375,-0.3125 6.34375,-0.375 6.3125,-0.671875 l -0.609375,-6.21875 c -0.015625,-0.203125 -0.015625,-0.25 -0.1875,-0.25 -0.15625,0 -0.203125,0.078125 -0.265625,0.171875 z M 2.984375,-2.609375 4.9375,-5.90625 5.265625,-2.609375 Z m 0,0"
             transform="translate(148.712,134.765)"
             id="path4827" />
        </g>
      </g>
    </g>
    <g
       inkscape:export-ydpi="400"
       inkscape:export-xdpi="400"
       id="g5039"
       style="fill:#000000;fill-opacity:1"
       ns1:jacobian_sqrt="0.447097"
       inkscapeversion="0.92.3"
       ns1:alignment="middle center"
       ns1:scale="1.26736122399"
       ns1:preamble="/home/karadalex/.config/inkscape/extensions/textext/default_packages.tex"
       ns1:text="$B$"
       ns1:pdfconverter="pdf2svg"
       ns1:texconverter="pdflatex"
       ns1:version="0.11.0"
       transform="matrix(0.447097,0.000000,0.000000,0.447097,72.246050,-15.777349)">
      <g
         style="fill:#000000;fill-opacity:1"
         id="g5037">
        <g
           id="g5035"
           style="fill-opacity:1;fill:#000000">
          <path
             id="path5033"
             transform="translate(148.712,134.765)"
             d="M 1.59375 -0.78125 C 1.5 -0.390625 1.46875 -0.3125 0.6875 -0.3125 C 0.515625 -0.3125 0.421875 -0.3125 0.421875 -0.109375 C 0.421875 0 0.515625 0 0.6875 0 L 4.25 0 C 5.828125 0 7 -1.171875 7 -2.15625 C 7 -2.875 6.421875 -3.453125 5.453125 -3.5625 C 6.484375 -3.75 7.53125 -4.484375 7.53125 -5.4375 C 7.53125 -6.171875 6.875 -6.8125 5.6875 -6.8125 L 2.328125 -6.8125 C 2.140625 -6.8125 2.046875 -6.8125 2.046875 -6.609375 C 2.046875 -6.5 2.140625 -6.5 2.328125 -6.5 C 2.34375 -6.5 2.53125 -6.5 2.703125 -6.484375 C 2.875 -6.453125 2.96875 -6.453125 2.96875 -6.3125 C 2.96875 -6.28125 2.953125 -6.25 2.9375 -6.125 Z M 3.09375 -3.65625 L 3.71875 -6.125 C 3.8125 -6.46875 3.828125 -6.5 4.25 -6.5 L 5.546875 -6.5 C 6.421875 -6.5 6.625 -5.90625 6.625 -5.46875 C 6.625 -4.59375 5.765625 -3.65625 4.5625 -3.65625 Z M 2.65625 -0.3125 C 2.515625 -0.3125 2.5 -0.3125 2.4375 -0.3125 C 2.328125 -0.328125 2.296875 -0.34375 2.296875 -0.421875 C 2.296875 -0.453125 2.296875 -0.46875 2.359375 -0.640625 L 3.046875 -3.421875 L 4.921875 -3.421875 C 5.875 -3.421875 6.078125 -2.6875 6.078125 -2.265625 C 6.078125 -1.28125 5.1875 -0.3125 4 -0.3125 Z M 2.65625 -0.3125 "
             style="fill-opacity:1;stroke:none;stroke-width:0;fill:#000000" />
        </g>
      </g>
    </g>
    <g
       inkscape:export-ydpi="400"
       inkscape:export-xdpi="400"
       transform="matrix(0.447097,0,0,0.447097,63.052183,-38.314178)"
       ns1:version="0.11.0"
       ns1:texconverter="pdflatex"
       ns1:pdfconverter="pdf2svg"
       ns1:text="$C$"
       ns1:preamble="/home/karadalex/.config/inkscape/extensions/textext/default_packages.tex"
       ns1:scale="1.26736119564"
       ns1:alignment="middle center"
       inkscapeversion="0.92.3"
       ns1:jacobian_sqrt="0.447097"
       style="fill:#000000;fill-opacity:1"
       id="g5253">
      <g
         id="g5251"
         style="fill:#000000;fill-opacity:1">
        <g
           style="fill:#000000;fill-opacity:1"
           id="g5249">
          <path
             inkscape:connector-curvature="0"
             style="fill:#000000;fill-opacity:1;stroke:none;stroke-width:0"
             d="m 7.578125,-6.921875 c 0,-0.03125 -0.015625,-0.109375 -0.109375,-0.109375 -0.03125,0 -0.046875,0.015625 -0.15625,0.125 L 6.625,-6.140625 C 6.53125,-6.28125 6.078125,-7.03125 4.96875,-7.03125 2.734375,-7.03125 0.5,-4.828125 0.5,-2.515625 0.5,-0.875 1.671875,0.21875 3.203125,0.21875 c 0.859375,0 1.625,-0.390625 2.15625,-0.859375 0.921875,-0.8125 1.09375,-1.71875 1.09375,-1.75 C 6.453125,-2.5 6.34375,-2.5 6.328125,-2.5 c -0.0625,0 -0.109375,0.03125 -0.125,0.109375 -0.09375,0.28125 -0.328125,1 -1.015625,1.578125 -0.6875,0.546875 -1.3125,0.71875 -1.828125,0.71875 -0.890625,0 -1.953125,-0.515625 -1.953125,-2.0625 0,-0.578125 0.203125,-2.1875 1.203125,-3.359375 0.609375,-0.703125 1.546875,-1.203125 2.4375,-1.203125 1.015625,0 1.609375,0.765625 1.609375,1.921875 0,0.40625 -0.03125,0.40625 -0.03125,0.515625 0,0.09375 0.109375,0.09375 0.140625,0.09375 0.125,0 0.125,-0.015625 0.1875,-0.203125 z m 0,0"
             transform="translate(148.712,134.765)"
             id="path5247" />
        </g>
      </g>
    </g>
    <path
       inkscape:export-ydpi="400"
       inkscape:export-xdpi="400"
       inkscape:connector-curvature="0"
       id="path5351"
       d="m 118.68452,42.527521 c 0,0 7.03981,-1.464656 5.38616,6.047621"
       style="fill:none;stroke:#000000;stroke-width:0.26458332px;stroke-linecap:butt;stroke-linejoin:miter;stroke-opacity:1" />
    <g
       inkscape:export-ydpi="400"
       inkscape:export-xdpi="400"
       transform="matrix(0.36867894,0,0,0.36867894,66.018385,-9.1881501)"
       ns1:version="0.11.0"
       ns1:texconverter="pdflatex"
       ns1:pdfconverter="pdf2svg"
       ns1:text="$\\phi_3 + 40^\\circ$"
       ns1:preamble="/home/karadalex/.config/inkscape/extensions/textext/default_packages.tex"
       ns1:scale="1.40346112329"
       ns1:alignment="middle center"
       inkscapeversion="0.92.3"
       ns1:jacobian_sqrt="0.49511"
       style="fill:#000000;fill-opacity:1"
       id="g5739">
      <g
         id="g5737"
         style="fill:#000000;fill-opacity:1">
        <g
           style="fill:#000000;fill-opacity:1"
           id="g5717">
          <path
             inkscape:connector-curvature="0"
             style="fill:#000000;fill-opacity:1;stroke:none;stroke-width:0"
             d="m 4.359375,-6.671875 c 0,-0.03125 0.03125,-0.140625 0.03125,-0.140625 0,-0.015625 0,-0.109375 -0.125,-0.109375 -0.09375,0 -0.109375,0.03125 -0.15625,0.203125 L 3.53125,-4.421875 c -1.578125,0.0625 -3.046875,1.375 -3.046875,2.734375 0,0.953125 0.703125,1.734375 1.921875,1.8125 C 2.328125,0.421875 2.25,0.75 2.171875,1.0625 c -0.125,0.46875 -0.21875,0.84375 -0.21875,0.875 0,0.09375 0.078125,0.109375 0.125,0.109375 C 2.125,2.046875 2.140625,2.03125 2.171875,2 2.1875,1.984375 2.25,1.75 2.28125,1.609375 L 2.65625,0.125 c 1.609375,-0.0625 3.0625,-1.40625 3.0625,-2.734375 0,-0.796875 -0.53125,-1.703125 -1.921875,-1.8125 z m -1.90625,6.578125 c -0.59375,-0.03125 -1.3125,-0.390625 -1.3125,-1.375 0,-1.203125 0.859375,-2.59375 2.34375,-2.734375 z m 1.28125,-4.109375 c 0.765625,0.046875 1.328125,0.5 1.328125,1.375 0,1.1875 -0.859375,2.609375 -2.34375,2.734375 z m 0,0"
             transform="translate(148.712,134.765)"
             id="path5715" />
        </g>
        <g
           style="fill:#000000;fill-opacity:1"
           id="g5721">
          <path
             inkscape:connector-curvature="0"
             style="fill:#000000;fill-opacity:1;stroke:none;stroke-width:0"
             d="m 1.90625,-2.328125 c 0.546875,0 0.9375,0.375 0.9375,1.125 0,0.859375 -0.515625,1.125 -0.90625,1.125 -0.28125,0 -0.90625,-0.078125 -1.1875,-0.5 0.328125,0 0.40625,-0.234375 0.40625,-0.390625 0,-0.21875 -0.171875,-0.375 -0.390625,-0.375 -0.1875,0 -0.390625,0.125 -0.390625,0.40625 0,0.65625 0.71875,1.078125 1.5625,1.078125 0.96875,0 1.640625,-0.65625 1.640625,-1.34375 0,-0.546875 -0.4375,-1.09375 -1.203125,-1.25 0.71875,-0.265625 0.984375,-0.78125 0.984375,-1.21875 0,-0.546875 -0.625,-0.953125 -1.40625,-0.953125 -0.765625,0 -1.359375,0.375 -1.359375,0.9375 0,0.234375 0.15625,0.359375 0.359375,0.359375 0.21875,0 0.359375,-0.15625 0.359375,-0.34375 0,-0.203125 -0.140625,-0.359375 -0.359375,-0.375 0.25,-0.296875 0.71875,-0.375 0.984375,-0.375 0.3125,0 0.75,0.15625 0.75,0.75 0,0.296875 -0.09375,0.625 -0.28125,0.828125 -0.21875,0.265625 -0.421875,0.28125 -0.765625,0.3125 -0.171875,0.015625 -0.1875,0.015625 -0.21875,0.015625 -0.015625,0 -0.078125,0.015625 -0.078125,0.09375 0,0.09375 0.0625,0.09375 0.1875,0.09375 z m 0,0"
             transform="translate(154.648,136.259)"
             id="path5719" />
        </g>
        <g
           style="fill:#000000;fill-opacity:1"
           id="g5725">
          <path
             inkscape:connector-curvature="0"
             style="fill:#000000;fill-opacity:1;stroke:none;stroke-width:0"
             d="m 4.078125,-2.296875 h 2.78125 C 7,-2.296875 7.1875,-2.296875 7.1875,-2.5 7.1875,-2.6875 7,-2.6875 6.859375,-2.6875 h -2.78125 v -2.796875 c 0,-0.140625 0,-0.328125 -0.203125,-0.328125 -0.203125,0 -0.203125,0.1875 -0.203125,0.328125 V -2.6875 h -2.78125 c -0.140625,0 -0.328125,0 -0.328125,0.1875 0,0.203125 0.1875,0.203125 0.328125,0.203125 h 2.78125 V 0.5 c 0,0.140625 0,0.328125 0.203125,0.328125 0.203125,0 0.203125,-0.1875 0.203125,-0.328125 z m 0,0"
             transform="translate(161.332,134.765)"
             id="path5723" />
        </g>
        <g
           style="fill:#000000;fill-opacity:1"
           id="g5731">
          <path
             inkscape:connector-curvature="0"
             style="fill:#000000;fill-opacity:1;stroke:none;stroke-width:0"
             d="m 2.9375,-1.640625 v 0.859375 c 0,0.359375 -0.03125,0.46875 -0.765625,0.46875 H 1.96875 V 0 C 2.375,-0.03125 2.890625,-0.03125 3.3125,-0.03125 c 0.421875,0 0.9375,0 1.359375,0.03125 v -0.3125 h -0.21875 c -0.734375,0 -0.75,-0.109375 -0.75,-0.46875 V -1.640625 H 4.6875 v -0.3125 H 3.703125 v -4.53125 c 0,-0.203125 0,-0.265625 -0.171875,-0.265625 -0.078125,0 -0.109375,0 -0.1875,0.125 l -3.0625,4.671875 v 0.3125 z m 0.046875,-0.3125 H 0.5625 l 2.421875,-3.71875 z m 0,0"
             transform="translate(171.29261,134.765)"
             id="path5727" />
          <path
             inkscape:connector-curvature="0"
             style="fill:#000000;fill-opacity:1;stroke:none;stroke-width:0"
             d="m 4.578125,-3.1875 c 0,-0.796875 -0.046875,-1.59375 -0.390625,-2.328125 -0.453125,-0.96875 -1.28125,-1.125 -1.6875,-1.125 -0.609375,0 -1.328125,0.265625 -1.75,1.1875 -0.3125,0.6875 -0.359375,1.46875 -0.359375,2.265625 0,0.75 0.03125,1.640625 0.453125,2.40625 0.421875,0.796875 1.15625,1 1.640625,1 0.53125,0 1.296875,-0.203125 1.734375,-1.15625 0.3125,-0.6875 0.359375,-1.46875 0.359375,-2.25 z M 2.484375,0 C 2.09375,0 1.5,-0.25 1.328125,-1.203125 1.21875,-1.796875 1.21875,-2.71875 1.21875,-3.3125 c 0,-0.640625 0,-1.296875 0.078125,-1.828125 0.1875,-1.1875 0.9375,-1.28125 1.1875,-1.28125 0.328125,0 0.984375,0.1875 1.171875,1.171875 0.109375,0.5625 0.109375,1.3125 0.109375,1.9375 0,0.75 0,1.421875 -0.109375,2.0625 C 3.5,-0.296875 2.9375,0 2.484375,0 Z m 0,0"
             transform="translate(176.27391,134.765)"
             id="path5729" />
        </g>
        <g
           style="fill:#000000;fill-opacity:1"
           id="g5735">
          <path
             inkscape:connector-curvature="0"
             style="fill:#000000;fill-opacity:1;stroke:none;stroke-width:0"
             d="m 3.53125,-1.734375 c 0,-0.84375 -0.671875,-1.5 -1.5,-1.5 -0.828125,0 -1.5,0.671875 -1.5,1.484375 0,0.84375 0.6875,1.5 1.5,1.5 0.84375,0 1.5,-0.671875 1.5,-1.484375 z m -1.5,1.140625 C 1.375,-0.59375 0.875,-1.125 0.875,-1.734375 c 0,-0.65625 0.515625,-1.171875 1.15625,-1.171875 0.65625,0 1.15625,0.53125 1.15625,1.15625 0,0.65625 -0.515625,1.15625 -1.15625,1.15625 z m 0,0"
             transform="translate(181.257,131.149)"
             id="path5733" />
        </g>
      </g>
    </g>
    <g
       id="g5989"
       style="fill:#000000;fill-opacity:1"
       ns1:jacobian_sqrt="0.447097"
       inkscapeversion="0.92.3"
       ns1:alignment="middle center"
       ns1:scale="1.26736122399"
       ns1:preamble="/home/karadalex/.config/inkscape/extensions/textext/default_packages.tex"
       ns1:text="$D$"
       ns1:pdfconverter="pdf2svg"
       ns1:texconverter="pdflatex"
       ns1:version="0.11.0"
       transform="matrix(0.447097,0.000000,0.000000,0.447097,47.667303,-2.028465)"
       inkscape:export-xdpi="400"
       inkscape:export-ydpi="400">
      <g
         style="fill:#000000;fill-opacity:1"
         id="g5987">
        <g
           id="g5985"
           style="fill-opacity:1;fill:#000000">
          <path
             id="path5983"
             transform="translate(148.712,134.765)"
             d="M 1.578125 -0.78125 C 1.484375 -0.390625 1.46875 -0.3125 0.671875 -0.3125 C 0.515625 -0.3125 0.40625 -0.3125 0.40625 -0.125 C 0.40625 0 0.484375 0 0.671875 0 L 3.984375 0 C 6.046875 0 8.015625 -2.109375 8.015625 -4.28125 C 8.015625 -5.6875 7.171875 -6.8125 5.671875 -6.8125 L 2.328125 -6.8125 C 2.140625 -6.8125 2.03125 -6.8125 2.03125 -6.625 C 2.03125 -6.5 2.109375 -6.5 2.3125 -6.5 C 2.4375 -6.5 2.625 -6.484375 2.734375 -6.484375 C 2.90625 -6.453125 2.953125 -6.4375 2.953125 -6.3125 C 2.953125 -6.28125 2.953125 -6.25 2.921875 -6.125 Z M 3.734375 -6.125 C 3.828125 -6.46875 3.84375 -6.5 4.28125 -6.5 L 5.34375 -6.5 C 6.3125 -6.5 7.140625 -5.96875 7.140625 -4.65625 C 7.140625 -4.171875 6.953125 -2.53125 6.09375 -1.4375 C 5.8125 -1.0625 5.03125 -0.3125 3.796875 -0.3125 L 2.671875 -0.3125 C 2.53125 -0.3125 2.515625 -0.3125 2.453125 -0.3125 C 2.359375 -0.328125 2.328125 -0.34375 2.328125 -0.421875 C 2.328125 -0.453125 2.328125 -0.46875 2.375 -0.640625 Z M 3.734375 -6.125 "
             style="fill-opacity:1;stroke:none;stroke-width:0;fill:#000000" />
        </g>
      </g>
    </g>
  </g>
</svg>
