<?xml version="1.0" encoding="UTF-8" standalone="no"?>
<svg width="275.167mm" height="25.4mm"
 xmlns="http://www.w3.org/2000/svg" xmlns:xlink="http://www.w3.org/1999/xlink"  version="1.2" baseProfile="tiny">
<title>Qt SVG Document</title>
<desc>Generated with Qt</desc>
<defs>
</defs>
<g fill="none" stroke="black" stroke-width="1" fill-rule="evenodd" stroke-linecap="square" stroke-linejoin="bevel" >

<g fill="none" stroke="#000000" stroke-opacity="1" stroke-width="1" stroke-linecap="square" stroke-linejoin="bevel" transform="matrix(1,0,0,1,0,0)"
font-family="Ubuntu" font-size="11" font-weight="400" font-style="normal" 
>
</g>

<g fill="none" stroke="#000000" stroke-opacity="1" stroke-width="1" stroke-linecap="square" stroke-linejoin="bevel" transform="matrix(1,0,0,1,0,0)"
font-family="Ubuntu" font-size="11" font-weight="400" font-style="normal" 
>
</g>

<g fill="none" stroke="#000000" stroke-opacity="1" stroke-width="1" stroke-linecap="square" stroke-linejoin="bevel" transform="matrix(1.99908,0,0,1.99908,0.000799632,71.9669)"
font-family="Ubuntu" font-size="11" font-weight="400" font-style="normal" 
>
</g>

<g fill="#ffffff" fill-opacity="1" stroke="none" transform="matrix(1.99908,0,0,1.99908,0.000799632,71.9669)"
font-family="Ubuntu" font-size="11" font-weight="400" font-style="normal" 
>
<rect x="-0.0004" y="-36" width="390.18" height="36"/>
</g>

<g fill="none" stroke="#000000" stroke-opacity="1" stroke-width="1" stroke-linecap="square" stroke-linejoin="bevel" transform="matrix(1.99908,0,0,1.99908,0.000799632,71.9669)"
font-family="Ubuntu" font-size="11" font-weight="400" font-style="normal" 
>
</g>

<g fill="none" stroke="#000000" stroke-opacity="1" stroke-width="1" stroke-linecap="square" stroke-linejoin="bevel" transform="matrix(1.99908,0,0,1.99908,0.000799632,71.9669)"
font-family="Ubuntu" font-size="11" font-weight="400" font-style="normal" 
>
</g>

<g fill="none" stroke="#000000" stroke-opacity="1" stroke-width="1" stroke-linecap="square" stroke-linejoin="bevel" transform="matrix(1.99908,0,0,1.99908,0.000799632,71.9669)"
font-family="Ubuntu" font-size="11" font-weight="400" font-style="normal" 
>
</g>

<g fill="none" stroke="#000000" stroke-opacity="1" stroke-width="1" stroke-linecap="square" stroke-linejoin="bevel" transform="matrix(1.99908,0,0,1.99908,0.000799632,71.9669)"
font-family="Ubuntu" font-size="11" font-weight="400" font-style="normal" 
>
</g>

<g fill="none" stroke="#000000" stroke-opacity="1" stroke-width="1" stroke-linecap="square" stroke-linejoin="round" transform="matrix(1.99908,0,0,1.99908,0.000799632,71.9669)"
font-family="Ubuntu" font-size="11" font-weight="400" font-style="normal" 
>
<ellipse cx="183.09" cy="-18" rx="86.5912" ry="17.5"/>
</g>

<g fill="none" stroke="#000000" stroke-opacity="1" stroke-width="1" stroke-linecap="square" stroke-linejoin="bevel" transform="matrix(1.99908,0,0,1.99908,0.000799632,71.9669)"
font-family="Ubuntu" font-size="11" font-weight="400" font-style="normal" 
>
</g>

<g fill="none" stroke="#000000" stroke-opacity="1" stroke-width="1" stroke-linecap="square" stroke-linejoin="bevel" transform="matrix(1.99908,0,0,1.99908,249.769,21.9899)"
font-family="Ubuntu" font-size="11" font-weight="400" font-style="normal" 
>
</g>

<g fill="none" stroke="#000000" stroke-opacity="1" stroke-width="1" stroke-linecap="square" stroke-linejoin="bevel" transform="matrix(1.99908,0,0,1.99908,249.769,21.9899)"
font-family="sans" font-size="11" font-weight="100" font-style="normal" 
>
</g>

<g fill="#000000" fill-opacity="1" stroke="#000000" stroke-opacity="1" stroke-width="1" stroke-linecap="square" stroke-linejoin="round" transform="matrix(1.99908,0,0,1.99908,249.769,21.9899)"
font-family="sans" font-size="11" font-weight="100" font-style="normal" 
>
<path vector-effect="none" fill-rule="nonzero" d="M2.96875,2.98438 L3.53125,2.98438 L0.734375,12.0156 L0.171875,12.0156 L2.96875,2.98438 M5.60938,2.98438 L6.14063,2.98438 L6.14063,6.4375 L9.8125,2.98438 L10.5313,2.98438 L6.54688,6.73438 L10.7813,11 L10.0781,11 L6.14063,7.04688 L6.14063,11 L5.60938,11 L5.60938,2.98438 M12.1406,4.98438 L12.6406,4.98438 L12.6406,11 L12.1406,11 L12.1406,4.98438 M12.1406,2.64063 L12.6406,2.64063 L12.6406,3.3125 L12.1406,3.3125 L12.1406,2.64063 M19.75,7.375 L19.75,11 L19.25,11 L19.25,7.40625 C19.25,6.625 19.125,6.07552 18.875,5.75781 C18.625,5.4401 18.2552,5.28125 17.7656,5.28125 C17.1927,5.28125 16.7083,5.45313 16.3125,5.79688 C15.8958,6.14063 15.6875,6.73958 15.6875,7.59375 L15.6875,11 L15.2031,11 L15.2031,4.98438 L15.6875,4.98438 L15.6875,6.10938 C15.8646,5.74479 16.099,5.46875 16.3906,5.28125 C16.8073,4.98958 17.2708,4.84375 17.7813,4.84375 C18.3854,4.84375 18.8646,5.04688 19.2188,5.45313 C19.5729,5.84896 19.75,6.48958 19.75,7.375 M26.8594,7.75 L26.8594,8.0625 L22.2969,8.0625 C22.2969,9.02083 22.4844,9.69792 22.8594,10.0938 C23.276,10.5208 23.8906,10.7344 24.7031,10.7344 C24.9219,10.7344 25.2083,10.6875 25.5625,10.5938 C25.9167,10.5 26.2708,10.3594 26.625,10.1719 L26.625,10.6875 C26.2708,10.8438 25.9089,10.9609 25.5391,11.0391 C25.1693,11.1172 24.875,11.1563 24.6563,11.1563 C23.7292,11.1563 23.0313,10.9063 22.5625,10.4063 C22.0521,9.875 21.7969,9.09375 21.7969,8.0625 C21.7969,6.98958 22.026,6.1875 22.4844,5.65625 C22.9635,5.11458 23.6302,4.84375 24.4844,4.84375 C25.2656,4.84375 25.8594,5.10417 26.2656,5.625 C26.6615,6.16667 26.8594,6.875 26.8594,7.75 M26.3594,7.64063 C26.3594,6.79688 26.1667,6.18229 25.7813,5.79688 C25.4688,5.45313 25.0365,5.28125 24.4844,5.28125 C23.8906,5.28125 23.3906,5.45833 22.9844,5.8125 C22.6094,6.14583 22.3854,6.75521 22.3125,7.64063 L26.3594,7.64063 M33.2656,6.29688 C33.4531,5.80729 33.7448,5.44271 34.1406,5.20313 C34.526,4.96354 34.9792,4.84375 35.5,4.84375 C36.0208,4.84375 36.4375,5.02604 36.75,5.39063 C37.0729,5.75521 37.2344,6.41667 37.2344,7.375 L37.2344,11 L36.75,11 L36.75,7.40625 C36.75,6.57292 36.6354,6.01042 36.4063,5.71875 C36.1771,5.42708 35.8698,5.28125 35.4844,5.28125 C34.9323,5.28125 34.4479,5.44792 34.0313,5.78125 C33.5625,6.15625 33.3281,6.76042 33.3281,7.59375 L33.3281,11 L32.8438,11 L32.8438,7.40625 C32.8438,6.60417 32.7318,6.04948 32.5078,5.74219 C32.2839,5.4349 31.974,5.28125 31.5781,5.28125 C31.026,5.28125 30.5417,5.45313 30.125,5.79688 C29.6563,6.16146 29.4219,6.76042 29.4219,7.59375 L29.4219,11 L28.9375,11 L28.9375,4.98438 L29.4219,4.98438 L29.4219,6.10938 C29.599,5.71354 29.875,5.40104 30.25,5.17188 C30.6146,4.95313 31.0677,4.84375 31.6094,4.84375 C31.9635,4.84375 32.3021,4.95833 32.625,5.1875 C32.875,5.375 33.0885,5.74479 33.2656,6.29688 M42.0469,7.60938 C41.2448,7.60938 40.6693,7.75 40.3203,8.03125 C39.9714,8.3125 39.7969,8.72396 39.7969,9.26563 C39.7969,9.79688 39.9427,10.1745 40.2344,10.3984 C40.526,10.6224 40.8698,10.7344 41.2656,10.7344 C42.0156,10.7344 42.5573,10.4167 42.8906,9.78125 C43.224,9.13542 43.3906,8.53125 43.3906,7.96875 L43.3906,7.60938 L42.0469,7.60938 M43.8906,7.5625 L43.8906,11 L43.3906,11 L43.3906,9.35938 C43.1198,10.1615 42.7552,10.6719 42.2969,10.8906 C41.9427,11.0677 41.5833,11.1563 41.2188,11.1563 C40.625,11.1563 40.1563,10.9948 39.8125,10.6719 C39.4688,10.349 39.2969,9.8776 39.2969,9.25781 C39.2969,8.63802 39.5208,8.14063 39.9688,7.76563 C40.4167,7.39063 41.1458,7.20313 42.1563,7.20313 L43.3906,7.20313 L43.3906,7.10938 C43.3906,6.57813 43.2344,6.14063 42.9219,5.79688 C42.6302,5.45313 42.1354,5.28125 41.4375,5.28125 C41.0938,5.28125 40.7448,5.34375 40.3906,5.46875 C40.1615,5.55208 39.8594,5.71875 39.4844,5.96875 L39.4844,5.4375 C39.8073,5.23958 40.1094,5.09896 40.3906,5.01563 C40.7865,4.90104 41.1667,4.84375 41.5313,4.84375 C42.25,4.84375 42.8385,5.05729 43.2969,5.48438 C43.6927,5.84896 43.8906,6.54167 43.8906,7.5625 M46.8906,3.28125 L46.8906,4.98438 L48.9219,4.98438 L48.9219,5.40625 L46.8906,5.40625 L46.8906,9.01563 C46.8906,9.47396 46.9479,9.79688 47.0625,9.98438 C47.3125,10.3802 47.6719,10.5781 48.1406,10.5781 L48.9219,10.5781 L48.9219,11 L48.1563,11 C47.6667,11 47.25,10.8568 46.9063,10.5703 C46.5625,10.2839 46.3906,9.76563 46.3906,9.01563 L46.3906,5.40625 L45.6719,5.40625 L45.6719,4.98438 L46.3906,4.98438 L46.3906,3.28125 L46.8906,3.28125 M50.6719,4.98438 L51.1719,4.98438 L51.1719,11 L50.6719,11 L50.6719,4.98438 M50.6719,2.64063 L51.1719,2.64063 L51.1719,3.3125 L50.6719,3.3125 L50.6719,2.64063 M57.8438,5.28125 L57.8438,5.79688 C57.5521,5.61979 57.3073,5.5 57.1094,5.4375 C56.776,5.33333 56.4583,5.28125 56.1563,5.28125 C55.2917,5.28125 54.6719,5.5026 54.2969,5.94531 C53.9219,6.38802 53.7344,7.07292 53.7344,8 C53.7344,8.9375 53.9219,9.6276 54.2969,10.0703 C54.6719,10.513 55.2917,10.7344 56.1563,10.7344 C56.4479,10.7344 56.7292,10.6927 57,10.6094 C57.2917,10.5365 57.5729,10.4219 57.8438,10.2656 L57.8438,10.7656 C57.5729,10.901 57.2917,11 57,11.0625 C56.6979,11.125 56.401,11.1563 56.1094,11.1563 C55.2344,11.1563 54.5365,10.9167 54.0156,10.4375 C53.4948,9.95833 53.2344,9.14323 53.2344,7.99219 C53.2344,6.84115 53.4948,6.02604 54.0156,5.54688 C54.5365,5.07813 55.2344,4.84375 56.1094,4.84375 C56.401,4.84375 56.7083,4.88542 57.0313,4.96875 C57.3542,5.04167 57.625,5.14583 57.8438,5.28125 M64.3594,3.39063 L64.3594,3.89063 C64.0052,3.71354 63.6146,3.55729 63.1875,3.42188 C62.9063,3.32813 62.5521,3.28125 62.125,3.28125 C61.5,3.27083 60.9896,3.40625 60.5938,3.6875 C60.2396,3.95833 60.0625,4.41667 60.0625,5.0625 C60.0625,5.45833 60.1979,5.77083 60.4688,6 C60.7604,6.25 61.1979,6.44792 61.7813,6.59375 L62.4219,6.76563 C62.9948,6.92188 63.4323,7.09896 63.7344,7.29688 C64.3177,7.70313 64.6094,8.20313 64.6094,8.79688 C64.6094,9.67188 64.3542,10.276 63.8438,10.6094 C63.2917,10.974 62.7188,11.1563 62.125,11.1563 C61.5208,11.1563 60.974,11.0729 60.4844,10.9063 C60.1823,10.7813 59.8646,10.6094 59.5313,10.3906 L59.5313,9.875 C60.0313,10.1667 60.3802,10.3542 60.5781,10.4375 C61.026,10.625 61.4427,10.7188 61.8281,10.7188 C62.4844,10.7188 63.0313,10.5729 63.4688,10.2813 C63.875,10.0104 64.0781,9.53125 64.0781,8.84375 C64.0781,8.44792 63.9531,8.13542 63.7031,7.90625 C63.3385,7.57292 62.8698,7.33333 62.2969,7.1875 L61.6406,7.03125 C61.1302,6.90625 60.6927,6.73438 60.3281,6.51563 C59.7865,6.17188 59.5156,5.70313 59.5156,5.10938 C59.5156,4.35938 59.7396,3.78646 60.1875,3.39063 C60.5938,3.02604 61.224,2.83854 62.0781,2.82813 C62.5677,2.82813 62.9479,2.875 63.2188,2.96875 C63.8958,3.1875 64.276,3.32813 64.3594,3.39063 M67.2656,3.28125 L67.2656,4.98438 L69.2969,4.98438 L69.2969,5.40625 L67.2656,5.40625 L67.2656,9.01563 C67.2656,9.47396 67.3229,9.79688 67.4375,9.98438 C67.6875,10.3802 68.0469,10.5781 68.5156,10.5781 L69.2969,10.5781 L69.2969,11 L68.5313,11 C68.0417,11 67.625,10.8568 67.2813,10.5703 C66.9375,10.2839 66.7656,9.76563 66.7656,9.01563 L66.7656,5.40625 L66.0469,5.40625 L66.0469,4.98438 L66.7656,4.98438 L66.7656,3.28125 L67.2656,3.28125 M73.4688,7.60938 C72.6667,7.60938 72.0911,7.75 71.7422,8.03125 C71.3932,8.3125 71.2188,8.72396 71.2188,9.26563 C71.2188,9.79688 71.3646,10.1745 71.6563,10.3984 C71.9479,10.6224 72.2917,10.7344 72.6875,10.7344 C73.4375,10.7344 73.9792,10.4167 74.3125,9.78125 C74.6458,9.13542 74.8125,8.53125 74.8125,7.96875 L74.8125,7.60938 L73.4688,7.60938 M75.3125,7.5625 L75.3125,11 L74.8125,11 L74.8125,9.35938 C74.5417,10.1615 74.1771,10.6719 73.7188,10.8906 C73.3646,11.0677 73.0052,11.1563 72.6406,11.1563 C72.0469,11.1563 71.5781,10.9948 71.2344,10.6719 C70.8906,10.349 70.7188,9.8776 70.7188,9.25781 C70.7188,8.63802 70.9427,8.14063 71.3906,7.76563 C71.8385,7.39063 72.5677,7.20313 73.5781,7.20313 L74.8125,7.20313 L74.8125,7.10938 C74.8125,6.57813 74.6563,6.14063 74.3438,5.79688 C74.0521,5.45313 73.5573,5.28125 72.8594,5.28125 C72.5156,5.28125 72.1667,5.34375 71.8125,5.46875 C71.5833,5.55208 71.2813,5.71875 70.9063,5.96875 L70.9063,5.4375 C71.2292,5.23958 71.5313,5.09896 71.8125,5.01563 C72.2083,4.90104 72.5885,4.84375 72.9531,4.84375 C73.6719,4.84375 74.2604,5.05729 74.7188,5.48438 C75.1146,5.84896 75.3125,6.54167 75.3125,7.5625 M78.3125,3.28125 L78.3125,4.98438 L80.3438,4.98438 L80.3438,5.40625 L78.3125,5.40625 L78.3125,9.01563 C78.3125,9.47396 78.3698,9.79688 78.4844,9.98438 C78.7344,10.3802 79.0938,10.5781 79.5625,10.5781 L80.3438,10.5781 L80.3438,11 L79.5781,11 C79.0885,11 78.6719,10.8568 78.3281,10.5703 C77.9844,10.2839 77.8125,9.76563 77.8125,9.01563 L77.8125,5.40625 L77.0938,5.40625 L77.0938,4.98438 L77.8125,4.98438 L77.8125,3.28125 L78.3125,3.28125 M86.7969,7.75 L86.7969,8.0625 L82.2344,8.0625 C82.2344,9.02083 82.4219,9.69792 82.7969,10.0938 C83.2135,10.5208 83.8281,10.7344 84.6406,10.7344 C84.8594,10.7344 85.1458,10.6875 85.5,10.5938 C85.8542,10.5 86.2083,10.3594 86.5625,10.1719 L86.5625,10.6875 C86.2083,10.8438 85.8464,10.9609 85.4766,11.0391 C85.1068,11.1172 84.8125,11.1563 84.5938,11.1563 C83.6667,11.1563 82.9688,10.9063 82.5,10.4063 C81.9896,9.875 81.7344,9.09375 81.7344,8.0625 C81.7344,6.98958 81.9635,6.1875 82.4219,5.65625 C82.901,5.11458 83.5677,4.84375 84.4219,4.84375 C85.2031,4.84375 85.7969,5.10417 86.2031,5.625 C86.599,6.16667 86.7969,6.875 86.7969,7.75 M86.2969,7.64063 C86.2969,6.79688 86.1042,6.18229 85.7188,5.79688 C85.4063,5.45313 84.974,5.28125 84.4219,5.28125 C83.8281,5.28125 83.3281,5.45833 82.9219,5.8125 C82.5469,6.14583 82.3229,6.75521 82.25,7.64063 L86.2969,7.64063 M88.9531,2.98438 L89.75,2.98438 L93.6406,10.3125 L93.6406,2.98438 L94.1719,2.98438 L94.1719,11 L93.4219,11 L89.5,3.625 L89.5,11 L88.9531,11 L88.9531,2.98438 M100.672,6.01563 C100.318,5.52604 99.8333,5.28125 99.2188,5.28125 C98.6042,5.28125 98.1198,5.52604 97.7656,6.01563 C97.4115,6.49479 97.2344,7.15104 97.2344,7.98438 C97.2344,8.83854 97.4115,9.51042 97.7656,10 C98.1198,10.4896 98.6042,10.7344 99.2188,10.7344 C99.8333,10.7344 100.318,10.4896 100.672,10 C101.026,9.5 101.203,8.82813 101.203,7.98438 C101.203,7.16146 101.026,6.50521 100.672,6.01563 M99.2188,4.84375 C99.9792,4.84375 100.583,5.13021 101.031,5.70313 C101.479,6.27604 101.703,7.03646 101.703,7.98438 C101.703,8.97396 101.479,9.75521 101.031,10.3281 C100.583,10.901 99.9792,11.1875 99.2188,11.1875 C98.4375,11.1875 97.8229,10.901 97.375,10.3281 C96.9375,9.75521 96.7188,8.97396 96.7188,7.98438 C96.7188,7.02604 96.9427,6.26302 97.3906,5.69531 C97.8385,5.1276 98.4479,4.84375 99.2188,4.84375 M107.813,6.35938 L107.813,2.64063 L108.281,2.64063 L108.281,11 L107.813,11 L107.813,9.64063 C107.583,10.1615 107.333,10.5156 107.063,10.7031 C106.667,11.0052 106.286,11.1563 105.922,11.1563 C105.214,11.1563 104.622,10.8672 104.148,10.2891 C103.674,9.71094 103.438,8.94792 103.438,8 C103.438,7.05208 103.674,6.28906 104.148,5.71094 C104.622,5.13281 105.214,4.84375 105.922,4.84375 C106.286,4.84375 106.667,4.98958 107.063,5.28125 C107.333,5.47917 107.583,5.83854 107.813,6.35938 M104.578,5.90625 C104.161,6.32292 103.953,7.02083 103.953,8 C103.953,8.97917 104.161,9.67708 104.578,10.0938 C104.995,10.5104 105.432,10.7188 105.891,10.7188 C106.339,10.7188 106.771,10.5104 107.188,10.0938 C107.594,9.67708 107.797,8.97917 107.797,8 C107.797,7.02083 107.594,6.32292 107.188,5.90625 C106.771,5.48958 106.339,5.28125 105.891,5.28125 C105.432,5.28125 104.995,5.48958 104.578,5.90625 M115.469,7.75 L115.469,8.0625 L110.906,8.0625 C110.906,9.02083 111.094,9.69792 111.469,10.0938 C111.885,10.5208 112.5,10.7344 113.313,10.7344 C113.531,10.7344 113.818,10.6875 114.172,10.5938 C114.526,10.5 114.88,10.3594 115.234,10.1719 L115.234,10.6875 C114.88,10.8438 114.518,10.9609 114.148,11.0391 C113.779,11.1172 113.484,11.1563 113.266,11.1563 C112.339,11.1563 111.641,10.9063 111.172,10.4063 C110.661,9.875 110.406,9.09375 110.406,8.0625 C110.406,6.98958 110.635,6.1875 111.094,5.65625 C111.573,5.11458 112.24,4.84375 113.094,4.84375 C113.875,4.84375 114.469,5.10417 114.875,5.625 C115.271,6.16667 115.469,6.875 115.469,7.75 M114.969,7.64063 C114.969,6.79688 114.776,6.18229 114.391,5.79688 C114.078,5.45313 113.646,5.28125 113.094,5.28125 C112.5,5.28125 112,5.45833 111.594,5.8125 C111.219,6.14583 110.995,6.75521 110.922,7.64063 L114.969,7.64063"/>
</g>

<g fill="none" stroke="#000000" stroke-opacity="1" stroke-width="1" stroke-linecap="square" stroke-linejoin="bevel" transform="matrix(1.99908,0,0,1.99908,249.769,21.9899)"
font-family="sans" font-size="11" font-weight="100" font-style="normal" 
>
</g>

<g fill="none" stroke="#000000" stroke-opacity="1" stroke-width="1" stroke-linecap="square" stroke-linejoin="bevel" transform="matrix(1.99908,0,0,1.99908,249.769,21.9899)"
font-family="Ubuntu" font-size="11" font-weight="400" font-style="normal" 
>
</g>

<g fill="none" stroke="#000000" stroke-opacity="1" stroke-width="1" stroke-linecap="square" stroke-linejoin="bevel" transform="matrix(1.99908,0,0,1.99908,0.000799632,71.9669)"
font-family="Ubuntu" font-size="11" font-weight="400" font-style="normal" 
>
</g>

<g fill="none" stroke="#000000" stroke-opacity="1" stroke-width="1" stroke-linecap="square" stroke-linejoin="bevel" transform="matrix(1.99908,0,0,1.99908,0.000799632,71.9669)"
font-family="Ubuntu" font-size="11" font-weight="400" font-style="normal" 
>
</g>

<g fill="none" stroke="#000000" stroke-opacity="1" stroke-width="1" stroke-linecap="square" stroke-linejoin="bevel" transform="matrix(1.99908,0,0,1.99908,0.000799632,71.9669)"
font-family="Ubuntu" font-size="11" font-weight="400" font-style="normal" 
>
</g>

<g fill="none" stroke="#000000" stroke-opacity="1" stroke-width="1" stroke-linecap="square" stroke-linejoin="round" transform="matrix(1.99908,0,0,1.99908,0.000799632,71.9669)"
font-family="Ubuntu" font-size="11" font-weight="400" font-style="normal" 
>
<rect x="0.4996" y="-35.5" width="81.0008" height="35"/>
</g>

<g fill="none" stroke="#000000" stroke-opacity="1" stroke-width="1" stroke-linecap="square" stroke-linejoin="bevel" transform="matrix(1.99908,0,0,1.99908,0.000799632,71.9669)"
font-family="Ubuntu" font-size="11" font-weight="400" font-style="normal" 
>
</g>

<g fill="none" stroke="#000000" stroke-opacity="1" stroke-width="1" stroke-linecap="square" stroke-linejoin="bevel" transform="matrix(1.99908,0,0,1.99908,15.1345,21.9899)"
font-family="Ubuntu" font-size="11" font-weight="400" font-style="normal" 
>
</g>

<g fill="none" stroke="#000000" stroke-opacity="1" stroke-width="1" stroke-linecap="square" stroke-linejoin="bevel" transform="matrix(1.99908,0,0,1.99908,15.1345,21.9899)"
font-family="sans" font-size="11" font-weight="100" font-style="normal" 
>
</g>

<g fill="#000000" fill-opacity="1" stroke="#000000" stroke-opacity="1" stroke-width="1" stroke-linecap="square" stroke-linejoin="round" transform="matrix(1.99908,0,0,1.99908,15.1345,21.9899)"
font-family="sans" font-size="11" font-weight="100" font-style="normal" 
>
<path vector-effect="none" fill-rule="nonzero" d="M2.96875,2.98438 L3.53125,2.98438 L0.734375,12.0156 L0.171875,12.0156 L2.96875,2.98438 M4.98438,4.98438 L5.48438,4.98438 L5.48438,11.1094 C5.48438,11.9219 5.35938,12.4896 5.10938,12.8125 C4.85938,13.125 4.44792,13.2813 3.875,13.2813 L3.5,13.2813 L3.5,12.875 L3.76563,12.875 C4.17188,12.875 4.47917,12.7813 4.6875,12.5938 C4.88542,12.4167 4.98438,11.9219 4.98438,11.1094 L4.98438,4.98438 M4.98438,2.64063 L5.48438,2.64063 L5.48438,3.3125 L4.98438,3.3125 L4.98438,2.64063 M11.5781,6.01563 C11.224,5.52604 10.7396,5.28125 10.125,5.28125 C9.51042,5.28125 9.02604,5.52604 8.67188,6.01563 C8.31771,6.49479 8.14063,7.15104 8.14063,7.98438 C8.14063,8.83854 8.31771,9.51042 8.67188,10 C9.02604,10.4896 9.51042,10.7344 10.125,10.7344 C10.7396,10.7344 11.224,10.4896 11.5781,10 C11.9323,9.5 12.1094,8.82813 12.1094,7.98438 C12.1094,7.16146 11.9323,6.50521 11.5781,6.01563 M10.125,4.84375 C10.8854,4.84375 11.4896,5.13021 11.9375,5.70313 C12.3854,6.27604 12.6094,7.03646 12.6094,7.98438 C12.6094,8.97396 12.3854,9.75521 11.9375,10.3281 C11.4896,10.901 10.8854,11.1875 10.125,11.1875 C9.34375,11.1875 8.72917,10.901 8.28125,10.3281 C7.84375,9.75521 7.625,8.97396 7.625,7.98438 C7.625,7.02604 7.84896,6.26302 8.29688,5.69531 C8.74479,5.1276 9.35417,4.84375 10.125,4.84375 M14.7031,4.98438 L15.2031,4.98438 L15.2031,11 L14.7031,11 L14.7031,4.98438 M14.7031,2.64063 L15.2031,2.64063 L15.2031,3.3125 L14.7031,3.3125 L14.7031,2.64063 M22.3125,7.375 L22.3125,11 L21.8125,11 L21.8125,7.40625 C21.8125,6.625 21.6875,6.07552 21.4375,5.75781 C21.1875,5.4401 20.8177,5.28125 20.3281,5.28125 C19.7552,5.28125 19.2708,5.45313 18.875,5.79688 C18.4583,6.14063 18.25,6.73958 18.25,7.59375 L18.25,11 L17.7656,11 L17.7656,4.98438 L18.25,4.98438 L18.25,6.10938 C18.4271,5.74479 18.6615,5.46875 18.9531,5.28125 C19.3698,4.98958 19.8333,4.84375 20.3438,4.84375 C20.9479,4.84375 21.4271,5.04688 21.7813,5.45313 C22.1354,5.84896 22.3125,6.48958 22.3125,7.375 M25.25,3.28125 L25.25,4.98438 L27.2813,4.98438 L27.2813,5.40625 L25.25,5.40625 L25.25,9.01563 C25.25,9.47396 25.3073,9.79688 25.4219,9.98438 C25.6719,10.3802 26.0313,10.5781 26.5,10.5781 L27.2813,10.5781 L27.2813,11 L26.5156,11 C26.026,11 25.6094,10.8568 25.2656,10.5703 C24.9219,10.2839 24.75,9.76563 24.75,9.01563 L24.75,5.40625 L24.0313,5.40625 L24.0313,4.98438 L24.75,4.98438 L24.75,3.28125 L25.25,3.28125 M33.4063,13.1719 L33.4063,13.5938 L27.6875,13.5938 L27.6875,13.1719 L33.4063,13.1719 M37.9531,5.15625 L37.9531,5.70313 C37.599,5.50521 37.3802,5.39583 37.2969,5.375 C37.0469,5.32292 36.7344,5.29167 36.3594,5.28125 C35.7969,5.28125 35.3542,5.39063 35.0313,5.60938 C34.7813,5.79688 34.6563,6.11458 34.6563,6.5625 C34.6563,6.875 34.776,7.11458 35.0156,7.28125 C35.2552,7.46875 35.6042,7.61458 36.0625,7.71875 L36.4063,7.78125 C36.9792,7.90625 37.4115,8.08333 37.7031,8.3125 C38.0469,8.58333 38.224,8.92708 38.2344,9.34375 C38.2344,9.90625 38.0677,10.349 37.7344,10.6719 C37.3802,10.9948 36.8021,11.1563 36,11.1563 C35.5625,11.1563 35.2292,11.125 35,11.0625 C34.7188,10.9896 34.4271,10.8958 34.125,10.7813 L34.125,10.1563 C34.5625,10.4063 34.8438,10.5521 34.9688,10.5938 C35.3229,10.6875 35.6771,10.7344 36.0313,10.7344 C36.6042,10.7344 37.0313,10.6146 37.3125,10.375 C37.5938,10.125 37.7344,9.80729 37.7344,9.42188 C37.7344,9.08854 37.6406,8.84896 37.4531,8.70313 C37.1823,8.48438 36.7552,8.30729 36.1719,8.17188 L35.8281,8.09375 C35.3177,7.96875 34.9323,7.80208 34.6719,7.59375 C34.3385,7.32292 34.1719,6.99479 34.1719,6.60938 C34.1719,5.98438 34.3724,5.53385 34.7734,5.25781 C35.1745,4.98177 35.6667,4.84375 36.25,4.84375 C36.75,4.84375 37.0938,4.86979 37.2813,4.92188 C37.5104,4.98438 37.7344,5.0625 37.9531,5.15625 M40.7813,3.28125 L40.7813,4.98438 L42.8125,4.98438 L42.8125,5.40625 L40.7813,5.40625 L40.7813,9.01563 C40.7813,9.47396 40.8385,9.79688 40.9531,9.98438 C41.2031,10.3802 41.5625,10.5781 42.0313,10.5781 L42.8125,10.5781 L42.8125,11 L42.0469,11 C41.5573,11 41.1406,10.8568 40.7969,10.5703 C40.4531,10.2839 40.2813,9.76563 40.2813,9.01563 L40.2813,5.40625 L39.5625,5.40625 L39.5625,4.98438 L40.2813,4.98438 L40.2813,3.28125 L40.7813,3.28125 M46.9844,7.60938 C46.1823,7.60938 45.6068,7.75 45.2578,8.03125 C44.9089,8.3125 44.7344,8.72396 44.7344,9.26563 C44.7344,9.79688 44.8802,10.1745 45.1719,10.3984 C45.4635,10.6224 45.8073,10.7344 46.2031,10.7344 C46.9531,10.7344 47.4948,10.4167 47.8281,9.78125 C48.1615,9.13542 48.3281,8.53125 48.3281,7.96875 L48.3281,7.60938 L46.9844,7.60938 M48.8281,7.5625 L48.8281,11 L48.3281,11 L48.3281,9.35938 C48.0573,10.1615 47.6927,10.6719 47.2344,10.8906 C46.8802,11.0677 46.5208,11.1563 46.1563,11.1563 C45.5625,11.1563 45.0938,10.9948 44.75,10.6719 C44.4063,10.349 44.2344,9.8776 44.2344,9.25781 C44.2344,8.63802 44.4583,8.14063 44.9063,7.76563 C45.3542,7.39063 46.0833,7.20313 47.0938,7.20313 L48.3281,7.20313 L48.3281,7.10938 C48.3281,6.57813 48.1719,6.14063 47.8594,5.79688 C47.5677,5.45313 47.0729,5.28125 46.375,5.28125 C46.0313,5.28125 45.6823,5.34375 45.3281,5.46875 C45.099,5.55208 44.7969,5.71875 44.4219,5.96875 L44.4219,5.4375 C44.7448,5.23958 45.0469,5.09896 45.3281,5.01563 C45.724,4.90104 46.1042,4.84375 46.4688,4.84375 C47.1875,4.84375 47.776,5.05729 48.2344,5.48438 C48.6302,5.84896 48.8281,6.54167 48.8281,7.5625 M51.8281,3.28125 L51.8281,4.98438 L53.8594,4.98438 L53.8594,5.40625 L51.8281,5.40625 L51.8281,9.01563 C51.8281,9.47396 51.8854,9.79688 52,9.98438 C52.25,10.3802 52.6094,10.5781 53.0781,10.5781 L53.8594,10.5781 L53.8594,11 L53.0938,11 C52.6042,11 52.1875,10.8568 51.8438,10.5703 C51.5,10.2839 51.3281,9.76563 51.3281,9.01563 L51.3281,5.40625 L50.6094,5.40625 L50.6094,4.98438 L51.3281,4.98438 L51.3281,3.28125 L51.8281,3.28125 M60.3125,7.75 L60.3125,8.0625 L55.75,8.0625 C55.75,9.02083 55.9375,9.69792 56.3125,10.0938 C56.7292,10.5208 57.3438,10.7344 58.1563,10.7344 C58.375,10.7344 58.6615,10.6875 59.0156,10.5938 C59.3698,10.5 59.724,10.3594 60.0781,10.1719 L60.0781,10.6875 C59.724,10.8438 59.362,10.9609 58.9922,11.0391 C58.6224,11.1172 58.3281,11.1563 58.1094,11.1563 C57.1823,11.1563 56.4844,10.9063 56.0156,10.4063 C55.5052,9.875 55.25,9.09375 55.25,8.0625 C55.25,6.98958 55.4792,6.1875 55.9375,5.65625 C56.4167,5.11458 57.0833,4.84375 57.9375,4.84375 C58.7188,4.84375 59.3125,5.10417 59.7188,5.625 C60.1146,6.16667 60.3125,6.875 60.3125,7.75 M59.8125,7.64063 C59.8125,6.79688 59.6198,6.18229 59.2344,5.79688 C58.9219,5.45313 58.4896,5.28125 57.9375,5.28125 C57.3438,5.28125 56.8438,5.45833 56.4375,5.8125 C56.0625,6.14583 55.8385,6.75521 55.7656,7.64063 L59.8125,7.64063 M65.7969,5.15625 L65.7969,5.70313 C65.4427,5.50521 65.224,5.39583 65.1406,5.375 C64.8906,5.32292 64.5781,5.29167 64.2031,5.28125 C63.6406,5.28125 63.1979,5.39063 62.875,5.60938 C62.625,5.79688 62.5,6.11458 62.5,6.5625 C62.5,6.875 62.6198,7.11458 62.8594,7.28125 C63.099,7.46875 63.4479,7.61458 63.9063,7.71875 L64.25,7.78125 C64.8229,7.90625 65.2552,8.08333 65.5469,8.3125 C65.8906,8.58333 66.0677,8.92708 66.0781,9.34375 C66.0781,9.90625 65.9115,10.349 65.5781,10.6719 C65.224,10.9948 64.6458,11.1563 63.8438,11.1563 C63.4063,11.1563 63.0729,11.125 62.8438,11.0625 C62.5625,10.9896 62.2708,10.8958 61.9688,10.7813 L61.9688,10.1563 C62.4063,10.4063 62.6875,10.5521 62.8125,10.5938 C63.1667,10.6875 63.5208,10.7344 63.875,10.7344 C64.4479,10.7344 64.875,10.6146 65.1563,10.375 C65.4375,10.125 65.5781,9.80729 65.5781,9.42188 C65.5781,9.08854 65.4844,8.84896 65.2969,8.70313 C65.026,8.48438 64.599,8.30729 64.0156,8.17188 L63.6719,8.09375 C63.1615,7.96875 62.776,7.80208 62.5156,7.59375 C62.1823,7.32292 62.0156,6.99479 62.0156,6.60938 C62.0156,5.98438 62.2161,5.53385 62.6172,5.25781 C63.0182,4.98177 63.5104,4.84375 64.0938,4.84375 C64.5938,4.84375 64.9375,4.86979 65.125,4.92188 C65.3542,4.98438 65.5781,5.0625 65.7969,5.15625 "/>
</g>

<g fill="none" stroke="#000000" stroke-opacity="1" stroke-width="1" stroke-linecap="square" stroke-linejoin="bevel" transform="matrix(1.99908,0,0,1.99908,15.1345,21.9899)"
font-family="sans" font-size="11" font-weight="100" font-style="normal" 
>
</g>

<g fill="none" stroke="#000000" stroke-opacity="1" stroke-width="1" stroke-linecap="square" stroke-linejoin="bevel" transform="matrix(1.99908,0,0,1.99908,15.1345,21.9899)"
font-family="Ubuntu" font-size="11" font-weight="400" font-style="normal" 
>
</g>

<g fill="none" stroke="#000000" stroke-opacity="1" stroke-width="1" stroke-linecap="square" stroke-linejoin="bevel" transform="matrix(1.99908,0,0,1.99908,0.000799632,71.9669)"
font-family="Ubuntu" font-size="11" font-weight="400" font-style="normal" 
>
</g>

<g fill="none" stroke="#000000" stroke-opacity="1" stroke-width="1" stroke-linecap="square" stroke-linejoin="bevel" transform="matrix(1.99908,0,0,1.99908,0.000799632,71.9669)"
font-family="Ubuntu" font-size="11" font-weight="400" font-style="normal" 
>
</g>

<g fill="none" stroke="#000000" stroke-opacity="1" stroke-width="1" stroke-linecap="square" stroke-linejoin="bevel" transform="matrix(1.99908,0,0,1.99908,0.000799632,71.9669)"
font-family="Ubuntu" font-size="11" font-weight="400" font-style="normal" 
>
</g>

<g fill="none" stroke="#000000" stroke-opacity="1" stroke-width="1" stroke-linecap="square" stroke-linejoin="round" transform="matrix(1.99908,0,0,1.99908,0.000799632,71.9669)"
font-family="Ubuntu" font-size="11" font-weight="400" font-style="normal" 
>
<rect x="284.681" y="-35.5" width="104.998" height="35"/>
</g>

<g fill="none" stroke="#000000" stroke-opacity="1" stroke-width="1" stroke-linecap="square" stroke-linejoin="bevel" transform="matrix(1.99908,0,0,1.99908,0.000799632,71.9669)"
font-family="Ubuntu" font-size="11" font-weight="400" font-style="normal" 
>
</g>

<g fill="none" stroke="#000000" stroke-opacity="1" stroke-width="1" stroke-linecap="square" stroke-linejoin="bevel" transform="matrix(1.99908,0,0,1.99908,583.061,21.9899)"
font-family="Ubuntu" font-size="11" font-weight="400" font-style="normal" 
>
</g>

<g fill="none" stroke="#000000" stroke-opacity="1" stroke-width="1" stroke-linecap="square" stroke-linejoin="bevel" transform="matrix(1.99908,0,0,1.99908,583.061,21.9899)"
font-family="sans" font-size="11" font-weight="100" font-style="normal" 
>
</g>

<g fill="#000000" fill-opacity="1" stroke="#000000" stroke-opacity="1" stroke-width="1" stroke-linecap="square" stroke-linejoin="round" transform="matrix(1.99908,0,0,1.99908,583.061,21.9899)"
font-family="sans" font-size="11" font-weight="100" font-style="normal" 
>
<path vector-effect="none" fill-rule="nonzero" d="M2.96875,2.98438 L3.53125,2.98438 L0.734375,12.0156 L0.171875,12.0156 L2.96875,2.98438 M5.45313,2.64063 L5.95313,2.64063 L5.95313,7.71875 L8.9375,4.98438 L9.60938,4.98438 L6.5,7.82813 L9.71875,11 L9.07813,11 L5.95313,7.92188 L5.95313,11 L5.45313,11 L5.45313,2.64063 M11.2969,4.98438 L11.7969,4.98438 L11.7969,11 L11.2969,11 L11.2969,4.98438 M11.2969,2.64063 L11.7969,2.64063 L11.7969,3.3125 L11.2969,3.3125 L11.2969,2.64063 M18.9063,7.375 L18.9063,11 L18.4063,11 L18.4063,7.40625 C18.4063,6.625 18.2813,6.07552 18.0313,5.75781 C17.7813,5.4401 17.4115,5.28125 16.9219,5.28125 C16.349,5.28125 15.8646,5.45313 15.4688,5.79688 C15.0521,6.14063 14.8438,6.73958 14.8438,7.59375 L14.8438,11 L14.3594,11 L14.3594,4.98438 L14.8438,4.98438 L14.8438,6.10938 C15.0208,5.74479 15.2552,5.46875 15.5469,5.28125 C15.9635,4.98958 16.4271,4.84375 16.9375,4.84375 C17.5417,4.84375 18.0208,5.04688 18.375,5.45313 C18.7292,5.84896 18.9063,6.48958 18.9063,7.375 M26.0156,7.75 L26.0156,8.0625 L21.4531,8.0625 C21.4531,9.02083 21.6406,9.69792 22.0156,10.0938 C22.4323,10.5208 23.0469,10.7344 23.8594,10.7344 C24.0781,10.7344 24.3646,10.6875 24.7188,10.5938 C25.0729,10.5 25.4271,10.3594 25.7813,10.1719 L25.7813,10.6875 C25.4271,10.8438 25.0651,10.9609 24.6953,11.0391 C24.3255,11.1172 24.0313,11.1563 23.8125,11.1563 C22.8854,11.1563 22.1875,10.9063 21.7188,10.4063 C21.2083,9.875 20.9531,9.09375 20.9531,8.0625 C20.9531,6.98958 21.1823,6.1875 21.6406,5.65625 C22.1198,5.11458 22.7865,4.84375 23.6406,4.84375 C24.4219,4.84375 25.0156,5.10417 25.4219,5.625 C25.8177,6.16667 26.0156,6.875 26.0156,7.75 M25.5156,7.64063 C25.5156,6.79688 25.3229,6.18229 24.9375,5.79688 C24.625,5.45313 24.1927,5.28125 23.6406,5.28125 C23.0469,5.28125 22.5469,5.45833 22.1406,5.8125 C21.7656,6.14583 21.5417,6.75521 21.4688,7.64063 L25.5156,7.64063 M32.4219,6.29688 C32.6094,5.80729 32.901,5.44271 33.2969,5.20313 C33.6823,4.96354 34.1354,4.84375 34.6563,4.84375 C35.1771,4.84375 35.5938,5.02604 35.9063,5.39063 C36.2292,5.75521 36.3906,6.41667 36.3906,7.375 L36.3906,11 L35.9063,11 L35.9063,7.40625 C35.9063,6.57292 35.7917,6.01042 35.5625,5.71875 C35.3333,5.42708 35.026,5.28125 34.6406,5.28125 C34.0885,5.28125 33.6042,5.44792 33.1875,5.78125 C32.7188,6.15625 32.4844,6.76042 32.4844,7.59375 L32.4844,11 L32,11 L32,7.40625 C32,6.60417 31.888,6.04948 31.6641,5.74219 C31.4401,5.4349 31.1302,5.28125 30.7344,5.28125 C30.1823,5.28125 29.6979,5.45313 29.2813,5.79688 C28.8125,6.16146 28.5781,6.76042 28.5781,7.59375 L28.5781,11 L28.0938,11 L28.0938,4.98438 L28.5781,4.98438 L28.5781,6.10938 C28.7552,5.71354 29.0313,5.40104 29.4063,5.17188 C29.7708,4.95313 30.224,4.84375 30.7656,4.84375 C31.1198,4.84375 31.4583,4.95833 31.7813,5.1875 C32.0313,5.375 32.2448,5.74479 32.4219,6.29688 M41.2031,7.60938 C40.401,7.60938 39.8255,7.75 39.4766,8.03125 C39.1276,8.3125 38.9531,8.72396 38.9531,9.26563 C38.9531,9.79688 39.099,10.1745 39.3906,10.3984 C39.6823,10.6224 40.026,10.7344 40.4219,10.7344 C41.1719,10.7344 41.7135,10.4167 42.0469,9.78125 C42.3802,9.13542 42.5469,8.53125 42.5469,7.96875 L42.5469,7.60938 L41.2031,7.60938 M43.0469,7.5625 L43.0469,11 L42.5469,11 L42.5469,9.35938 C42.276,10.1615 41.9115,10.6719 41.4531,10.8906 C41.099,11.0677 40.7396,11.1563 40.375,11.1563 C39.7813,11.1563 39.3125,10.9948 38.9688,10.6719 C38.625,10.349 38.4531,9.8776 38.4531,9.25781 C38.4531,8.63802 38.6771,8.14063 39.125,7.76563 C39.5729,7.39063 40.3021,7.20313 41.3125,7.20313 L42.5469,7.20313 L42.5469,7.10938 C42.5469,6.57813 42.3906,6.14063 42.0781,5.79688 C41.7865,5.45313 41.2917,5.28125 40.5938,5.28125 C40.25,5.28125 39.901,5.34375 39.5469,5.46875 C39.3177,5.55208 39.0156,5.71875 38.6406,5.96875 L38.6406,5.4375 C38.9635,5.23958 39.2656,5.09896 39.5469,5.01563 C39.9427,4.90104 40.3229,4.84375 40.6875,4.84375 C41.4063,4.84375 41.9948,5.05729 42.4531,5.48438 C42.849,5.84896 43.0469,6.54167 43.0469,7.5625 M46.0469,3.28125 L46.0469,4.98438 L48.0781,4.98438 L48.0781,5.40625 L46.0469,5.40625 L46.0469,9.01563 C46.0469,9.47396 46.1042,9.79688 46.2188,9.98438 C46.4688,10.3802 46.8281,10.5781 47.2969,10.5781 L48.0781,10.5781 L48.0781,11 L47.3125,11 C46.8229,11 46.4063,10.8568 46.0625,10.5703 C45.7188,10.2839 45.5469,9.76563 45.5469,9.01563 L45.5469,5.40625 L44.8281,5.40625 L44.8281,4.98438 L45.5469,4.98438 L45.5469,3.28125 L46.0469,3.28125 M49.8281,4.98438 L50.3281,4.98438 L50.3281,11 L49.8281,11 L49.8281,4.98438 M49.8281,2.64063 L50.3281,2.64063 L50.3281,3.3125 L49.8281,3.3125 L49.8281,2.64063 M57,5.28125 L57,5.79688 C56.7083,5.61979 56.4635,5.5 56.2656,5.4375 C55.9323,5.33333 55.6146,5.28125 55.3125,5.28125 C54.4479,5.28125 53.8281,5.5026 53.4531,5.94531 C53.0781,6.38802 52.8906,7.07292 52.8906,8 C52.8906,8.9375 53.0781,9.6276 53.4531,10.0703 C53.8281,10.513 54.4479,10.7344 55.3125,10.7344 C55.6042,10.7344 55.8854,10.6927 56.1563,10.6094 C56.4479,10.5365 56.7292,10.4219 57,10.2656 L57,10.7656 C56.7292,10.901 56.4479,11 56.1563,11.0625 C55.8542,11.125 55.5573,11.1563 55.2656,11.1563 C54.3906,11.1563 53.6927,10.9167 53.1719,10.4375 C52.651,9.95833 52.3906,9.14323 52.3906,7.99219 C52.3906,6.84115 52.651,6.02604 53.1719,5.54688 C53.6927,5.07813 54.3906,4.84375 55.2656,4.84375 C55.5573,4.84375 55.8646,4.88542 56.1875,4.96875 C56.5104,5.04167 56.7813,5.14583 57,5.28125 M63.2969,13.1719 L63.2969,13.5938 L57.5781,13.5938 L57.5781,13.1719 L63.2969,13.1719 M67.8438,5.15625 L67.8438,5.70313 C67.4896,5.50521 67.2708,5.39583 67.1875,5.375 C66.9375,5.32292 66.625,5.29167 66.25,5.28125 C65.6875,5.28125 65.2448,5.39063 64.9219,5.60938 C64.6719,5.79688 64.5469,6.11458 64.5469,6.5625 C64.5469,6.875 64.6667,7.11458 64.9063,7.28125 C65.1458,7.46875 65.4948,7.61458 65.9531,7.71875 L66.2969,7.78125 C66.8698,7.90625 67.3021,8.08333 67.5938,8.3125 C67.9375,8.58333 68.1146,8.92708 68.125,9.34375 C68.125,9.90625 67.9583,10.349 67.625,10.6719 C67.2708,10.9948 66.6927,11.1563 65.8906,11.1563 C65.4531,11.1563 65.1198,11.125 64.8906,11.0625 C64.6094,10.9896 64.3177,10.8958 64.0156,10.7813 L64.0156,10.1563 C64.4531,10.4063 64.7344,10.5521 64.8594,10.5938 C65.2135,10.6875 65.5677,10.7344 65.9219,10.7344 C66.4948,10.7344 66.9219,10.6146 67.2031,10.375 C67.4844,10.125 67.625,9.80729 67.625,9.42188 C67.625,9.08854 67.5313,8.84896 67.3438,8.70313 C67.0729,8.48438 66.6458,8.30729 66.0625,8.17188 L65.7188,8.09375 C65.2083,7.96875 64.8229,7.80208 64.5625,7.59375 C64.2292,7.32292 64.0625,6.99479 64.0625,6.60938 C64.0625,5.98438 64.263,5.53385 64.6641,5.25781 C65.0651,4.98177 65.5573,4.84375 66.1406,4.84375 C66.6406,4.84375 66.9844,4.86979 67.1719,4.92188 C67.401,4.98438 67.625,5.0625 67.8438,5.15625 M70.6719,3.28125 L70.6719,4.98438 L72.7031,4.98438 L72.7031,5.40625 L70.6719,5.40625 L70.6719,9.01563 C70.6719,9.47396 70.7292,9.79688 70.8438,9.98438 C71.0938,10.3802 71.4531,10.5781 71.9219,10.5781 L72.7031,10.5781 L72.7031,11 L71.9375,11 C71.4479,11 71.0313,10.8568 70.6875,10.5703 C70.3438,10.2839 70.1719,9.76563 70.1719,9.01563 L70.1719,5.40625 L69.4531,5.40625 L69.4531,4.98438 L70.1719,4.98438 L70.1719,3.28125 L70.6719,3.28125 M76.875,7.60938 C76.0729,7.60938 75.4974,7.75 75.1484,8.03125 C74.7995,8.3125 74.625,8.72396 74.625,9.26563 C74.625,9.79688 74.7708,10.1745 75.0625,10.3984 C75.3542,10.6224 75.6979,10.7344 76.0938,10.7344 C76.8438,10.7344 77.3854,10.4167 77.7188,9.78125 C78.0521,9.13542 78.2188,8.53125 78.2188,7.96875 L78.2188,7.60938 L76.875,7.60938 M78.7188,7.5625 L78.7188,11 L78.2188,11 L78.2188,9.35938 C77.9479,10.1615 77.5833,10.6719 77.125,10.8906 C76.7708,11.0677 76.4115,11.1563 76.0469,11.1563 C75.4531,11.1563 74.9844,10.9948 74.6406,10.6719 C74.2969,10.349 74.125,9.8776 74.125,9.25781 C74.125,8.63802 74.349,8.14063 74.7969,7.76563 C75.2448,7.39063 75.974,7.20313 76.9844,7.20313 L78.2188,7.20313 L78.2188,7.10938 C78.2188,6.57813 78.0625,6.14063 77.75,5.79688 C77.4583,5.45313 76.9635,5.28125 76.2656,5.28125 C75.9219,5.28125 75.5729,5.34375 75.2188,5.46875 C74.9896,5.55208 74.6875,5.71875 74.3125,5.96875 L74.3125,5.4375 C74.6354,5.23958 74.9375,5.09896 75.2188,5.01563 C75.6146,4.90104 75.9948,4.84375 76.3594,4.84375 C77.0781,4.84375 77.6667,5.05729 78.125,5.48438 C78.5208,5.84896 78.7188,6.54167 78.7188,7.5625 M81.7188,3.28125 L81.7188,4.98438 L83.75,4.98438 L83.75,5.40625 L81.7188,5.40625 L81.7188,9.01563 C81.7188,9.47396 81.776,9.79688 81.8906,9.98438 C82.1406,10.3802 82.5,10.5781 82.9688,10.5781 L83.75,10.5781 L83.75,11 L82.9844,11 C82.4948,11 82.0781,10.8568 81.7344,10.5703 C81.3906,10.2839 81.2188,9.76563 81.2188,9.01563 L81.2188,5.40625 L80.5,5.40625 L80.5,4.98438 L81.2188,4.98438 L81.2188,3.28125 L81.7188,3.28125 M90.2031,7.75 L90.2031,8.0625 L85.6406,8.0625 C85.6406,9.02083 85.8281,9.69792 86.2031,10.0938 C86.6198,10.5208 87.2344,10.7344 88.0469,10.7344 C88.2656,10.7344 88.5521,10.6875 88.9063,10.5938 C89.2604,10.5 89.6146,10.3594 89.9688,10.1719 L89.9688,10.6875 C89.6146,10.8438 89.2526,10.9609 88.8828,11.0391 C88.513,11.1172 88.2188,11.1563 88,11.1563 C87.0729,11.1563 86.375,10.9063 85.9063,10.4063 C85.3958,9.875 85.1406,9.09375 85.1406,8.0625 C85.1406,6.98958 85.3698,6.1875 85.8281,5.65625 C86.3073,5.11458 86.974,4.84375 87.8281,4.84375 C88.6094,4.84375 89.2031,5.10417 89.6094,5.625 C90.0052,6.16667 90.2031,6.875 90.2031,7.75 M89.7031,7.64063 C89.7031,6.79688 89.5104,6.18229 89.125,5.79688 C88.8125,5.45313 88.3802,5.28125 87.8281,5.28125 C87.2344,5.28125 86.7344,5.45833 86.3281,5.8125 C85.9531,6.14583 85.7292,6.75521 85.6563,7.64063 L89.7031,7.64063"/>
</g>

<g fill="none" stroke="#000000" stroke-opacity="1" stroke-width="1" stroke-linecap="square" stroke-linejoin="bevel" transform="matrix(1.99908,0,0,1.99908,583.061,21.9899)"
font-family="sans" font-size="11" font-weight="100" font-style="normal" 
>
</g>

<g fill="none" stroke="#000000" stroke-opacity="1" stroke-width="1" stroke-linecap="square" stroke-linejoin="bevel" transform="matrix(1.99908,0,0,1.99908,583.061,21.9899)"
font-family="Ubuntu" font-size="11" font-weight="400" font-style="normal" 
>
</g>

<g fill="none" stroke="#000000" stroke-opacity="1" stroke-width="1" stroke-linecap="square" stroke-linejoin="bevel" transform="matrix(1.99908,0,0,1.99908,0.000799632,71.9669)"
font-family="Ubuntu" font-size="11" font-weight="400" font-style="normal" 
>
</g>

<g fill="none" stroke="#000000" stroke-opacity="1" stroke-width="1" stroke-linecap="square" stroke-linejoin="bevel" transform="matrix(1.99908,0,0,1.99908,0.000799632,71.9669)"
font-family="Ubuntu" font-size="11" font-weight="400" font-style="normal" 
>
</g>

<g fill="none" stroke="#000000" stroke-opacity="1" stroke-width="1" stroke-linecap="square" stroke-linejoin="bevel" transform="matrix(1.99908,0,0,1.99908,0.000799632,71.9669)"
font-family="Ubuntu" font-size="11" font-weight="400" font-style="normal" 
>
</g>

<g fill="none" stroke="#000000" stroke-opacity="1" stroke-width="1" stroke-linecap="square" stroke-linejoin="round" transform="matrix(1.99908,0,0,1.99908,0.000799632,71.9669)"
font-family="Ubuntu" font-size="11" font-weight="400" font-style="normal" 
>
<path vector-effect="none" fill-rule="evenodd" d="M82.099,-18 C83.205,-18 84.324,-18 85.453,-18 "/>
</g>

<g fill="none" stroke="#000000" stroke-opacity="1" stroke-width="1" stroke-linecap="square" stroke-linejoin="bevel" transform="matrix(1.99908,0,0,1.99908,0.000799632,71.9669)"
font-family="Ubuntu" font-size="11" font-weight="400" font-style="normal" 
>
</g>

<g fill="none" stroke="#000000" stroke-opacity="1" stroke-width="1" stroke-linecap="square" stroke-linejoin="bevel" transform="matrix(1.99908,0,0,1.99908,0.000799632,71.9669)"
font-family="Ubuntu" font-size="11" font-weight="400" font-style="normal" 
>
</g>

<g fill="#000000" fill-opacity="1" stroke="#000000" stroke-opacity="1" stroke-width="1" stroke-linecap="square" stroke-linejoin="round" transform="matrix(1.99908,0,0,1.99908,0.000799632,71.9669)"
font-family="Ubuntu" font-size="11" font-weight="400" font-style="normal" 
>
<path vector-effect="none" fill-rule="evenodd" d="M85.453,-18 L85.453,-14.3586 L95.857,-18 L85.453,-21.6414 L85.453,-18"/>
</g>

<g fill="none" stroke="#000000" stroke-opacity="1" stroke-width="1" stroke-linecap="square" stroke-linejoin="bevel" transform="matrix(1.99908,0,0,1.99908,0.000799632,71.9669)"
font-family="Ubuntu" font-size="11" font-weight="400" font-style="normal" 
>
</g>

<g fill="none" stroke="#000000" stroke-opacity="1" stroke-width="1" stroke-linecap="square" stroke-linejoin="bevel" transform="matrix(1.99908,0,0,1.99908,0.000799632,71.9669)"
font-family="Ubuntu" font-size="11" font-weight="400" font-style="normal" 
>
</g>

<g fill="none" stroke="#000000" stroke-opacity="1" stroke-width="1" stroke-linecap="square" stroke-linejoin="bevel" transform="matrix(1.99908,0,0,1.99908,0.000799632,71.9669)"
font-family="Ubuntu" font-size="11" font-weight="400" font-style="normal" 
>
</g>

<g fill="none" stroke="#000000" stroke-opacity="1" stroke-width="1" stroke-linecap="square" stroke-linejoin="bevel" transform="matrix(1.99908,0,0,1.99908,0.000799632,71.9669)"
font-family="Ubuntu" font-size="11" font-weight="400" font-style="normal" 
>
</g>

<g fill="none" stroke="#000000" stroke-opacity="1" stroke-width="1" stroke-linecap="square" stroke-linejoin="round" transform="matrix(1.99908,0,0,1.99908,0.000799632,71.9669)"
font-family="Ubuntu" font-size="11" font-weight="400" font-style="normal" 
>
<path vector-effect="none" fill-rule="evenodd" d="M270.49,-18 C271.65,-18 272.8,-18 273.95,-18 "/>
</g>

<g fill="none" stroke="#000000" stroke-opacity="1" stroke-width="1" stroke-linecap="square" stroke-linejoin="bevel" transform="matrix(1.99908,0,0,1.99908,0.000799632,71.9669)"
font-family="Ubuntu" font-size="11" font-weight="400" font-style="normal" 
>
</g>

<g fill="none" stroke="#000000" stroke-opacity="1" stroke-width="1" stroke-linecap="square" stroke-linejoin="bevel" transform="matrix(1.99908,0,0,1.99908,0.000799632,71.9669)"
font-family="Ubuntu" font-size="11" font-weight="400" font-style="normal" 
>
</g>

<g fill="#000000" fill-opacity="1" stroke="#000000" stroke-opacity="1" stroke-width="1" stroke-linecap="square" stroke-linejoin="round" transform="matrix(1.99908,0,0,1.99908,0.000799632,71.9669)"
font-family="Ubuntu" font-size="11" font-weight="400" font-style="normal" 
>
<path vector-effect="none" fill-rule="evenodd" d="M273.95,-18 L273.95,-14.437 L284.13,-18 L273.95,-21.563 L273.95,-18"/>
</g>

<g fill="none" stroke="#000000" stroke-opacity="1" stroke-width="1" stroke-linecap="square" stroke-linejoin="bevel" transform="matrix(1.99908,0,0,1.99908,0.000799632,71.9669)"
font-family="Ubuntu" font-size="11" font-weight="400" font-style="normal" 
>
</g>

<g fill="none" stroke="#000000" stroke-opacity="1" stroke-width="1" stroke-linecap="square" stroke-linejoin="bevel" transform="matrix(1,0,0,1,0,0)"
font-family="Ubuntu" font-size="11" font-weight="400" font-style="normal" 
>
</g>
</g>
</svg>
