<?xml version="1.0" encoding="UTF-8" standalone="no"?>
<!-- Created with Inkscape (http://www.inkscape.org/) -->

<svg
   xmlns:ns1="http://www.iki.fi/pav/software/textext/"
   xmlns:dc="http://purl.org/dc/elements/1.1/"
   xmlns:cc="http://creativecommons.org/ns#"
   xmlns:rdf="http://www.w3.org/1999/02/22-rdf-syntax-ns#"
   xmlns:svg="http://www.w3.org/2000/svg"
   xmlns="http://www.w3.org/2000/svg"
   xmlns:sodipodi="http://sodipodi.sourceforge.net/DTD/sodipodi-0.dtd"
   xmlns:inkscape="http://www.inkscape.org/namespaces/inkscape"
   width="210mm"
   height="297mm"
   viewBox="0 0 210 297"
   version="1.1"
   id="svg8"
   inkscape:version="0.92.3 (2405546, 2018-03-11)"
   sodipodi:docname="rcm-error-yz.svg">
  <sodipodi:namedview
     id="base"
     pagecolor="#ffffff"
     bordercolor="#666666"
     borderopacity="1.0"
     inkscape:pageopacity="0.0"
     inkscape:pageshadow="2"
     inkscape:zoom="3.959798"
     inkscape:cx="223.167"
     inkscape:cy="1009.2133"
     inkscape:document-units="mm"
     inkscape:current-layer="layer1"
     showgrid="false"
     inkscape:snap-intersection-paths="true"
     inkscape:object-paths="true"
     inkscape:snap-smooth-nodes="true"
     inkscape:snap-object-midpoints="true"
     inkscape:window-width="2560"
     inkscape:window-height="1386"
     inkscape:window-x="1920"
     inkscape:window-y="28"
     inkscape:window-maximized="1" />
  <defs
     id="defs2">
    <marker
       inkscape:isstock="true"
       style="overflow:visible;"
       id="Arrow2Send"
       refX="0.0"
       refY="0.0"
       orient="auto"
       inkscape:stockid="Arrow2Send">
      <path
         transform="scale(0.3) rotate(180) translate(-2.3,0)"
         d="M 8.7185878,4.0337352 L -2.2072895,0.016013256 L 8.7185884,-4.0017078 C 6.9730900,-1.6296469 6.9831476,1.6157441 8.7185878,4.0337352 z "
         style="fill-rule:evenodd;stroke-width:0.625;stroke-linejoin:round;stroke:#ff0000;stroke-opacity:1;fill:#ff0000;fill-opacity:1"
         id="path850" />
    </marker>
    <marker
       inkscape:isstock="true"
       style="overflow:visible;"
       id="Arrow2Mend"
       refX="0.0"
       refY="0.0"
       orient="auto"
       inkscape:stockid="Arrow2Mend">
      <path
         transform="scale(0.6) rotate(180) translate(0,0)"
         d="M 8.7185878,4.0337352 L -2.2072895,0.016013256 L 8.7185884,-4.0017078 C 6.9730900,-1.6296469 6.9831476,1.6157441 8.7185878,4.0337352 z "
         style="fill-rule:evenodd;stroke-width:0.625;stroke-linejoin:round;stroke:#ff0000;stroke-opacity:1;fill:#ff0000;fill-opacity:1"
         id="path844" />
    </marker>
    <marker
       inkscape:isstock="true"
       style="overflow:visible;"
       id="marker2285"
       refX="0.0"
       refY="0.0"
       orient="auto"
       inkscape:stockid="Arrow1Mend">
      <path
         transform="scale(0.4) rotate(180) translate(10,0)"
         style="fill-rule:evenodd;stroke:#ff0000;stroke-width:1pt;stroke-opacity:1;fill:#ff0000;fill-opacity:1"
         d="M 0.0,0.0 L 5.0,-5.0 L -12.5,0.0 L 5.0,5.0 L 0.0,0.0 z "
         id="path2283" />
    </marker>
    <marker
       inkscape:isstock="true"
       style="overflow:visible;"
       id="Arrow1Mend"
       refX="0.0"
       refY="0.0"
       orient="auto"
       inkscape:stockid="Arrow1Mend">
      <path
         transform="scale(0.4) rotate(180) translate(10,0)"
         style="fill-rule:evenodd;stroke:#00ff00;stroke-width:1pt;stroke-opacity:1;fill:#00ff00;fill-opacity:1"
         d="M 0.0,0.0 L 5.0,-5.0 L -12.5,0.0 L 5.0,5.0 L 0.0,0.0 z "
         id="path826" />
    </marker>
    <marker
       inkscape:isstock="true"
       style="overflow:visible"
       id="Arrow1Mend-3"
       refX="0"
       refY="0"
       orient="auto"
       inkscape:stockid="Arrow1Mend">
      <path
         transform="matrix(-0.4,0,0,-0.4,-4,0)"
         style="fill:#0000ff;fill-opacity:1;fill-rule:evenodd;stroke:#0000ff;stroke-width:1.00000003pt;stroke-opacity:1"
         d="M 0,0 5,-5 -12.5,0 5,5 Z"
         id="path826-6"
         inkscape:connector-curvature="0" />
    </marker>
  </defs>
  <metadata
     id="metadata5">
    <rdf:RDF>
      <cc:Work
         rdf:about="">
        <dc:format>image/svg+xml</dc:format>
        <dc:type
           rdf:resource="http://purl.org/dc/dcmitype/StillImage" />
        <dc:title />
      </cc:Work>
    </rdf:RDF>
  </metadata>
  <g
     id="layer1"
     inkscape:groupmode="layer"
     inkscape:label="Layer 1">
    <path
       inkscape:connector-curvature="0"
       id="path815"
       d="M 50.781209,54.319267 V 19.039691"
       style="fill:none;stroke:#00ff00;stroke-width:0.4;stroke-linecap:butt;stroke-linejoin:miter;stroke-opacity:1;stroke-miterlimit:4;stroke-dasharray:none;marker-end:url(#Arrow1Mend)"
       inkscape:export-xdpi="400"
       inkscape:export-ydpi="400" />
    <path
       inkscape:connector-curvature="0"
       id="path815-7"
       d="M 50.781209,54.319267 H 86.060786"
       style="fill:none;stroke:#0000ff;stroke-width:0.40000001;stroke-linecap:butt;stroke-linejoin:miter;stroke-miterlimit:4;stroke-dasharray:none;stroke-opacity:1;marker-end:url(#Arrow1Mend-3)"
       inkscape:export-xdpi="400"
       inkscape:export-ydpi="400" />
    <g
       id="g1843"
       transform="translate(-1.889881,4.4884673)"
       inkscape:export-xdpi="400"
       inkscape:export-ydpi="400">
      <path
         style="fill:none;stroke:#ff00ff;stroke-width:0.26458332px;stroke-linecap:butt;stroke-linejoin:miter;stroke-opacity:1"
         d="M 52.67109,49.8308 68.555427,23.959448"
         id="path1860"
         inkscape:connector-curvature="0" />
      <path
         style="fill:none;stroke:#000015;stroke-width:0.2;stroke-linecap:round;stroke-linejoin:miter;stroke-opacity:1;stroke-miterlimit:4;stroke-dasharray:0.2, 0.80000000000000004;stroke-dashoffset:0"
         d="m 52.67109,23.959448 h 15.884337 l 0,25.871352"
         id="path1862"
         inkscape:connector-curvature="0" />
      <g
         id="g1866"
         transform="translate(1.8898821,-4.4884676)">
        <circle
           r="1.2129208"
           cy="54.319267"
           cx="50.781208"
           id="path1586"
           style="opacity:1;fill:none;fill-opacity:1;stroke:#ff0000;stroke-width:0.40000001;stroke-linecap:round;stroke-linejoin:round;stroke-miterlimit:4;stroke-dasharray:none;stroke-dashoffset:0;stroke-opacity:1;paint-order:stroke fill markers" />
        <circle
           r="0.46502203"
           cy="54.319267"
           cx="50.781208"
           id="path1586-5"
           style="opacity:1;fill:#ff0000;fill-opacity:1;stroke:none;stroke-width:0.15335612;stroke-linecap:round;stroke-linejoin:round;stroke-miterlimit:4;stroke-dasharray:none;stroke-dashoffset:0;stroke-opacity:1;paint-order:stroke fill markers" />
      </g>
      <circle
         style="opacity:1;fill:#9900ff;fill-opacity:1;stroke:none;stroke-width:0.20982131;stroke-linecap:round;stroke-linejoin:round;stroke-miterlimit:4;stroke-dasharray:none;stroke-dashoffset:0;stroke-opacity:1;paint-order:stroke fill markers"
         id="path1586-5-0"
         cx="68.555428"
         cy="23.959448"
         r="0.63624173" />
    </g>
    <g
       id="g1642"
       ns1:jacobian_sqrt="0.537895"
       inkscapeversion="0.92.3"
       ns1:alignment="middle center"
       ns1:scale="1.52474052715"
       ns1:preamble="/home/karadalex/.config/inkscape/extensions/textext/default_packages.tex"
       ns1:text="$\\mathbf{\\hat{y}}$"
       ns1:pdfconverter="pdf2svg"
       ns1:texconverter="pdflatex"
       ns1:version="0.11.0"
       transform="matrix(0.34570118,0,0,0.34570118,-4.5032068,-27.266436)"
       style="stroke:none;stroke-opacity:1;fill:#00ff00;fill-opacity:1"
       inkscape:export-xdpi="400"
       inkscape:export-ydpi="400">
      <g
         id="surface1"
         style="stroke:none;stroke-opacity:1;fill:#00ff00;fill-opacity:1">
        <g
           id="g1635"
           style="fill:#00ff00;fill-opacity:1;stroke:none;stroke-opacity:1">
          <path
             id="path1633"
             transform="translate(148.951,134.765)"
             d="m 2.859375,-6.921875 -1.5625,1.265625 0.28125,0.375 1.28125,-0.8125 1.28125,0.8125 0.28125,-0.375 z m 0,0"
             style="stroke:none;stroke-width:0;stroke-opacity:1;fill:#00ff00;fill-opacity:1"
             inkscape:connector-curvature="0" />
        </g>
        <g
           id="g1639"
           style="fill:#00ff00;fill-opacity:1;stroke:none;stroke-opacity:1">
          <path
             id="path1637"
             transform="translate(148.7119,134.765)"
             d="m 5.046875,-3.75 c 0.0625,-0.140625 0.09375,-0.203125 0.734375,-0.203125 v -0.46875 C 5.546875,-4.40625 5.25,-4.390625 5,-4.390625 c -0.25,0 -0.703125,-0.03125 -0.90625,-0.03125 v 0.46875 c 0.015625,0 0.46875,0 0.46875,0.109375 0,0.015625 -0.046875,0.109375 -0.0625,0.125 L 3.359375,-1.265625 2.09375,-3.953125 H 2.625 v -0.46875 c -0.328125,0.015625 -1.21875,0.03125 -1.234375,0.03125 -0.28125,0 -0.71875,-0.03125 -1.125,-0.03125 v 0.46875 h 0.625 L 2.765625,0 2.53125,0.484375 C 2.3125,0.953125 2,1.640625 1.28125,1.640625 1.140625,1.640625 1.125,1.625 1.046875,1.59375 1.140625,1.5625 1.359375,1.421875 1.359375,1.0625 1.359375,0.734375 1.125,0.5 0.78125,0.5 0.515625,0.5 0.21875,0.6875 0.21875,1.078125 0.21875,1.578125 0.6875,2 1.28125,2 2.046875,2 2.625,1.375 2.90625,0.8125 Z m 0,0"
             style="stroke:none;stroke-width:0;stroke-opacity:1;fill:#00ff00;fill-opacity:1"
             inkscape:connector-curvature="0" />
        </g>
      </g>
    </g>
    <g
       transform="matrix(0.345701,0.000000,0.000000,0.345701,36.641079,8.832699)"
       ns1:version="0.11.0"
       ns1:texconverter="pdflatex"
       ns1:pdfconverter="pdf2svg"
       ns1:text="$\\mathbf{\\hat{z}}$"
       ns1:preamble="/home/karadalex/.config/inkscape/extensions/textext/default_packages.tex"
       ns1:scale="0.979939549879"
       ns1:alignment="middle center"
       inkscapeversion="0.92.3"
       ns1:jacobian_sqrt="0.345701"
       style="fill:#0000ff;stroke-opacity:1;fill-opacity:1"
       id="g1742"
       inkscape:export-xdpi="400"
       inkscape:export-ydpi="400">
      <g
         id="g1740"
         style="fill:#0000ff;stroke-opacity:1;fill-opacity:1">
        <g
           style="fill-opacity:1;stroke-opacity:1;fill:#0000ff"
           id="g1734">
          <path
             style="fill-opacity:1;stroke:none;stroke-width:0;stroke-opacity:1;fill:#0000ff"
             d="M 2.859375 -6.921875 L 1.296875 -5.65625 L 1.578125 -5.28125 L 2.859375 -6.09375 L 4.140625 -5.28125 L 4.421875 -5.65625 Z M 2.859375 -6.921875 "
             transform="translate(148.394,134.765)"
             id="path1732" />
        </g>
        <g
           style="fill-opacity:1;stroke-opacity:1;fill:#0000ff"
           id="g1738">
          <path
             style="fill-opacity:1;stroke:none;stroke-width:0;stroke-opacity:1;fill:#0000ff"
             d="M 4.46875 -4 C 4.5625 -4.109375 4.578125 -4.125 4.578125 -4.21875 C 4.578125 -4.421875 4.4375 -4.421875 4.25 -4.421875 L 0.59375 -4.421875 L 0.484375 -2.6875 L 0.953125 -2.6875 C 1 -3.703125 1.3125 -4.0625 2.34375 -4.0625 L 3.1875 -4.0625 L 0.40625 -0.4375 C 0.3125 -0.328125 0.3125 -0.3125 0.3125 -0.21875 C 0.3125 0 0.453125 0 0.640625 0 L 4.421875 0 L 4.609375 -2.015625 L 4.140625 -2.015625 C 4.046875 -1 3.890625 -0.40625 2.578125 -0.40625 L 1.71875 -0.40625 Z M 4.46875 -4 "
             transform="translate(148.712803,134.765)"
             id="path1736" />
        </g>
      </g>
    </g>
    <g
       id="g1808"
       style="fill:#ff0000;stroke-opacity:1;fill-opacity:1"
       ns1:jacobian_sqrt="0.345701"
       inkscapeversion="0.92.3"
       ns1:alignment="middle center"
       ns1:scale="0.979939549879"
       ns1:preamble="/home/karadalex/.config/inkscape/extensions/textext/default_packages.tex"
       ns1:text="$\\mathbf{\\hat{x}}$"
       ns1:pdfconverter="pdf2svg"
       ns1:texconverter="pdflatex"
       ns1:version="0.11.0"
       transform="matrix(0.345701,0.000000,0.000000,0.345701,-5.120232,8.871201)"
       inkscape:export-xdpi="400"
       inkscape:export-ydpi="400">
      <g
         style="fill:#ff0000;stroke-opacity:1;fill-opacity:1"
         id="g1806">
        <g
           id="g1800"
           style="fill-opacity:1;stroke-opacity:1;fill:#ff0000">
          <path
             id="path1798"
             transform="translate(148.871,134.765)"
             d="M 2.859375 -6.921875 L 1.296875 -5.65625 L 1.578125 -5.28125 L 2.859375 -6.09375 L 4.140625 -5.28125 L 4.421875 -5.65625 Z M 2.859375 -6.921875 "
             style="fill-opacity:1;stroke:none;stroke-width:0;stroke-opacity:1;fill:#ff0000" />
        </g>
        <g
           id="g1804"
           style="fill-opacity:1;stroke-opacity:1;fill:#ff0000">
          <path
             id="path1802"
             transform="translate(148.711598,134.765)"
             d="M 3.453125 -2.453125 L 4.609375 -3.75 C 4.75 -3.890625 4.8125 -3.953125 5.625 -3.953125 L 5.625 -4.421875 C 5.28125 -4.40625 4.765625 -4.390625 4.71875 -4.390625 C 4.46875 -4.390625 3.96875 -4.421875 3.6875 -4.421875 L 3.6875 -3.953125 C 3.828125 -3.953125 3.953125 -3.9375 4.0625 -3.875 C 4.03125 -3.8125 4.03125 -3.78125 3.984375 -3.75 L 3.15625 -2.8125 L 2.171875 -3.953125 L 2.578125 -3.953125 L 2.578125 -4.421875 C 2.3125 -4.421875 1.6875 -4.390625 1.359375 -4.390625 C 1.046875 -4.390625 0.59375 -4.421875 0.265625 -4.421875 L 0.265625 -3.953125 L 0.984375 -3.953125 L 2.53125 -2.125 L 1.21875 -0.65625 C 1.0625 -0.46875 0.703125 -0.46875 0.21875 -0.46875 L 0.21875 0 C 0.5625 -0.015625 1.09375 -0.03125 1.140625 -0.03125 C 1.390625 -0.03125 1.96875 -0.015625 2.15625 0 L 2.15625 -0.46875 C 1.984375 -0.46875 1.796875 -0.515625 1.796875 -0.578125 C 1.796875 -0.59375 1.796875 -0.59375 1.859375 -0.671875 L 2.828125 -1.765625 L 3.921875 -0.46875 L 3.53125 -0.46875 L 3.53125 0 C 3.796875 -0.015625 4.40625 -0.03125 4.734375 -0.03125 C 5.046875 -0.03125 5.5 -0.015625 5.828125 0 L 5.828125 -0.46875 L 5.125 -0.46875 Z M 3.453125 -2.453125 "
             style="fill-opacity:1;stroke:none;stroke-width:0;stroke-opacity:1;fill:#ff0000" />
        </g>
      </g>
    </g>
    <g
       transform="matrix(0.345701,0,0,0.345701,16.265684,-19.057005)"
       ns1:version="0.11.0"
       ns1:texconverter="pdflatex"
       ns1:pdfconverter="pdf2svg"
       ns1:text="$\\tilde{O}_F$"
       ns1:preamble="/home/karadalex/.config/inkscape/extensions/textext/default_packages.tex"
       ns1:scale="0.979939549879"
       ns1:alignment="middle center"
       inkscapeversion="0.92.3"
       ns1:jacobian_sqrt="0.345701"
       style="fill:#9900ff;fill-opacity:1;stroke-opacity:1"
       id="g1982"
       inkscape:export-xdpi="400"
       inkscape:export-ydpi="400">
      <g
         id="g1980"
         style="fill:#9900ff;fill-opacity:1;stroke-opacity:1">
        <g
           style="fill:#9900ff;fill-opacity:1;stroke-opacity:1"
           id="g1970">
          <path
             inkscape:connector-curvature="0"
             style="fill:#9900ff;fill-opacity:1;stroke:none;stroke-width:0;stroke-opacity:1"
             d="M 4.140625,-6.515625 3.984375,-6.65625 c 0,0 -0.375,0.46875 -0.8125,0.46875 -0.234375,0 -0.484375,-0.140625 -0.65625,-0.25 C 2.25,-6.59375 2.078125,-6.65625 1.90625,-6.65625 c -0.375,0 -0.578125,0.21875 -1.078125,0.78125 l 0.15625,0.140625 c 0,0 0.375,-0.46875 0.8125,-0.46875 0.234375,0 0.484375,0.140625 0.65625,0.234375 0.265625,0.171875 0.453125,0.234375 0.625,0.234375 0.375,0 0.5625,-0.21875 1.0625,-0.78125 z m 0,0"
             transform="translate(150.99,132.246)"
             id="path1968" />
        </g>
        <g
           style="fill:#9900ff;fill-opacity:1;stroke-opacity:1"
           id="g1974">
          <path
             inkscape:connector-curvature="0"
             style="fill:#9900ff;fill-opacity:1;stroke:none;stroke-width:0;stroke-opacity:1"
             d="m 7.375,-4.34375 c 0,-1.609375 -1.0625,-2.6875 -2.546875,-2.6875 -2.140625,0 -4.34375,2.265625 -4.34375,4.59375 0,1.65625 1.125,2.65625 2.5625,2.65625 2.109375,0 4.328125,-2.1875 4.328125,-4.5625 z m -4.28125,4.296875 c -0.984375,0 -1.671875,-0.796875 -1.671875,-2.109375 0,-0.453125 0.140625,-1.90625 0.90625,-3.0625 0.6875,-1.046875 1.65625,-1.5625 2.453125,-1.5625 0.8125,0 1.703125,0.5625 1.703125,2.046875 0,0.71875 -0.265625,2.265625 -1.25,3.5 C 4.75,-0.625 3.9375,-0.046875 3.09375,-0.046875 Z m 0,0"
             transform="translate(148.712,134.765)"
             id="path1972" />
        </g>
        <g
           style="fill:#9900ff;fill-opacity:1;stroke-opacity:1"
           id="g1978">
          <path
             inkscape:connector-curvature="0"
             style="fill:#9900ff;fill-opacity:1;stroke:none;stroke-width:0;stroke-opacity:1"
             d="M 2.390625,-2.25 H 3.125 c 0.53125,0 0.625,0.09375 0.625,0.3125 0,0.109375 0,0.125 -0.046875,0.328125 -0.015625,0.03125 -0.03125,0.0625 -0.03125,0.078125 0,0.0625 0.0625,0.109375 0.125,0.109375 0.09375,0 0.09375,-0.046875 0.140625,-0.171875 l 0.375,-1.46875 c 0,-0.03125 0.015625,-0.125 0.015625,-0.140625 0,-0.078125 -0.046875,-0.109375 -0.109375,-0.109375 -0.09375,0 -0.109375,0.046875 -0.140625,0.171875 C 3.9375,-2.59375 3.734375,-2.5 3.140625,-2.5 h -0.6875 l 0.4375,-1.75 c 0.046875,-0.203125 0.0625,-0.234375 0.34375,-0.234375 H 4.3125 c 0.921875,0 1.09375,0.21875 1.09375,0.8125 0,0.21875 -0.03125,0.375 -0.03125,0.421875 0,0.0625 0.03125,0.125 0.125,0.125 0.109375,0 0.109375,-0.0625 0.125,-0.1875 L 5.75,-4.515625 c 0.015625,-0.21875 -0.03125,-0.21875 -0.203125,-0.21875 h -3.71875 c -0.140625,0 -0.21875,0 -0.21875,0.15625 0,0.09375 0.078125,0.09375 0.21875,0.09375 0,0 0.140625,0 0.265625,0.015625 C 2.234375,-4.453125 2.25,-4.4375 2.25,-4.375 c 0,0.046875 -0.015625,0.125 -0.03125,0.15625 L 1.3125,-0.578125 C 1.234375,-0.296875 1.234375,-0.25 0.6875,-0.25 c -0.109375,0 -0.203125,0 -0.203125,0.140625 C 0.484375,-0.03125 0.53125,0 0.59375,0 0.796875,0 1.3125,-0.03125 1.515625,-0.03125 l 0.53125,0.015625 C 2.234375,-0.015625 2.421875,0 2.59375,0 2.640625,0 2.75,0 2.75,-0.15625 2.75,-0.25 2.671875,-0.25 2.515625,-0.25 c -0.015625,0 -0.1875,0 -0.375,-0.015625 C 2,-0.28125 1.9375,-0.28125 1.9375,-0.390625 c 0,-0.015625 0,-0.046875 0.015625,-0.125 z m 0,0"
             transform="translate(156.312,136.259)"
             id="path1976" />
        </g>
      </g>
    </g>
    <g
       transform="matrix(0.345701,0,0,0.345701,3.239104,-8.2043784)"
       ns1:version="0.11.0"
       ns1:texconverter="pdflatex"
       ns1:pdfconverter="pdf2svg"
       ns1:text="$e_{yz}$"
       ns1:preamble="/home/karadalex/.config/inkscape/extensions/textext/default_packages.tex"
       ns1:scale="0.979939578225"
       ns1:alignment="middle center"
       inkscapeversion="0.92.3"
       ns1:jacobian_sqrt="0.345701"
       style="fill:#ff00ff;fill-opacity:1;stroke-opacity:1"
       id="g2227"
       inkscape:export-xdpi="400"
       inkscape:export-ydpi="400">
      <g
         id="g2225"
         style="fill:#ff00ff;fill-opacity:1;stroke-opacity:1">
        <g
           style="fill:#ff00ff;fill-opacity:1;stroke-opacity:1"
           id="g2215">
          <path
             inkscape:connector-curvature="0"
             style="fill:#ff00ff;fill-opacity:1;stroke:none;stroke-width:0;stroke-opacity:1"
             d="m 1.859375,-2.296875 c 0.296875,0 1.03125,-0.03125 1.53125,-0.234375 0.703125,-0.296875 0.75,-0.890625 0.75,-1.03125 0,-0.4375 -0.375,-0.84375 -1.0625,-0.84375 -1.109375,0 -2.625,0.96875 -2.625,2.71875 0,1.015625 0.59375,1.796875 1.578125,1.796875 1.421875,0 2.25,-1.0625 2.25,-1.171875 0,-0.0625 -0.046875,-0.140625 -0.109375,-0.140625 -0.0625,0 -0.078125,0.03125 -0.140625,0.109375 -0.78125,0.984375 -1.875,0.984375 -1.984375,0.984375 -0.78125,0 -0.875,-0.84375 -0.875,-1.15625 0,-0.125 0.015625,-0.421875 0.15625,-1.03125 z m -0.46875,-0.21875 C 1.78125,-4.03125 2.8125,-4.1875 3.078125,-4.1875 c 0.453125,0 0.734375,0.296875 0.734375,0.625 0,1.046875 -1.59375,1.046875 -2.015625,1.046875 z m 0,0"
             transform="translate(148.712,134.765)"
             id="path2213" />
        </g>
        <g
           style="fill:#ff00ff;fill-opacity:1;stroke-opacity:1"
           id="g2219">
          <path
             inkscape:connector-curvature="0"
             style="fill:#ff00ff;fill-opacity:1;stroke:none;stroke-width:0;stroke-opacity:1"
             d="M 3.875,-2.625 C 3.90625,-2.71875 3.90625,-2.734375 3.90625,-2.78125 3.90625,-2.921875 3.796875,-3 3.671875,-3 3.59375,-3 3.46875,-2.96875 3.390625,-2.84375 3.359375,-2.796875 3.3125,-2.578125 3.28125,-2.4375 L 3.125,-1.859375 c -0.03125,0.171875 -0.25,1.046875 -0.28125,1.125 0,0 -0.3125,0.609375 -0.84375,0.609375 -0.484375,0 -0.484375,-0.453125 -0.484375,-0.578125 0,-0.375 0.15625,-0.8125 0.375,-1.359375 C 1.96875,-2.28125 2,-2.359375 2,-2.484375 2,-2.8125 1.71875,-3.078125 1.34375,-3.078125 0.640625,-3.078125 0.328125,-2.125 0.328125,-2 c 0,0.078125 0.09375,0.078125 0.125,0.078125 0.09375,0 0.09375,-0.03125 0.125,-0.109375 C 0.75,-2.609375 1.046875,-2.875 1.328125,-2.875 1.4375,-2.875 1.5,-2.796875 1.5,-2.640625 c 0,0.171875 -0.0625,0.3125 -0.09375,0.40625 C 1.0625,-1.375 1,-1.125 1,-0.8125 1,-0.703125 1,-0.375 1.265625,-0.140625 1.484375,0.03125 1.78125,0.0625 1.96875,0.0625 2.25,0.0625 2.5,-0.03125 2.71875,-0.25 2.640625,0.140625 2.5625,0.4375 2.265625,0.78125 2.078125,1 1.796875,1.21875 1.421875,1.21875 c -0.046875,0 -0.375,0 -0.515625,-0.21875 0.375,-0.046875 0.375,-0.375 0.375,-0.390625 0,-0.21875 -0.203125,-0.265625 -0.265625,-0.265625 -0.171875,0 -0.40625,0.140625 -0.40625,0.46875 0,0.34375 0.328125,0.609375 0.828125,0.609375 C 2.140625,1.421875 3,0.875 3.21875,0 Z m 0,0"
             transform="translate(153.351,136.259)"
             id="path2217" />
        </g>
        <g
           style="fill:#ff00ff;fill-opacity:1;stroke-opacity:1"
           id="g2223">
          <path
             inkscape:connector-curvature="0"
             style="fill:#ff00ff;fill-opacity:1;stroke:none;stroke-width:0;stroke-opacity:1"
             d="m 1.171875,-0.609375 c 0.1875,-0.1875 0.3125,-0.3125 0.890625,-0.796875 0.15625,-0.109375 0.671875,-0.53125 0.875,-0.71875 0.421875,-0.421875 0.6875,-0.78125 0.6875,-0.859375 0,-0.09375 -0.078125,-0.09375 -0.109375,-0.09375 -0.0625,0 -0.09375,0.015625 -0.125,0.078125 -0.21875,0.3125 -0.359375,0.421875 -0.53125,0.421875 -0.078125,0 -0.1875,0 -0.390625,-0.203125 -0.234375,-0.25 -0.390625,-0.296875 -0.546875,-0.296875 -0.5625,0 -0.9375,0.609375 -0.9375,0.8125 0,0.078125 0.0625,0.09375 0.109375,0.09375 0.09375,0 0.109375,-0.015625 0.125,-0.09375 0.109375,-0.25 0.5,-0.265625 0.609375,-0.265625 0.171875,0 0.34375,0.046875 0.4375,0.0625 0.390625,0.078125 0.4375,0.078125 0.609375,0.078125 -0.171875,0.203125 -0.296875,0.328125 -0.96875,0.84375 -0.546875,0.4375 -0.734375,0.609375 -0.859375,0.75 -0.421875,0.40625 -0.625,0.71875 -0.625,0.78125 0,0.078125 0.09375,0.078125 0.125,0.078125 0.0625,0 0.078125,0 0.109375,-0.0625 0.1875,-0.265625 0.40625,-0.421875 0.640625,-0.421875 0.09375,0 0.1875,0 0.375,0.171875 0.21875,0.21875 0.359375,0.3125 0.59375,0.3125 C 3,0.0625 3.46875,-0.78125 3.46875,-1.015625 3.46875,-1.09375 3.390625,-1.09375 3.359375,-1.09375 3.265625,-1.09375 3.25,-1.0625 3.21875,-0.984375 3.09375,-0.640625 2.6875,-0.46875 2.34375,-0.46875 2.1875,-0.46875 2,-0.515625 1.828125,-0.546875 1.515625,-0.625 1.453125,-0.625 1.328125,-0.625 c -0.015625,0 -0.109375,0 -0.15625,0.015625 z m 0,0"
             transform="translate(157.64268,136.259)"
             id="path2221" />
        </g>
      </g>
    </g>
    <path
       inkscape:connector-curvature="0"
       id="path2281"
       d="m 56.009669,54.319267 c 0,0 1.082971,-3.779557 -2.63234,-4.228391"
       style="fill:none;stroke:#ff0000;stroke-width:0.2;stroke-linecap:butt;stroke-linejoin:miter;stroke-opacity:1;stroke-miterlimit:4;stroke-dasharray:none;marker-end:url(#Arrow2Send)"
       inkscape:export-xdpi="400"
       inkscape:export-ydpi="400" />
    <g
       id="g2426"
       style="fill:#ff0000;stroke-opacity:1;fill-opacity:1"
       ns1:jacobian_sqrt="0.345701"
       inkscapeversion="0.92.3"
       ns1:alignment="middle center"
       ns1:scale="0.979939578225"
       ns1:preamble="/home/karadalex/.config/inkscape/extensions/textext/default_packages.tex"
       ns1:text="$\\psi$"
       ns1:pdfconverter="pdf2svg"
       ns1:texconverter="pdflatex"
       ns1:version="0.11.0"
       transform="matrix(0.345701,0.000000,0.000000,0.345701,4.674066,4.698112)"
       inkscape:export-xdpi="400"
       inkscape:export-ydpi="400">
      <g
         style="fill:#ff0000;stroke-opacity:1;fill-opacity:1"
         id="g2424">
        <g
           id="g2422"
           style="fill-opacity:1;stroke-opacity:1;fill:#ff0000">
          <path
             id="path2420"
             transform="translate(148.712,134.765)"
             d="M 4.8125 -6.65625 C 4.8125 -6.703125 4.828125 -6.765625 4.828125 -6.8125 C 4.828125 -6.90625 4.765625 -6.921875 4.71875 -6.921875 C 4.609375 -6.921875 4.609375 -6.890625 4.5625 -6.71875 L 2.90625 -0.125 C 2.15625 -0.21875 1.78125 -0.59375 1.78125 -1.25 C 1.78125 -1.453125 1.78125 -1.703125 2.3125 -3.09375 C 2.359375 -3.21875 2.421875 -3.390625 2.421875 -3.59375 C 2.421875 -4.03125 2.109375 -4.40625 1.609375 -4.40625 C 0.65625 -4.40625 0.296875 -2.953125 0.296875 -2.875 C 0.296875 -2.765625 0.390625 -2.765625 0.40625 -2.765625 C 0.515625 -2.765625 0.515625 -2.796875 0.5625 -2.953125 C 0.84375 -3.890625 1.234375 -4.1875 1.578125 -4.1875 C 1.65625 -4.1875 1.828125 -4.1875 1.828125 -3.875 C 1.828125 -3.609375 1.71875 -3.359375 1.59375 -3.015625 C 1.109375 -1.75 1.109375 -1.5 1.109375 -1.328125 C 1.109375 -0.375 1.890625 0.03125 2.84375 0.09375 C 2.765625 0.453125 2.765625 0.46875 2.625 1 C 2.609375 1.109375 2.40625 1.90625 2.40625 1.9375 C 2.40625 1.953125 2.40625 2.046875 2.515625 2.046875 C 2.546875 2.046875 2.59375 2.046875 2.609375 2 C 2.640625 1.984375 2.703125 1.734375 2.734375 1.59375 L 3.109375 0.109375 C 3.484375 0.109375 4.359375 0.109375 5.296875 -0.953125 C 5.703125 -1.421875 5.90625 -1.859375 6.015625 -2.15625 C 6.109375 -2.40625 6.328125 -3.265625 6.328125 -3.703125 C 6.328125 -4.265625 6.0625 -4.40625 5.890625 -4.40625 C 5.640625 -4.40625 5.390625 -4.140625 5.390625 -3.921875 C 5.390625 -3.796875 5.453125 -3.734375 5.546875 -3.65625 C 5.65625 -3.546875 5.90625 -3.296875 5.90625 -2.8125 C 5.90625 -2.171875 5.390625 -1.359375 5.03125 -1 C 4.15625 -0.109375 3.515625 -0.109375 3.15625 -0.109375 Z M 4.8125 -6.65625 "
             style="fill-opacity:1;stroke:none;stroke-width:0;stroke-opacity:1;fill:#ff0000" />
        </g>
      </g>
    </g>
    <g
       transform="matrix(0.345701,0.000000,0.000000,0.345701,6.283554,-19.739620)"
       ns1:version="0.11.0"
       ns1:texconverter="pdflatex"
       ns1:pdfconverter="pdf2svg"
       ns1:text="$e_z$"
       ns1:preamble="/home/karadalex/.config/inkscape/extensions/textext/default_packages.tex"
       ns1:scale="0.979939606571"
       ns1:alignment="middle center"
       inkscapeversion="0.92.3"
       ns1:jacobian_sqrt="0.345701"
       style="fill:#000000;stroke-opacity:1;fill-opacity:1"
       id="g2618"
       inkscape:export-xdpi="400"
       inkscape:export-ydpi="400">
      <g
         id="g2616"
         style="fill:#000000;stroke-opacity:1;fill-opacity:1">
        <g
           style="fill-opacity:1;stroke-opacity:1;fill:#000000"
           id="g2610">
          <path
             style="fill-opacity:1;stroke:none;stroke-width:0;stroke-opacity:1;fill:#000000"
             d="M 1.859375 -2.296875 C 2.15625 -2.296875 2.890625 -2.328125 3.390625 -2.53125 C 4.09375 -2.828125 4.140625 -3.421875 4.140625 -3.5625 C 4.140625 -4 3.765625 -4.40625 3.078125 -4.40625 C 1.96875 -4.40625 0.453125 -3.4375 0.453125 -1.6875 C 0.453125 -0.671875 1.046875 0.109375 2.03125 0.109375 C 3.453125 0.109375 4.28125 -0.953125 4.28125 -1.0625 C 4.28125 -1.125 4.234375 -1.203125 4.171875 -1.203125 C 4.109375 -1.203125 4.09375 -1.171875 4.03125 -1.09375 C 3.25 -0.109375 2.15625 -0.109375 2.046875 -0.109375 C 1.265625 -0.109375 1.171875 -0.953125 1.171875 -1.265625 C 1.171875 -1.390625 1.1875 -1.6875 1.328125 -2.296875 Z M 1.390625 -2.515625 C 1.78125 -4.03125 2.8125 -4.1875 3.078125 -4.1875 C 3.53125 -4.1875 3.8125 -3.890625 3.8125 -3.5625 C 3.8125 -2.515625 2.21875 -2.515625 1.796875 -2.515625 Z M 1.390625 -2.515625 "
             transform="translate(148.712,134.765)"
             id="path2608" />
        </g>
        <g
           style="fill-opacity:1;stroke-opacity:1;fill:#000000"
           id="g2614">
          <path
             style="fill-opacity:1;stroke:none;stroke-width:0;stroke-opacity:1;fill:#000000"
             d="M 1.171875 -0.609375 C 1.359375 -0.796875 1.484375 -0.921875 2.0625 -1.40625 C 2.21875 -1.515625 2.734375 -1.9375 2.9375 -2.125 C 3.359375 -2.546875 3.625 -2.90625 3.625 -2.984375 C 3.625 -3.078125 3.546875 -3.078125 3.515625 -3.078125 C 3.453125 -3.078125 3.421875 -3.0625 3.390625 -3 C 3.171875 -2.6875 3.03125 -2.578125 2.859375 -2.578125 C 2.78125 -2.578125 2.671875 -2.578125 2.46875 -2.78125 C 2.234375 -3.03125 2.078125 -3.078125 1.921875 -3.078125 C 1.359375 -3.078125 0.984375 -2.46875 0.984375 -2.265625 C 0.984375 -2.1875 1.046875 -2.171875 1.09375 -2.171875 C 1.1875 -2.171875 1.203125 -2.1875 1.21875 -2.265625 C 1.328125 -2.515625 1.71875 -2.53125 1.828125 -2.53125 C 2 -2.53125 2.171875 -2.484375 2.265625 -2.46875 C 2.65625 -2.390625 2.703125 -2.390625 2.875 -2.390625 C 2.703125 -2.1875 2.578125 -2.0625 1.90625 -1.546875 C 1.359375 -1.109375 1.171875 -0.9375 1.046875 -0.796875 C 0.625 -0.390625 0.421875 -0.078125 0.421875 -0.015625 C 0.421875 0.0625 0.515625 0.0625 0.546875 0.0625 C 0.609375 0.0625 0.625 0.0625 0.65625 0 C 0.84375 -0.265625 1.0625 -0.421875 1.296875 -0.421875 C 1.390625 -0.421875 1.484375 -0.421875 1.671875 -0.25 C 1.890625 -0.03125 2.03125 0.0625 2.265625 0.0625 C 3 0.0625 3.46875 -0.78125 3.46875 -1.015625 C 3.46875 -1.09375 3.390625 -1.09375 3.359375 -1.09375 C 3.265625 -1.09375 3.25 -1.0625 3.21875 -0.984375 C 3.09375 -0.640625 2.6875 -0.46875 2.34375 -0.46875 C 2.1875 -0.46875 2 -0.515625 1.828125 -0.546875 C 1.515625 -0.625 1.453125 -0.625 1.328125 -0.625 C 1.3125 -0.625 1.21875 -0.625 1.171875 -0.609375 Z M 1.171875 -0.609375 "
             transform="translate(153.351,136.259)"
             id="path2612" />
        </g>
      </g>
    </g>
    <g
       id="g2796"
       style="fill:#000000;stroke-opacity:1;fill-opacity:1"
       ns1:jacobian_sqrt="0.345701"
       inkscapeversion="0.92.3"
       ns1:alignment="middle center"
       ns1:scale="0.979939634917"
       ns1:preamble="/home/karadalex/.config/inkscape/extensions/textext/default_packages.tex"
       ns1:text="$e_y$"
       ns1:pdfconverter="pdf2svg"
       ns1:texconverter="pdflatex"
       ns1:version="0.11.0"
       transform="matrix(0.345701,0.000000,0.000000,0.345701,16.057094,-4.873861)"
       inkscape:export-xdpi="400"
       inkscape:export-ydpi="400">
      <g
         style="fill:#000000;stroke-opacity:1;fill-opacity:1"
         id="g2794">
        <g
           id="g2788"
           style="fill-opacity:1;stroke-opacity:1;fill:#000000">
          <path
             id="path2786"
             transform="translate(148.712,134.765)"
             d="M 1.859375 -2.296875 C 2.15625 -2.296875 2.890625 -2.328125 3.390625 -2.53125 C 4.09375 -2.828125 4.140625 -3.421875 4.140625 -3.5625 C 4.140625 -4 3.765625 -4.40625 3.078125 -4.40625 C 1.96875 -4.40625 0.453125 -3.4375 0.453125 -1.6875 C 0.453125 -0.671875 1.046875 0.109375 2.03125 0.109375 C 3.453125 0.109375 4.28125 -0.953125 4.28125 -1.0625 C 4.28125 -1.125 4.234375 -1.203125 4.171875 -1.203125 C 4.109375 -1.203125 4.09375 -1.171875 4.03125 -1.09375 C 3.25 -0.109375 2.15625 -0.109375 2.046875 -0.109375 C 1.265625 -0.109375 1.171875 -0.953125 1.171875 -1.265625 C 1.171875 -1.390625 1.1875 -1.6875 1.328125 -2.296875 Z M 1.390625 -2.515625 C 1.78125 -4.03125 2.8125 -4.1875 3.078125 -4.1875 C 3.53125 -4.1875 3.8125 -3.890625 3.8125 -3.5625 C 3.8125 -2.515625 2.21875 -2.515625 1.796875 -2.515625 Z M 1.390625 -2.515625 "
             style="fill-opacity:1;stroke:none;stroke-width:0;stroke-opacity:1;fill:#000000" />
        </g>
        <g
           id="g2792"
           style="fill-opacity:1;stroke-opacity:1;fill:#000000">
          <path
             id="path2790"
             transform="translate(153.351,136.259)"
             d="M 3.875 -2.625 C 3.90625 -2.71875 3.90625 -2.734375 3.90625 -2.78125 C 3.90625 -2.921875 3.796875 -3 3.671875 -3 C 3.59375 -3 3.46875 -2.96875 3.390625 -2.84375 C 3.359375 -2.796875 3.3125 -2.578125 3.28125 -2.4375 L 3.125 -1.859375 C 3.09375 -1.6875 2.875 -0.8125 2.84375 -0.734375 C 2.84375 -0.734375 2.53125 -0.125 2 -0.125 C 1.515625 -0.125 1.515625 -0.578125 1.515625 -0.703125 C 1.515625 -1.078125 1.671875 -1.515625 1.890625 -2.0625 C 1.96875 -2.28125 2 -2.359375 2 -2.484375 C 2 -2.8125 1.71875 -3.078125 1.34375 -3.078125 C 0.640625 -3.078125 0.328125 -2.125 0.328125 -2 C 0.328125 -1.921875 0.421875 -1.921875 0.453125 -1.921875 C 0.546875 -1.921875 0.546875 -1.953125 0.578125 -2.03125 C 0.75 -2.609375 1.046875 -2.875 1.328125 -2.875 C 1.4375 -2.875 1.5 -2.796875 1.5 -2.640625 C 1.5 -2.46875 1.4375 -2.328125 1.40625 -2.234375 C 1.0625 -1.375 1 -1.125 1 -0.8125 C 1 -0.703125 1 -0.375 1.265625 -0.140625 C 1.484375 0.03125 1.78125 0.0625 1.96875 0.0625 C 2.25 0.0625 2.5 -0.03125 2.71875 -0.25 C 2.640625 0.140625 2.5625 0.4375 2.265625 0.78125 C 2.078125 1 1.796875 1.21875 1.421875 1.21875 C 1.375 1.21875 1.046875 1.21875 0.90625 1 C 1.28125 0.953125 1.28125 0.625 1.28125 0.609375 C 1.28125 0.390625 1.078125 0.34375 1.015625 0.34375 C 0.84375 0.34375 0.609375 0.484375 0.609375 0.8125 C 0.609375 1.15625 0.9375 1.421875 1.4375 1.421875 C 2.140625 1.421875 3 0.875 3.21875 0 Z M 3.875 -2.625 "
             style="fill-opacity:1;stroke:none;stroke-width:0;stroke-opacity:1;fill:#000000" />
        </g>
      </g>
    </g>
  </g>
</svg>
