<?xml version="1.0" encoding="UTF-8" standalone="no"?>
<!-- Created with Inkscape (http://www.inkscape.org/) -->

<svg
   xmlns:ns1="http://www.iki.fi/pav/software/textext/"
   xmlns:dc="http://purl.org/dc/elements/1.1/"
   xmlns:cc="http://creativecommons.org/ns#"
   xmlns:rdf="http://www.w3.org/1999/02/22-rdf-syntax-ns#"
   xmlns:svg="http://www.w3.org/2000/svg"
   xmlns="http://www.w3.org/2000/svg"
   xmlns:sodipodi="http://sodipodi.sourceforge.net/DTD/sodipodi-0.dtd"
   xmlns:inkscape="http://www.inkscape.org/namespaces/inkscape"
   width="210mm"
   height="297mm"
   viewBox="0 0 210 297"
   version="1.1"
   id="svg8"
   enable-background="new"
   inkscape:version="0.92.3 (2405546, 2018-03-11)"
   sodipodi:docname="visual_servo_start.svg">
  <sodipodi:namedview
     id="base"
     pagecolor="#ffffff"
     bordercolor="#666666"
     borderopacity="1.0"
     inkscape:pageopacity="0.0"
     inkscape:pageshadow="2"
     inkscape:zoom="1.979899"
     inkscape:cx="383.68207"
     inkscape:cy="803.31007"
     inkscape:document-units="mm"
     inkscape:current-layer="layer1"
     showgrid="false"
     inkscape:window-width="1920"
     inkscape:window-height="1054"
     inkscape:window-x="1920"
     inkscape:window-y="0"
     inkscape:window-maximized="1" />
  <defs
     id="defs2">
    <marker
       inkscape:isstock="true"
       style="overflow:visible"
       id="Arrow1Mstart"
       refX="0.0"
       refY="0.0"
       orient="auto"
       inkscape:stockid="Arrow1Mstart">
      <path
         transform="scale(0.4) translate(10,0)"
         style="fill-rule:evenodd;stroke:#000000;stroke-width:1pt;stroke-opacity:1;fill:#000000;fill-opacity:1"
         d="M 0.0,0.0 L 5.0,-5.0 L -12.5,0.0 L 5.0,5.0 L 0.0,0.0 z "
         id="path1108" />
    </marker>
    <marker
       inkscape:isstock="true"
       style="overflow:visible;"
       id="marker2103"
       refX="0.0"
       refY="0.0"
       orient="auto"
       inkscape:stockid="Arrow1Mend">
      <path
         transform="scale(0.4) rotate(180) translate(10,0)"
         style="fill-rule:evenodd;stroke:#00a200;stroke-width:1pt;stroke-opacity:1;fill:#00a200;fill-opacity:1"
         d="M 0.0,0.0 L 5.0,-5.0 L -12.5,0.0 L 5.0,5.0 L 0.0,0.0 z "
         id="path2101" />
    </marker>
    <marker
       inkscape:isstock="true"
       style="overflow:visible;"
       id="Arrow1Send"
       refX="0.0"
       refY="0.0"
       orient="auto"
       inkscape:stockid="Arrow1Send">
      <path
         transform="scale(0.2) rotate(180) translate(6,0)"
         style="fill-rule:evenodd;stroke:#fe8201;stroke-width:1pt;stroke-opacity:1;fill:#fe8201;fill-opacity:1"
         d="M 0.0,0.0 L 5.0,-5.0 L -12.5,0.0 L 5.0,5.0 L 0.0,0.0 z "
         id="path1117" />
    </marker>
    <marker
       inkscape:isstock="true"
       style="overflow:visible;"
       id="Arrow1Mend"
       refX="0.0"
       refY="0.0"
       orient="auto"
       inkscape:stockid="Arrow1Mend">
      <path
         transform="scale(0.4) rotate(180) translate(10,0)"
         style="fill-rule:evenodd;stroke:#000000;stroke-width:1pt;stroke-opacity:1;fill:#000000;fill-opacity:1"
         d="M 0.0,0.0 L 5.0,-5.0 L -12.5,0.0 L 5.0,5.0 L 0.0,0.0 z "
         id="path1111" />
    </marker>
    <marker
       inkscape:isstock="true"
       style="overflow:visible;"
       id="Arrow1Lend"
       refX="0.0"
       refY="0.0"
       orient="auto"
       inkscape:stockid="Arrow1Lend">
      <path
         transform="scale(0.8) rotate(180) translate(12.5,0)"
         style="fill-rule:evenodd;stroke:#000000;stroke-width:1pt;stroke-opacity:1;fill:#000000;fill-opacity:1"
         d="M 0.0,0.0 L 5.0,-5.0 L -12.5,0.0 L 5.0,5.0 L 0.0,0.0 z "
         id="path1105" />
    </marker>
    <marker
       inkscape:isstock="true"
       style="overflow:visible"
       id="Arrow1Send-7"
       refX="0"
       refY="0"
       orient="auto"
       inkscape:stockid="Arrow1Send">
      <path
         transform="matrix(-0.2,0,0,-0.2,-1.2,0)"
         style="fill:#fe8201;fill-opacity:1;fill-rule:evenodd;stroke:#fe8201;stroke-width:1.00000003pt;stroke-opacity:1"
         d="M 0,0 5,-5 -12.5,0 5,5 Z"
         id="path1117-5"
         inkscape:connector-curvature="0" />
    </marker>
    <marker
       inkscape:isstock="true"
       style="overflow:visible"
       id="Arrow1Send-7-5"
       refX="0"
       refY="0"
       orient="auto"
       inkscape:stockid="Arrow1Send">
      <path
         transform="matrix(-0.2,0,0,-0.2,-1.2,0)"
         style="fill:#ff0000;fill-opacity:1;fill-rule:evenodd;stroke:#ff0000;stroke-width:1.00000003pt;stroke-opacity:1"
         d="M 0,0 5,-5 -12.5,0 5,5 Z"
         id="path1117-5-6"
         inkscape:connector-curvature="0" />
    </marker>
    <marker
       inkscape:isstock="true"
       style="overflow:visible"
       id="Arrow1Send-7-5-9"
       refX="0"
       refY="0"
       orient="auto"
       inkscape:stockid="Arrow1Send">
      <path
         transform="matrix(-0.2,0,0,-0.2,-1.2,0)"
         style="fill:#ff0000;fill-opacity:1;fill-rule:evenodd;stroke:#ff0000;stroke-width:1.00000003pt;stroke-opacity:1"
         d="M 0,0 5,-5 -12.5,0 5,5 Z"
         id="path1117-5-6-1"
         inkscape:connector-curvature="0" />
    </marker>
  </defs>
  <metadata
     id="metadata5">
    <rdf:RDF>
      <cc:Work
         rdf:about="">
        <dc:format>image/svg+xml</dc:format>
        <dc:type
           rdf:resource="http://purl.org/dc/dcmitype/StillImage" />
        <dc:title />
      </cc:Work>
    </rdf:RDF>
  </metadata>
  <g
     style="opacity:1;"
     id="layer1"
     inkscape:groupmode="layer"
     inkscape:label="Layer 1">
    <rect
       y="53.684143"
       x="32.9072"
       height="63.146606"
       width="108.04443"
       id="rect815"
       style="opacity:1;fill:none;fill-opacity:0.99507392;stroke:#000000;stroke-width:0.52383059;stroke-linecap:round;stroke-miterlimit:4;stroke-dasharray:none;stroke-dashoffset:0;stroke-opacity:1"
       inkscape:export-xdpi="400"
       inkscape:export-ydpi="400" />
    <circle
       r="0.98201585"
       cy="84.171387"
       cx="88.810326"
       id="path829"
       style="opacity:1;fill:#ff0000;fill-opacity:0.99507392;stroke:#ff0000;stroke-width:0.53817558;stroke-linecap:round;stroke-miterlimit:4;stroke-dasharray:none;stroke-dashoffset:0;stroke-opacity:1"
       inkscape:export-xdpi="400"
       inkscape:export-ydpi="400" />
    <path
       inkscape:connector-curvature="0"
       id="path835"
       d="m 35.517796,75.854122 11.339285,11.528274 7.370537,-7.748511 13.985119,13.985119 1.559152,-1.559152 -13.914248,-13.914248 6.307478,-6.307478 -10.92603,-10.92603 z"
       style="opacity:1;fill:#0e00ff;fill-opacity:1;stroke:#000000;stroke-width:0.26458332px;stroke-linecap:butt;stroke-linejoin:miter;stroke-opacity:1"
       inkscape:export-xdpi="400"
       inkscape:export-ydpi="400" />
    <circle
       r="0.66438287"
       cy="74.811325"
       cx="50.892651"
       id="path829-6"
       style="opacity:1;fill:#ff8300;fill-opacity:0.99507392;stroke:#fe8201;stroke-width:0.36410272;stroke-linecap:round;stroke-miterlimit:4;stroke-dasharray:none;stroke-dashoffset:0;stroke-opacity:1"
       inkscape:export-xdpi="400"
       inkscape:export-ydpi="400" />
    <path
       inkscape:connector-curvature="0"
       id="path1100"
       d="m 51.023419,74.85726 5.036362,5.036359"
       style="fill:none;stroke:#fe8201;stroke-width:0.76499999;stroke-linecap:butt;stroke-linejoin:miter;stroke-miterlimit:4;stroke-dasharray:none;stroke-opacity:1;marker-end:url(#Arrow1Send)"
       inkscape:export-xdpi="400"
       inkscape:export-ydpi="400" />
    <path
       inkscape:connector-curvature="0"
       id="path1100-3"
       d="m 51.023419,74.85726 5.03636,-5.036361"
       style="opacity:1;fill:none;stroke:#fe8201;stroke-width:0.76499999;stroke-linecap:butt;stroke-linejoin:miter;stroke-miterlimit:4;stroke-dasharray:none;stroke-opacity:1;marker-end:url(#Arrow1Send-7)"
       inkscape:export-xdpi="400"
       inkscape:export-ydpi="400" />
    <path
       inkscape:connector-curvature="0"
       id="path2095"
       d="M 51.023418,74.857258 V 86.366554"
       style="fill:none;stroke:#000000;stroke-width:0.26499999;stroke-linecap:butt;stroke-linejoin:miter;stroke-miterlimit:4;stroke-dasharray:0.26499999, 0.26499999;stroke-dashoffset:0;stroke-opacity:1"
       inkscape:export-xdpi="400"
       inkscape:export-ydpi="400" />
    <path
       inkscape:connector-curvature="0"
       id="path2097"
       d="m 51.090238,78.69926 c 0,0 2.021227,0.534537 2.071339,-1.536801"
       style="fill:none;stroke:#fe8201;stroke-width:0.26458332px;stroke-linecap:butt;stroke-linejoin:miter;stroke-opacity:1"
       inkscape:export-xdpi="400"
       inkscape:export-ydpi="400" />
    <path
       sodipodi:nodetypes="cc"
       inkscape:connector-curvature="0"
       id="path2099"
       d="m 51.023418,74.857258 36.130431,9.176781"
       style="fill:none;stroke:#00a200;stroke-width:0.26499999;stroke-linecap:butt;stroke-linejoin:miter;stroke-miterlimit:4;stroke-dasharray:none;stroke-opacity:1;marker-end:url(#marker2103)"
       inkscape:export-xdpi="400"
       inkscape:export-ydpi="400" />
    <path
       inkscape:connector-curvature="0"
       id="path1100-3-2"
       d="m 88.685345,83.086111 -10e-7,-7.122489"
       style="opacity:1;fill:none;stroke:#ff0000;stroke-width:0.36500001;stroke-linecap:butt;stroke-linejoin:miter;stroke-miterlimit:4;stroke-dasharray:none;stroke-opacity:1;marker-end:url(#Arrow1Send-7-5)"
       inkscape:export-xdpi="400"
       inkscape:export-ydpi="400" />
    <path
       inkscape:connector-curvature="0"
       id="path1100-3-2-2"
       d="m 89.790897,84.119821 h 7.12249"
       style="opacity:1;fill:none;stroke:#ff0000;stroke-width:0.36500001;stroke-linecap:butt;stroke-linejoin:miter;stroke-miterlimit:4;stroke-dasharray:none;stroke-opacity:1;marker-end:url(#Arrow1Send-7-5-9)"
       inkscape:export-xdpi="400"
       inkscape:export-ydpi="400" />
    <g
       transform="matrix(0.39510997,0,0,0.39510997,-15.355632,18.53658)"
       ns1:version="0.11.0"
       ns1:texconverter="pdflatex"
       ns1:pdfconverter="pdf2svg"
       ns1:text="$(x,y)$"
       ns1:preamble="/home/karadalex/.config/inkscape/extensions/textext/default_packages.tex"
       ns1:scale="1.49851872105"
       ns1:alignment="middle center"
       ns1:jacobian_sqrt="0.528644"
       style="opacity:1;fill:#fe8201;fill-opacity:1;stroke:#fe8201;stroke-opacity:1"
       id="g3736"
       inkscape:export-xdpi="400"
       inkscape:export-ydpi="400">
      <g
         id="g3734"
         style="opacity:1;fill:#fe8201;fill-opacity:1;stroke:#fe8201;stroke-opacity:1">
        <g
           style="opacity:1;fill:#fe8201;fill-opacity:1;stroke:#fe8201;stroke-opacity:1"
           id="g3718">
          <path
             inkscape:connector-curvature="0"
             style="opacity:1;fill:#fe8201;fill-opacity:1;stroke:#fe8201;stroke-width:0;stroke-opacity:1"
             d="m 3.296875,2.390625 c 0,-0.03125 0,-0.046875 -0.171875,-0.21875 C 1.890625,0.921875 1.5625,-0.96875 1.5625,-2.5 c 0,-1.734375 0.375,-3.46875 1.609375,-4.703125 0.125,-0.125 0.125,-0.140625 0.125,-0.171875 0,-0.078125 -0.03125,-0.109375 -0.09375,-0.109375 -0.109375,0 -1,0.6875 -1.59375,1.953125 -0.5,1.09375 -0.625,2.203125 -0.625,3.03125 0,0.78125 0.109375,1.984375 0.65625,3.125 C 2.25,1.84375 3.09375,2.5 3.203125,2.5 c 0.0625,0 0.09375,-0.03125 0.09375,-0.109375 z m 0,0"
             transform="translate(148.712,134.765)"
             id="path3716" />
        </g>
        <g
           style="opacity:1;fill:#fe8201;fill-opacity:1;stroke:#fe8201;stroke-opacity:1"
           id="g3724">
          <path
             inkscape:connector-curvature="0"
             style="opacity:1;fill:#fe8201;fill-opacity:1;stroke:#fe8201;stroke-width:0;stroke-opacity:1"
             d="M 3.328125,-3.015625 C 3.390625,-3.265625 3.625,-4.1875 4.3125,-4.1875 c 0.046875,0 0.296875,0 0.5,0.125 C 4.53125,-4 4.34375,-3.765625 4.34375,-3.515625 c 0,0.15625 0.109375,0.34375 0.375,0.34375 0.21875,0 0.53125,-0.171875 0.53125,-0.578125 0,-0.515625 -0.578125,-0.65625 -0.921875,-0.65625 -0.578125,0 -0.921875,0.53125 -1.046875,0.75 -0.25,-0.65625 -0.78125,-0.75 -1.078125,-0.75 -1.03125,0 -1.609375,1.28125 -1.609375,1.53125 0,0.109375 0.109375,0.109375 0.125,0.109375 0.078125,0 0.109375,-0.03125 0.125,-0.109375 0.34375,-1.0625 1,-1.3125 1.34375,-1.3125 0.1875,0 0.53125,0.09375 0.53125,0.671875 0,0.3125 -0.171875,0.96875 -0.53125,2.375 -0.15625,0.609375 -0.515625,1.03125 -0.953125,1.03125 -0.0625,0 -0.28125,0 -0.5,-0.125 0.25,-0.0625 0.46875,-0.265625 0.46875,-0.546875 0,-0.265625 -0.21875,-0.34375 -0.359375,-0.34375 -0.3125,0 -0.546875,0.25 -0.546875,0.578125 0,0.453125 0.484375,0.65625 0.921875,0.65625 0.671875,0 1.03125,-0.703125 1.046875,-0.75 0.125,0.359375 0.484375,0.75 1.078125,0.75 1.03125,0 1.59375,-1.28125 1.59375,-1.53125 0,-0.109375 -0.078125,-0.109375 -0.109375,-0.109375 -0.09375,0 -0.109375,0.046875 -0.140625,0.109375 -0.328125,1.078125 -1,1.3125 -1.3125,1.3125 -0.390625,0 -0.546875,-0.3125 -0.546875,-0.65625 0,-0.21875 0.046875,-0.4375 0.15625,-0.875 z m 0,0"
             transform="translate(152.587,134.765)"
             id="path3720" />
          <path
             inkscape:connector-curvature="0"
             style="opacity:1;fill:#fe8201;fill-opacity:1;stroke:#fe8201;stroke-width:0;stroke-opacity:1"
             d="m 2.03125,-0.015625 c 0,-0.65625 -0.25,-1.046875 -0.640625,-1.046875 -0.328125,0 -0.53125,0.25 -0.53125,0.53125 C 0.859375,-0.265625 1.0625,0 1.390625,0 1.5,0 1.640625,-0.046875 1.734375,-0.125 1.765625,-0.15625 1.78125,-0.15625 1.78125,-0.15625 c 0.015625,0 0.015625,0 0.015625,0.140625 0,0.75 -0.34375,1.34375 -0.671875,1.671875 -0.109375,0.109375 -0.109375,0.125 -0.109375,0.15625 0,0.078125 0.046875,0.109375 0.09375,0.109375 0.109375,0 0.921875,-0.765625 0.921875,-1.9375 z m 0,0"
             transform="translate(158.28063,134.765)"
             id="path3722" />
        </g>
        <g
           style="opacity:1;fill:#fe8201;fill-opacity:1;stroke:#fe8201;stroke-opacity:1"
           id="g3728">
          <path
             inkscape:connector-curvature="0"
             style="opacity:1;fill:#fe8201;fill-opacity:1;stroke:#fe8201;stroke-width:0;stroke-opacity:1"
             d="m 4.84375,-3.796875 c 0.046875,-0.140625 0.046875,-0.15625 0.046875,-0.234375 0,-0.171875 -0.140625,-0.265625 -0.296875,-0.265625 -0.09375,0 -0.25,0.0625 -0.34375,0.203125 -0.015625,0.0625 -0.109375,0.359375 -0.140625,0.546875 -0.078125,0.25 -0.140625,0.53125 -0.203125,0.796875 l -0.453125,1.796875 c -0.03125,0.140625 -0.46875,0.84375 -1.125,0.84375 -0.5,0 -0.609375,-0.4375 -0.609375,-0.8125 C 1.71875,-1.375 1.890625,-2 2.21875,-2.875 2.375,-3.28125 2.421875,-3.390625 2.421875,-3.59375 c 0,-0.4375 -0.3125,-0.8125 -0.8125,-0.8125 -0.953125,0 -1.3125,1.453125 -1.3125,1.53125 0,0.109375 0.09375,0.109375 0.109375,0.109375 0.109375,0 0.109375,-0.03125 0.15625,-0.1875 0.28125,-0.9375 0.671875,-1.234375 1.015625,-1.234375 0.078125,0 0.25,0 0.25,0.3125 0,0.25 -0.109375,0.515625 -0.171875,0.703125 -0.40625,1.0625 -0.578125,1.625 -0.578125,2.09375 0,0.890625 0.625,1.1875 1.21875,1.1875 0.390625,0 0.71875,-0.171875 1,-0.453125 -0.125,0.515625 -0.25,1.015625 -0.640625,1.546875 -0.265625,0.328125 -0.640625,0.625 -1.09375,0.625 -0.140625,0 -0.59375,-0.03125 -0.765625,-0.421875 0.15625,0 0.296875,0 0.421875,-0.125 C 1.328125,1.203125 1.421875,1.0625 1.421875,0.875 1.421875,0.5625 1.15625,0.53125 1.0625,0.53125 0.828125,0.53125 0.5,0.6875 0.5,1.171875 c 0,0.5 0.4375,0.875 1.0625,0.875 1.015625,0 2.046875,-0.90625 2.328125,-2.03125 z m 0,0"
             transform="translate(162.71199,134.765)"
             id="path3726" />
        </g>
        <g
           style="opacity:1;fill:#fe8201;fill-opacity:1;stroke:#fe8201;stroke-opacity:1"
           id="g3732">
          <path
             inkscape:connector-curvature="0"
             style="opacity:1;fill:#fe8201;fill-opacity:1;stroke:#fe8201;stroke-width:0;stroke-opacity:1"
             d="m 2.875,-2.5 c 0,-0.765625 -0.109375,-1.96875 -0.65625,-3.109375 -0.59375,-1.21875 -1.453125,-1.875 -1.546875,-1.875 -0.0625,0 -0.109375,0.046875 -0.109375,0.109375 0,0.03125 0,0.046875 0.1875,0.234375 0.984375,0.984375 1.546875,2.5625 1.546875,4.640625 0,1.71875 -0.359375,3.46875 -1.59375,4.71875 C 0.5625,2.34375 0.5625,2.359375 0.5625,2.390625 0.5625,2.453125 0.609375,2.5 0.671875,2.5 0.765625,2.5 1.671875,1.8125 2.25,0.546875 2.765625,-0.546875 2.875,-1.65625 2.875,-2.5 Z m 0,0"
             transform="translate(167.95,134.765)"
             id="path3730" />
        </g>
      </g>
    </g>
    <g
       id="g4111"
       style="fill:#fe8201;fill-opacity:1;stroke:#fe8201;stroke-opacity:1"
       ns1:jacobian_sqrt="0.425168"
       ns1:alignment="middle center"
       ns1:scale="1.20519993738"
       ns1:preamble="/home/karadalex/.config/inkscape/extensions/textext/default_packages.tex"
       ns1:text="$e_{\\theta}$"
       ns1:pdfconverter="pdf2svg"
       ns1:texconverter="pdflatex"
       ns1:version="0.11.0"
       transform="matrix(0.425168,0,0,0.425168,-11.634102,26.496519)"
       inkscape:export-xdpi="400"
       inkscape:export-ydpi="400">
      <g
         style="fill:#fe8201;fill-opacity:1;stroke:#fe8201;stroke-opacity:1"
         id="surface1">
        <g
           id="g4104"
           style="fill:#fe8201;fill-opacity:1;stroke:#fe8201;stroke-opacity:1">
          <path
             inkscape:connector-curvature="0"
             id="path4102"
             transform="translate(148.712,134.765)"
             d="m 1.859375,-2.296875 c 0.296875,0 1.03125,-0.03125 1.53125,-0.234375 0.703125,-0.296875 0.75,-0.890625 0.75,-1.03125 0,-0.4375 -0.375,-0.84375 -1.0625,-0.84375 -1.109375,0 -2.625,0.96875 -2.625,2.71875 0,1.015625 0.59375,1.796875 1.578125,1.796875 1.421875,0 2.25,-1.0625 2.25,-1.171875 0,-0.0625 -0.046875,-0.140625 -0.109375,-0.140625 -0.0625,0 -0.078125,0.03125 -0.140625,0.109375 -0.78125,0.984375 -1.875,0.984375 -1.984375,0.984375 -0.78125,0 -0.875,-0.84375 -0.875,-1.15625 0,-0.125 0.015625,-0.421875 0.15625,-1.03125 z m -0.46875,-0.21875 C 1.78125,-4.03125 2.8125,-4.1875 3.078125,-4.1875 c 0.453125,0 0.734375,0.296875 0.734375,0.625 0,1.046875 -1.59375,1.046875 -2.015625,1.046875 z m 0,0"
             style="fill:#fe8201;fill-opacity:1;stroke:#fe8201;stroke-width:0;stroke-opacity:1" />
        </g>
        <g
           id="g4108"
           style="fill:#fe8201;fill-opacity:1;stroke:#fe8201;stroke-opacity:1">
          <path
             inkscape:connector-curvature="0"
             id="path4106"
             transform="translate(153.351,136.259)"
             d="m 3.5625,-3.390625 c 0,-0.734375 -0.28125,-1.515625 -0.96875,-1.515625 -1.046875,0 -2.15625,1.875 -2.15625,3.46875 0,0.828125 0.328125,1.5 0.96875,1.5 1.046875,0 2.15625,-1.890625 2.15625,-3.453125 z m -2.34375,0.84375 c 0.359375,-1.5 0.96875,-2.15625 1.375,-2.15625 0.4375,0 0.4375,0.765625 0.4375,0.890625 0,0.28125 -0.046875,0.6875 -0.1875,1.265625 z m 1.5625,0.25 C 2.578125,-1.53125 2.421875,-1.15625 2.203125,-0.8125 2,-0.453125 1.71875,-0.125 1.40625,-0.125 c -0.375,0 -0.4375,-0.53125 -0.4375,-0.90625 0,-0.453125 0.125,-1 0.1875,-1.265625 z m 0,0"
             style="fill:#fe8201;fill-opacity:1;stroke:#fe8201;stroke-width:0;stroke-opacity:1" />
        </g>
      </g>
    </g>
    <g
       transform="matrix(0.425168,0,0,0.425168,-0.16602784,16.153736)"
       ns1:version="0.11.0"
       ns1:texconverter="pdflatex"
       ns1:pdfconverter="pdf2svg"
       ns1:text="$\\mathbf{e} = \\begin{bmatrix}e_x \\\\ e_y \\end{bmatrix}$"
       ns1:preamble="/home/karadalex/.config/inkscape/extensions/textext/default_packages.tex"
       ns1:scale="1.20519996573"
       ns1:alignment="middle center"
       ns1:jacobian_sqrt="0.425168"
       style="opacity:1;fill:#00a200;fill-opacity:1;stroke:#fe8201;stroke-opacity:1"
       id="g4271"
       inkscape:export-xdpi="400"
       inkscape:export-ydpi="400">
      <g
         id="g4269"
         style="opacity:1;fill:#00a200;fill-opacity:1;stroke:#fe8201;stroke-opacity:1">
        <g
           style="opacity:1;fill:#00a200;fill-opacity:1;stroke:#fe8201;stroke-opacity:1"
           id="g4239">
          <path
             inkscape:connector-curvature="0"
             style="opacity:1;fill:#00a200;fill-opacity:1;stroke:#fe8201;stroke-width:0;stroke-opacity:1"
             d="m 4.609375,-2.171875 c 0.21875,0 0.3125,0 0.3125,-0.265625 0,-0.3125 -0.0625,-1.046875 -0.5625,-1.546875 C 4,-4.34375 3.46875,-4.515625 2.78125,-4.515625 c -1.59375,0 -2.46875,1.03125 -2.46875,2.265625 0,1.34375 1,2.3125 2.609375,2.3125 1.578125,0 2,-1.0625 2,-1.234375 0,-0.171875 -0.1875,-0.171875 -0.234375,-0.171875 -0.171875,0 -0.1875,0.046875 -0.25,0.203125 -0.203125,0.484375 -0.78125,0.796875 -1.421875,0.796875 -1.40625,0 -1.421875,-1.328125 -1.421875,-1.828125 z M 1.59375,-2.5 C 1.609375,-2.890625 1.625,-3.3125 1.828125,-3.640625 2.09375,-4.03125 2.5,-4.15625 2.78125,-4.15625 c 1.171875,0 1.1875,1.3125 1.203125,1.65625 z m 0,0"
             transform="translate(148.712,139.248)"
             id="path4237" />
        </g>
        <g
           style="opacity:1;fill:#00a200;fill-opacity:1;stroke:#fe8201;stroke-opacity:1"
           id="g4243">
          <path
             inkscape:connector-curvature="0"
             style="opacity:1;fill:#00a200;fill-opacity:1;stroke:#fe8201;stroke-width:0;stroke-opacity:1"
             d="m 6.84375,-3.265625 c 0.15625,0 0.34375,0 0.34375,-0.1875 C 7.1875,-3.65625 7,-3.65625 6.859375,-3.65625 h -5.96875 c -0.140625,0 -0.328125,0 -0.328125,0.203125 0,0.1875 0.1875,0.1875 0.328125,0.1875 z m 0.015625,1.9375 c 0.140625,0 0.328125,0 0.328125,-0.203125 0,-0.1875 -0.1875,-0.1875 -0.34375,-0.1875 H 0.890625 c -0.140625,0 -0.328125,0 -0.328125,0.1875 0,0.203125 0.1875,0.203125 0.328125,0.203125 z m 0,0"
             transform="translate(156.731,139.248)"
             id="path4241" />
        </g>
        <g
           style="opacity:1;fill:#00a200;fill-opacity:1;stroke:#fe8201;stroke-opacity:1"
           id="g4247">
          <path
             inkscape:connector-curvature="0"
             style="opacity:1;fill:#00a200;fill-opacity:1;stroke:#fe8201;stroke-width:0;stroke-opacity:1"
             d="M 2.5,23.515625 H 5.109375 V 22.96875 h -2.0625 V 0.15625 h 2.0625 v -0.5625 H 2.5 Z m 0,0"
             transform="translate(167.247,125.2)"
             id="path4245" />
        </g>
        <g
           style="opacity:1;fill:#00a200;fill-opacity:1;stroke:#fe8201;stroke-opacity:1"
           id="g4251">
          <path
             inkscape:connector-curvature="0"
             style="opacity:1;fill:#00a200;fill-opacity:1;stroke:#fe8201;stroke-width:0;stroke-opacity:1"
             d="m 1.859375,-2.296875 c 0.296875,0 1.03125,-0.03125 1.53125,-0.234375 0.703125,-0.296875 0.75,-0.890625 0.75,-1.03125 0,-0.4375 -0.375,-0.84375 -1.0625,-0.84375 -1.109375,0 -2.625,0.96875 -2.625,2.71875 0,1.015625 0.59375,1.796875 1.578125,1.796875 1.421875,0 2.25,-1.0625 2.25,-1.171875 0,-0.0625 -0.046875,-0.140625 -0.109375,-0.140625 -0.0625,0 -0.078125,0.03125 -0.140625,0.109375 -0.78125,0.984375 -1.875,0.984375 -1.984375,0.984375 -0.78125,0 -0.875,-0.84375 -0.875,-1.15625 0,-0.125 0.015625,-0.421875 0.15625,-1.03125 z m -0.46875,-0.21875 C 1.78125,-4.03125 2.8125,-4.1875 3.078125,-4.1875 c 0.453125,0 0.734375,0.296875 0.734375,0.625 0,1.046875 -1.59375,1.046875 -2.015625,1.046875 z m 0,0"
             transform="translate(172.505,133.171)"
             id="path4249" />
        </g>
        <g
           style="opacity:1;fill:#00a200;fill-opacity:1;stroke:#fe8201;stroke-opacity:1"
           id="g4255">
          <path
             inkscape:connector-curvature="0"
             style="opacity:1;fill:#00a200;fill-opacity:1;stroke:#fe8201;stroke-width:0;stroke-opacity:1"
             d="M 1.734375,-0.734375 C 1.671875,-0.5 1.4375,-0.125 1.078125,-0.125 c -0.015625,0 -0.234375,0 -0.375,-0.09375 0.28125,-0.09375 0.3125,-0.34375 0.3125,-0.390625 0,-0.15625 -0.125,-0.25 -0.28125,-0.25 -0.203125,0 -0.40625,0.15625 -0.40625,0.421875 0,0.34375 0.390625,0.5 0.734375,0.5 0.328125,0 0.609375,-0.1875 0.78125,-0.484375 C 2.015625,-0.0625 2.390625,0.0625 2.671875,0.0625 c 0.8125,0 1.234375,-0.859375 1.234375,-1.0625 0,-0.09375 -0.09375,-0.09375 -0.109375,-0.09375 -0.109375,0 -0.109375,0.046875 -0.140625,0.125 -0.140625,0.484375 -0.5625,0.84375 -0.953125,0.84375 -0.28125,0 -0.421875,-0.1875 -0.421875,-0.453125 0,-0.1875 0.171875,-0.8125 0.359375,-1.59375 C 2.78125,-2.703125 3.09375,-2.875 3.328125,-2.875 c 0.015625,0 0.21875,0 0.375,0.09375 -0.21875,0.0625 -0.3125,0.265625 -0.3125,0.390625 0,0.140625 0.125,0.25 0.28125,0.25 0.15625,0 0.390625,-0.125 0.390625,-0.421875 0,-0.390625 -0.453125,-0.515625 -0.71875,-0.515625 -0.359375,0 -0.640625,0.234375 -0.78125,0.5 -0.125,-0.28125 -0.453125,-0.5 -0.84375,-0.5 C 0.9375,-3.078125 0.5,-2.21875 0.5,-2 c 0,0.078125 0.09375,0.078125 0.109375,0.078125 0.09375,0 0.09375,-0.015625 0.140625,-0.109375 C 0.921875,-2.578125 1.359375,-2.875 1.703125,-2.875 1.9375,-2.875 2.125,-2.75 2.125,-2.421875 2.125,-2.28125 2.03125,-1.9375 1.96875,-1.6875 Z m 0,0"
             transform="translate(177.144,134.665)"
             id="path4253" />
        </g>
        <g
           style="opacity:1;fill:#00a200;fill-opacity:1;stroke:#fe8201;stroke-opacity:1"
           id="g4259">
          <path
             inkscape:connector-curvature="0"
             style="opacity:1;fill:#00a200;fill-opacity:1;stroke:#fe8201;stroke-width:0;stroke-opacity:1"
             d="m 1.859375,-2.296875 c 0.296875,0 1.03125,-0.03125 1.53125,-0.234375 0.703125,-0.296875 0.75,-0.890625 0.75,-1.03125 0,-0.4375 -0.375,-0.84375 -1.0625,-0.84375 -1.109375,0 -2.625,0.96875 -2.625,2.71875 0,1.015625 0.59375,1.796875 1.578125,1.796875 1.421875,0 2.25,-1.0625 2.25,-1.171875 0,-0.0625 -0.046875,-0.140625 -0.109375,-0.140625 -0.0625,0 -0.078125,0.03125 -0.140625,0.109375 -0.78125,0.984375 -1.875,0.984375 -1.984375,0.984375 -0.78125,0 -0.875,-0.84375 -0.875,-1.15625 0,-0.125 0.015625,-0.421875 0.15625,-1.03125 z m -0.46875,-0.21875 C 1.78125,-4.03125 2.8125,-4.1875 3.078125,-4.1875 c 0.453125,0 0.734375,0.296875 0.734375,0.625 0,1.046875 -1.59375,1.046875 -2.015625,1.046875 z m 0,0"
             transform="translate(172.619,145.126)"
             id="path4257" />
        </g>
        <g
           style="opacity:1;fill:#00a200;fill-opacity:1;stroke:#fe8201;stroke-opacity:1"
           id="g4263">
          <path
             inkscape:connector-curvature="0"
             style="opacity:1;fill:#00a200;fill-opacity:1;stroke:#fe8201;stroke-width:0;stroke-opacity:1"
             d="M 3.875,-2.625 C 3.90625,-2.71875 3.90625,-2.734375 3.90625,-2.78125 3.90625,-2.921875 3.796875,-3 3.671875,-3 3.59375,-3 3.46875,-2.96875 3.390625,-2.84375 3.359375,-2.796875 3.3125,-2.578125 3.28125,-2.4375 L 3.125,-1.859375 c -0.03125,0.171875 -0.25,1.046875 -0.28125,1.125 0,0 -0.3125,0.609375 -0.84375,0.609375 -0.484375,0 -0.484375,-0.453125 -0.484375,-0.578125 0,-0.375 0.15625,-0.8125 0.375,-1.359375 C 1.96875,-2.28125 2,-2.359375 2,-2.484375 2,-2.8125 1.71875,-3.078125 1.34375,-3.078125 0.640625,-3.078125 0.328125,-2.125 0.328125,-2 c 0,0.078125 0.09375,0.078125 0.125,0.078125 0.09375,0 0.09375,-0.03125 0.125,-0.109375 C 0.75,-2.609375 1.046875,-2.875 1.328125,-2.875 1.4375,-2.875 1.5,-2.796875 1.5,-2.640625 c 0,0.171875 -0.0625,0.3125 -0.09375,0.40625 C 1.0625,-1.375 1,-1.125 1,-0.8125 1,-0.703125 1,-0.375 1.265625,-0.140625 1.484375,0.03125 1.78125,0.0625 1.96875,0.0625 2.25,0.0625 2.5,-0.03125 2.71875,-0.25 2.640625,0.140625 2.5625,0.4375 2.265625,0.78125 2.078125,1 1.796875,1.21875 1.421875,1.21875 c -0.046875,0 -0.375,0 -0.515625,-0.21875 0.375,-0.046875 0.375,-0.375 0.375,-0.390625 0,-0.21875 -0.203125,-0.265625 -0.265625,-0.265625 -0.171875,0 -0.40625,0.140625 -0.40625,0.46875 0,0.34375 0.328125,0.609375 0.828125,0.609375 C 2.140625,1.421875 3,0.875 3.21875,0 Z m 0,0"
             transform="translate(177.257,146.62)"
             id="path4261" />
        </g>
        <g
           style="opacity:1;fill:#00a200;fill-opacity:1;stroke:#fe8201;stroke-opacity:1"
           id="g4267">
          <path
             inkscape:connector-curvature="0"
             style="opacity:1;fill:#00a200;fill-opacity:1;stroke:#fe8201;stroke-width:0;stroke-opacity:1"
             d="M 2.21875,22.96875 H 0.140625 v 0.546875 h 2.625 V -0.40625 h -2.625 v 0.5625 H 2.21875 Z m 0,0"
             transform="translate(182.16,125.201)"
             id="path4265" />
        </g>
      </g>
    </g>
    <circle
       r="4.477613"
       cy="84.186623"
       cx="88.800293"
       id="path4593"
       style="opacity:1;fill:#001000;fill-opacity:0.31527093;stroke:#001e00;stroke-width:0.22966793;stroke-linecap:round;stroke-miterlimit:4;stroke-dasharray:none;stroke-dashoffset:0;stroke-opacity:1"
       inkscape:export-xdpi="400"
       inkscape:export-ydpi="400" />
    <path
       inkscape:connector-curvature="0"
       id="path4595"
       d="m 88.700074,84.15322 1.536798,4.276313"
       style="fill:none;stroke:#000000;stroke-width:0.165;stroke-linecap:butt;stroke-linejoin:miter;stroke-opacity:1;stroke-miterlimit:4;stroke-dasharray:0.165, 0.16500000000000001;stroke-dashoffset:0;marker-start:"
       inkscape:export-xdpi="400"
       inkscape:export-ydpi="400" />
    <g
       id="g4722"
       style="opacity:1;fill:#000001;fill-opacity:1;stroke:#000901;stroke-opacity:1"
       ns1:jacobian_sqrt="0.425168"
       inkscapeversion="0.92.3"
       ns1:alignment="middle center"
       ns1:scale="1.20519996573"
       ns1:preamble="/home/karadalex/.config/inkscape/extensions/textext/default_packages.tex"
       ns1:text="$e_{max}$"
       ns1:pdfconverter="pdf2svg"
       ns1:texconverter="pdflatex"
       ns1:version="0.11.0"
       transform="matrix(0.425168,0,0,0.425168,28.244636,34.156425)"
       inkscape:export-xdpi="400"
       inkscape:export-ydpi="400">
      <g
         style="opacity:1;fill:#000001;fill-opacity:1;stroke:#000901;stroke-opacity:1"
         id="g4720">
        <g
           id="g4710"
           style="opacity:1;fill:#000001;fill-opacity:1;stroke:#000901;stroke-opacity:1">
          <path
             id="path4708"
             transform="translate(148.712,134.765)"
             d="m 1.859375,-2.296875 c 0.296875,0 1.03125,-0.03125 1.53125,-0.234375 0.703125,-0.296875 0.75,-0.890625 0.75,-1.03125 0,-0.4375 -0.375,-0.84375 -1.0625,-0.84375 -1.109375,0 -2.625,0.96875 -2.625,2.71875 0,1.015625 0.59375,1.796875 1.578125,1.796875 1.421875,0 2.25,-1.0625 2.25,-1.171875 0,-0.0625 -0.046875,-0.140625 -0.109375,-0.140625 -0.0625,0 -0.078125,0.03125 -0.140625,0.109375 -0.78125,0.984375 -1.875,0.984375 -1.984375,0.984375 -0.78125,0 -0.875,-0.84375 -0.875,-1.15625 0,-0.125 0.015625,-0.421875 0.15625,-1.03125 z m -0.46875,-0.21875 C 1.78125,-4.03125 2.8125,-4.1875 3.078125,-4.1875 c 0.453125,0 0.734375,0.296875 0.734375,0.625 0,1.046875 -1.59375,1.046875 -2.015625,1.046875 z m 0,0"
             style="opacity:1;fill:#000001;fill-opacity:1;stroke:#000901;stroke-width:0;stroke-opacity:1"
             inkscape:connector-curvature="0" />
        </g>
        <g
           id="g4718"
           style="opacity:1;fill:#000001;fill-opacity:1;stroke:#000901;stroke-opacity:1">
          <path
             id="path4712"
             transform="translate(153.351,136.259)"
             d="m 3.03125,-0.5625 c -0.046875,0.140625 -0.109375,0.375 -0.109375,0.40625 0,0.15625 0.125,0.21875 0.234375,0.21875 0.140625,0 0.25,-0.078125 0.28125,-0.140625 0.03125,-0.0625 0.09375,-0.296875 0.125,-0.4375 0.03125,-0.125 0.109375,-0.453125 0.15625,-0.625 0.03125,-0.15625 0.078125,-0.3125 0.109375,-0.46875 0.078125,-0.296875 0.078125,-0.3125 0.21875,-0.53125 C 4.265625,-2.484375 4.625,-2.875 5.15625,-2.875 c 0.390625,0 0.421875,0.3125 0.421875,0.484375 0,0.421875 -0.296875,1.1875 -0.421875,1.484375 -0.0625,0.203125 -0.09375,0.265625 -0.09375,0.375 0,0.375 0.296875,0.59375 0.65625,0.59375 0.703125,0 1,-0.953125 1,-1.0625 0,-0.09375 -0.078125,-0.09375 -0.109375,-0.09375 -0.09375,0 -0.09375,0.046875 -0.125,0.125 C 6.328125,-0.40625 6.015625,-0.125 5.75,-0.125 c -0.15625,0 -0.1875,-0.09375 -0.1875,-0.25 0,-0.15625 0.046875,-0.25 0.171875,-0.5625 0.078125,-0.21875 0.359375,-0.953125 0.359375,-1.34375 0,-0.109375 0,-0.40625 -0.25,-0.609375 -0.125,-0.078125 -0.328125,-0.1875 -0.65625,-0.1875 -0.625,0 -1,0.421875 -1.234375,0.703125 C 3.90625,-2.96875 3.40625,-3.078125 3.046875,-3.078125 2.46875,-3.078125 2.078125,-2.71875 1.875,-2.4375 1.828125,-2.921875 1.421875,-3.078125 1.125,-3.078125 c -0.296875,0 -0.453125,0.21875 -0.546875,0.375 -0.15625,0.265625 -0.25,0.65625 -0.25,0.703125 0,0.078125 0.09375,0.078125 0.125,0.078125 0.09375,0 0.09375,-0.015625 0.140625,-0.203125 0.109375,-0.40625 0.25,-0.75 0.515625,-0.75 0.1875,0 0.234375,0.15625 0.234375,0.34375 0,0.125 -0.0625,0.390625 -0.125,0.578125 -0.046875,0.1875 -0.109375,0.46875 -0.140625,0.625 L 0.84375,-0.4375 c -0.015625,0.09375 -0.0625,0.265625 -0.0625,0.28125 0,0.15625 0.125,0.21875 0.234375,0.21875 0.125,0 0.234375,-0.078125 0.28125,-0.140625 0.03125,-0.0625 0.078125,-0.296875 0.125,-0.4375 0.03125,-0.125 0.109375,-0.453125 0.140625,-0.625 0.046875,-0.15625 0.09375,-0.3125 0.125,-0.46875 0.078125,-0.28125 0.09375,-0.34375 0.296875,-0.625 C 2.171875,-2.515625 2.5,-2.875 3.03125,-2.875 c 0.390625,0 0.40625,0.359375 0.40625,0.484375 0,0.171875 -0.015625,0.265625 -0.125,0.65625 z m 0,0"
             style="opacity:1;fill:#000001;fill-opacity:1;stroke:#000901;stroke-width:0;stroke-opacity:1"
             inkscape:connector-curvature="0" />
          <path
             id="path4714"
             transform="translate(160.42034,136.259)"
             d="m 2.9375,-2.65625 c -0.140625,-0.234375 -0.375,-0.421875 -0.71875,-0.421875 -0.890625,0 -1.796875,0.984375 -1.796875,1.984375 0,0.6875 0.453125,1.15625 1.0625,1.15625 0.375,0 0.703125,-0.203125 0.984375,-0.484375 C 2.59375,0 3,0.0625 3.1875,0.0625 c 0.25,0 0.421875,-0.140625 0.546875,-0.359375 0.15625,-0.28125 0.25,-0.671875 0.25,-0.703125 0,-0.09375 -0.09375,-0.09375 -0.109375,-0.09375 -0.109375,0 -0.109375,0.03125 -0.15625,0.21875 C 3.625,-0.53125 3.5,-0.125 3.203125,-0.125 3.03125,-0.125 2.96875,-0.28125 2.96875,-0.46875 c 0,-0.109375 0.0625,-0.375 0.109375,-0.546875 0.046875,-0.1875 0.125,-0.46875 0.15625,-0.625 L 3.375,-2.171875 C 3.421875,-2.359375 3.5,-2.6875 3.5,-2.71875 3.5,-2.875 3.375,-2.9375 3.265625,-2.9375 c -0.125,0 -0.28125,0.078125 -0.328125,0.28125 z M 2.5,-0.875 C 2.453125,-0.671875 2.296875,-0.53125 2.140625,-0.40625 2.078125,-0.34375 1.796875,-0.125 1.5,-0.125 c -0.265625,0 -0.515625,-0.1875 -0.515625,-0.671875 0,-0.375 0.203125,-1.140625 0.375,-1.421875 0.3125,-0.5625 0.671875,-0.65625 0.859375,-0.65625 0.484375,0 0.625,0.53125 0.625,0.609375 0,0.015625 -0.015625,0.078125 -0.015625,0.09375 z m 0,0"
             style="opacity:1;fill:#000001;fill-opacity:1;stroke:#000901;stroke-width:0;stroke-opacity:1"
             inkscape:connector-curvature="0" />
          <path
             id="path4716"
             transform="translate(164.742,136.259)"
             d="M 1.734375,-0.734375 C 1.671875,-0.5 1.4375,-0.125 1.078125,-0.125 c -0.015625,0 -0.234375,0 -0.375,-0.09375 0.28125,-0.09375 0.3125,-0.34375 0.3125,-0.390625 0,-0.15625 -0.125,-0.25 -0.28125,-0.25 -0.203125,0 -0.40625,0.15625 -0.40625,0.421875 0,0.34375 0.390625,0.5 0.734375,0.5 0.328125,0 0.609375,-0.1875 0.78125,-0.484375 C 2.015625,-0.0625 2.390625,0.0625 2.671875,0.0625 c 0.8125,0 1.234375,-0.859375 1.234375,-1.0625 0,-0.09375 -0.09375,-0.09375 -0.109375,-0.09375 -0.109375,0 -0.109375,0.046875 -0.140625,0.125 -0.140625,0.484375 -0.5625,0.84375 -0.953125,0.84375 -0.28125,0 -0.421875,-0.1875 -0.421875,-0.453125 0,-0.1875 0.171875,-0.8125 0.359375,-1.59375 C 2.78125,-2.703125 3.09375,-2.875 3.328125,-2.875 c 0.015625,0 0.21875,0 0.375,0.09375 -0.21875,0.0625 -0.3125,0.265625 -0.3125,0.390625 0,0.140625 0.125,0.25 0.28125,0.25 0.15625,0 0.390625,-0.125 0.390625,-0.421875 0,-0.390625 -0.453125,-0.515625 -0.71875,-0.515625 -0.359375,0 -0.640625,0.234375 -0.78125,0.5 -0.125,-0.28125 -0.453125,-0.5 -0.84375,-0.5 C 0.9375,-3.078125 0.5,-2.21875 0.5,-2 c 0,0.078125 0.09375,0.078125 0.109375,0.078125 0.09375,0 0.09375,-0.015625 0.140625,-0.109375 C 0.921875,-2.578125 1.359375,-2.875 1.703125,-2.875 1.9375,-2.875 2.125,-2.75 2.125,-2.421875 2.125,-2.28125 2.03125,-1.9375 1.96875,-1.6875 Z m 0,0"
             style="opacity:1;fill:#000001;fill-opacity:1;stroke:#000901;stroke-width:0;stroke-opacity:1"
             inkscape:connector-curvature="0" />
        </g>
      </g>
    </g>
    <text
       xml:space="preserve"
       style="font-style:normal;font-weight:normal;font-size:2.43633223px;line-height:1.25;font-family:sans-serif;letter-spacing:0px;word-spacing:0px;fill:#ff0000;fill-opacity:1;stroke:none;stroke-width:0.0609083;"
       x="89.851173"
       y="76.059105"
       id="text4805"
       inkscape:export-xdpi="400"
       inkscape:export-ydpi="400"><tspan
         sodipodi:role="line"
         id="tspan4803"
         x="89.851173"
         y="76.059105"
         style="stroke-width:0.0609083;fill:#ff0000;fill-opacity:1;">desired pose</tspan></text>
    <text
       xml:space="preserve"
       style="font-style:normal;font-weight:normal;font-size:2.43633223px;line-height:1.25;font-family:sans-serif;letter-spacing:0px;word-spacing:0px;opacity:1;fill:#030000;fill-opacity:1;stroke:none;stroke-width:0.0609083"
       x="93.842018"
       y="95.415916"
       id="text4805-3"
       inkscape:export-xdpi="400"
       inkscape:export-ydpi="400"><tspan
         sodipodi:role="line"
         id="tspan4803-7"
         x="93.842018"
         y="95.415916"
         style="fill:#030000;fill-opacity:1;stroke-width:0.0609083">target position tolerance</tspan></text>
  </g>
  <g
     inkscape:label="Layer 2"
     id="layer2"
     inkscape:groupmode="layer" />
</svg>
